<svg width="30" height="30" viewBox="0 0 30 30" fill="none" xmlns="http://www.w3.org/2000/svg">
<path fill-rule="evenodd" clip-rule="evenodd" d="M15 30C23.2843 30 30 23.2843 30 15C30 6.71573 23.2843 0 15 0C6.71573 0 0 6.71573 0 15C0 23.2843 6.71573 30 15 30Z" fill="#0064FF"/>
<path d="M15 14.1667C14.3407 14.1667 13.6963 13.9712 13.1481 13.6049C12.5999 13.2386 12.1727 12.718 11.9204 12.1089C11.6681 11.4999 11.6021 10.8296 11.7307 10.183C11.8593 9.53643 12.1768 8.94249 12.643 8.47631C13.1092 8.01014 13.7031 7.69267 14.3497 7.56405C14.9963 7.43543 15.6665 7.50144 16.2756 7.75374C16.8847 8.00603 17.4053 8.43327 17.7716 8.98143C18.1378 9.5296 18.3333 10.1741 18.3333 10.8333C18.3333 11.7174 17.9821 12.5652 17.357 13.1904C16.7319 13.8155 15.8841 14.1667 15 14.1667ZM15 9.16667C14.6704 9.16667 14.3481 9.26442 14.0741 9.44755C13.8 9.63069 13.5863 9.89099 13.4602 10.1955C13.3341 10.5001 13.301 10.8352 13.3654 11.1585C13.4297 11.4818 13.5884 11.7788 13.8215 12.0118C14.0546 12.2449 14.3515 12.4037 14.6748 12.468C14.9982 12.5323 15.3333 12.4993 15.6378 12.3731C15.9423 12.247 16.2026 12.0334 16.3858 11.7593C16.5689 11.4852 16.6667 11.163 16.6667 10.8333C16.6667 10.3913 16.4911 9.96738 16.1785 9.65482C15.866 9.34226 15.442 9.16667 15 9.16667V9.16667ZM20.8333 22.5H9.16667C8.72464 22.5 8.30072 22.3244 7.98816 22.0118C7.6756 21.6993 7.5 21.2754 7.5 20.8333V18.425C7.49978 18.1021 7.59338 17.786 7.76944 17.5153C7.94549 17.2445 8.1964 17.0308 8.49167 16.9L8.625 16.85L14.4 15.4C14.7861 15.251 15.2139 15.251 15.6 15.4L21.375 16.85L21.5083 16.9C21.8023 17.0302 22.0523 17.2427 22.2283 17.5118C22.4043 17.7809 22.4986 18.0951 22.5 18.4167V20.8333C22.5 21.2754 22.3244 21.6993 22.0118 22.0118C21.6993 22.3244 21.2754 22.5 20.8333 22.5ZM9.16667 18.4333V20.8333H20.8333V18.4333L15.1333 17C15.0872 16.9884 15.0424 16.9716 15 16.95V16.95C14.9576 16.9716 14.9128 16.9884 14.8667 17L9.16667 18.4333Z" fill="white"/>
</svg>
