<svg width="319" height="319" viewBox="0 0 319 319" fill="none" xmlns="http://www.w3.org/2000/svg">
<path d="M174 144H129V265H174V144Z" fill="white"/>
<path d="M157 265V148H136L134 149.91V265H157Z" fill="#79B4F2"/>
<path d="M161 264V150.45L163 148H174V264H161Z" fill="#79B4F2"/>
<path d="M129.5 265C129.367 265 129.24 264.947 129.146 264.854C129.053 264.76 129 264.633 129 264.5V143.5C129 143.367 129.053 143.24 129.146 143.146C129.24 143.053 129.367 143 129.5 143H156.5C156.633 143 156.76 143.053 156.854 143.146C156.947 143.24 157 143.367 157 143.5V260.5C157 260.633 156.947 260.76 156.854 260.854C156.76 260.947 156.633 261 156.5 261C156.367 261 156.24 260.947 156.146 260.854C156.053 260.76 156 260.633 156 260.5V144H130V264.5C130 264.633 129.947 264.76 129.854 264.854C129.76 264.947 129.633 265 129.5 265Z" fill="#256FC7"/>
<path d="M173.5 265C173.367 265 173.24 264.947 173.146 264.854C173.053 264.76 173 264.633 173 264.5V144H157V260.5C157 260.633 156.947 260.76 156.854 260.854C156.76 260.947 156.633 261 156.5 261C156.367 261 156.24 260.947 156.146 260.854C156.053 260.76 156 260.633 156 260.5V143.5C156 143.367 156.053 143.24 156.146 143.146C156.24 143.053 156.367 143 156.5 143H173.5C173.633 143 173.76 143.053 173.854 143.146C173.947 143.24 174 143.367 174 143.5V264.5C174 264.633 173.947 264.76 173.854 264.854C173.76 264.947 173.633 265 173.5 265Z" fill="#256FC7"/>
<path d="M136.5 160C136.367 160 136.24 159.947 136.146 159.854C136.053 159.76 136 159.633 136 159.5V153.5C136 153.367 136.053 153.24 136.146 153.146C136.24 153.053 136.367 153 136.5 153C136.633 153 136.76 153.053 136.854 153.146C136.947 153.24 137 153.367 137 153.5V159.5C137 159.633 136.947 159.76 136.854 159.854C136.76 159.947 136.633 160 136.5 160Z" fill="#256FC7"/>
<path d="M136.5 190C136.367 190 136.24 189.947 136.146 189.854C136.053 189.76 136 189.633 136 189.5V182.5C136 182.367 136.053 182.24 136.146 182.146C136.24 182.053 136.367 182 136.5 182C136.633 182 136.76 182.053 136.854 182.146C136.947 182.24 137 182.367 137 182.5V189.5C137 189.633 136.947 189.76 136.854 189.854C136.76 189.947 136.633 190 136.5 190Z" fill="#256FC7"/>
<path d="M148.5 206C148.367 206 148.24 205.947 148.146 205.854C148.053 205.76 148 205.633 148 205.5V200.5C148 200.367 148.053 200.24 148.146 200.146C148.24 200.053 148.367 200 148.5 200C148.633 200 148.76 200.053 148.854 200.146C148.947 200.24 149 200.367 149 200.5V205.5C149 205.633 148.947 205.76 148.854 205.854C148.76 205.947 148.633 206 148.5 206Z" fill="#256FC7"/>
<path d="M141.5 213C141.367 213 141.24 212.947 141.146 212.854C141.053 212.76 141 212.633 141 212.5V207.5C141 207.367 141.053 207.24 141.146 207.146C141.24 207.053 141.367 207 141.5 207C141.633 207 141.76 207.053 141.854 207.146C141.947 207.24 142 207.367 142 207.5V212.5C142 212.633 141.947 212.76 141.854 212.854C141.76 212.947 141.633 213 141.5 213Z" fill="#256FC7"/>
<path d="M135.5 251C135.367 251 135.24 250.947 135.146 250.854C135.053 250.76 135 250.633 135 250.5V240.5C135 240.367 135.053 240.24 135.146 240.146C135.24 240.053 135.367 240 135.5 240C135.633 240 135.76 240.053 135.854 240.146C135.947 240.24 136 240.367 136 240.5V250.5C136 250.633 135.947 250.76 135.854 250.854C135.76 250.947 135.633 251 135.5 251Z" fill="#256FC7"/>
<path d="M133.5 220C133.367 220 133.24 219.947 133.146 219.854C133.053 219.76 133 219.633 133 219.5V215.5C133 215.367 133.053 215.24 133.146 215.146C133.24 215.053 133.367 215 133.5 215C133.633 215 133.76 215.053 133.854 215.146C133.947 215.24 134 215.367 134 215.5V219.5C134 219.633 133.947 219.76 133.854 219.854C133.76 219.947 133.633 220 133.5 220Z" fill="#256FC7"/>
<path d="M168.5 223C168.367 223 168.24 222.947 168.146 222.854C168.053 222.76 168 222.633 168 222.5V218.5C168 218.367 168.053 218.24 168.146 218.146C168.24 218.053 168.367 218 168.5 218C168.633 218 168.76 218.053 168.854 218.146C168.947 218.24 169 218.367 169 218.5V222.5C169 222.633 168.947 222.76 168.854 222.854C168.76 222.947 168.633 223 168.5 223Z" fill="#256FC7"/>
<path d="M150.5 261C150.367 261 150.24 260.947 150.146 260.854C150.053 260.76 150 260.633 150 260.5V256.5C150 256.367 150.053 256.24 150.146 256.146C150.24 256.053 150.367 256 150.5 256C150.633 256 150.76 256.053 150.854 256.146C150.947 256.24 151 256.367 151 256.5V260.5C151 260.633 150.947 260.76 150.854 260.854C150.76 260.947 150.633 261 150.5 261Z" fill="#256FC7"/>
<path d="M167.5 243C167.367 243 167.24 242.947 167.146 242.854C167.053 242.76 167 242.633 167 242.5V238.5C167 238.367 167.053 238.24 167.146 238.146C167.24 238.053 167.367 238 167.5 238C167.633 238 167.76 238.053 167.854 238.146C167.947 238.24 168 238.367 168 238.5V242.5C168 242.633 167.947 242.76 167.854 242.854C167.76 242.947 167.633 243 167.5 243Z" fill="#256FC7"/>
<path d="M150.5 178C150.367 178 150.24 177.947 150.146 177.854C150.053 177.76 150 177.633 150 177.5V176.5C150 176.367 150.053 176.24 150.146 176.146C150.24 176.053 150.367 176 150.5 176C150.633 176 150.76 176.053 150.854 176.146C150.947 176.24 151 176.367 151 176.5V177.5C151 177.633 150.947 177.76 150.854 177.854C150.76 177.947 150.633 178 150.5 178Z" fill="#256FC7"/>
<path d="M165.5 172C165.367 172 165.24 171.947 165.146 171.854C165.053 171.76 165 171.633 165 171.5V170.5C165 170.367 165.053 170.24 165.146 170.146C165.24 170.053 165.367 170 165.5 170C165.633 170 165.76 170.053 165.854 170.146C165.947 170.24 166 170.367 166 170.5V171.5C166 171.633 165.947 171.76 165.854 171.854C165.76 171.947 165.633 172 165.5 172Z" fill="#256FC7"/>
<path d="M170.5 154C170.367 154 170.24 153.947 170.146 153.854C170.053 153.76 170 153.633 170 153.5V152.5C170 152.367 170.053 152.24 170.146 152.146C170.24 152.053 170.367 152 170.5 152C170.633 152 170.76 152.053 170.854 152.146C170.947 152.24 171 152.367 171 152.5V153.5C171 153.633 170.947 153.76 170.854 153.854C170.76 153.947 170.633 154 170.5 154Z" fill="#256FC7"/>
<path d="M168.5 228C168.367 228 168.24 227.947 168.146 227.854C168.053 227.76 168 227.633 168 227.5V226.5C168 226.367 168.053 226.24 168.146 226.146C168.24 226.053 168.367 226 168.5 226C168.633 226 168.76 226.053 168.854 226.146C168.947 226.24 169 226.367 169 226.5V227.5C169 227.633 168.947 227.76 168.854 227.854C168.76 227.947 168.633 228 168.5 228Z" fill="#256FC7"/>
<path d="M141.5 169C141.367 169 141.24 168.947 141.146 168.854C141.053 168.76 141 168.633 141 168.5V167.5C141 167.367 141.053 167.24 141.146 167.146C141.24 167.053 141.367 167 141.5 167C141.633 167 141.76 167.053 141.854 167.146C141.947 167.24 142 167.367 142 167.5V168.5C142 168.633 141.947 168.76 141.854 168.854C141.76 168.947 141.633 169 141.5 169Z" fill="#256FC7"/>
<path d="M163.5 160C163.367 160 163.24 159.947 163.146 159.854C163.053 159.76 163 159.633 163 159.5V158.5C163 158.367 163.053 158.24 163.146 158.146C163.24 158.053 163.367 158 163.5 158C163.633 158 163.76 158.053 163.854 158.146C163.947 158.24 164 158.367 164 158.5V159.5C164 159.633 163.947 159.76 163.854 159.854C163.76 159.947 163.633 160 163.5 160Z" fill="#256FC7"/>
<path d="M142.5 256C142.367 256 142.24 255.947 142.146 255.854C142.053 255.76 142 255.633 142 255.5V254.5C142 254.367 142.053 254.24 142.146 254.146C142.24 254.053 142.367 254 142.5 254C142.633 254 142.76 254.053 142.854 254.146C142.947 254.24 143 254.367 143 254.5V255.5C143 255.633 142.947 255.76 142.854 255.854C142.76 255.947 142.633 256 142.5 256Z" fill="#256FC7"/>
<path d="M141.5 219C141.367 219 141.24 218.947 141.146 218.854C141.053 218.76 141 218.633 141 218.5V217.5C141 217.367 141.053 217.24 141.146 217.146C141.24 217.053 141.367 217 141.5 217C141.633 217 141.76 217.053 141.854 217.146C141.947 217.24 142 217.367 142 217.5V218.5C142 218.633 141.947 218.76 141.854 218.854C141.76 218.947 141.633 219 141.5 219Z" fill="#256FC7"/>
<path d="M170.5 259C170.367 259 170.24 258.947 170.146 258.854C170.053 258.76 170 258.633 170 258.5V257.5C170 257.367 170.053 257.24 170.146 257.146C170.24 257.053 170.367 257 170.5 257C170.633 257 170.76 257.053 170.854 257.146C170.947 257.24 171 257.367 171 257.5V258.5C171 258.633 170.947 258.76 170.854 258.854C170.76 258.947 170.633 259 170.5 259Z" fill="#256FC7"/>
<path d="M151.5 152C151.367 152 151.24 151.947 151.146 151.854C151.053 151.76 151 151.633 151 151.5V146.5C151 146.367 151.053 146.24 151.146 146.146C151.24 146.053 151.367 146 151.5 146C151.633 146 151.76 146.053 151.854 146.146C151.947 146.24 152 146.367 152 146.5V151.5C152 151.633 151.947 151.76 151.854 151.854C151.76 151.947 151.633 152 151.5 152Z" fill="#256FC7"/>
<path d="M163.5 155C163.367 155 163.24 154.947 163.146 154.854C163.053 154.76 163 154.633 163 154.5V149.5C163 149.367 163.053 149.24 163.146 149.146C163.24 149.053 163.367 149 163.5 149C163.633 149 163.76 149.053 163.854 149.146C163.947 149.24 164 149.367 164 149.5V154.5C164 154.633 163.947 154.76 163.854 154.854C163.76 154.947 163.633 155 163.5 155Z" fill="#256FC7"/>
<path d="M151.5 158C151.367 158 151.24 157.947 151.146 157.854C151.053 157.76 151 157.633 151 157.5V156.5C151 156.367 151.053 156.24 151.146 156.146C151.24 156.053 151.367 156 151.5 156C151.633 156 151.76 156.053 151.854 156.146C151.947 156.24 152 156.367 152 156.5V157.5C152 157.633 151.947 157.76 151.854 157.854C151.76 157.947 151.633 158 151.5 158Z" fill="#256FC7"/>
<path d="M146.5 226C146.367 226 146.24 225.947 146.146 225.854C146.053 225.76 146 225.633 146 225.5V224.5C146 224.367 146.053 224.24 146.146 224.146C146.24 224.053 146.367 224 146.5 224C146.633 224 146.76 224.053 146.854 224.146C146.947 224.24 147 224.367 147 224.5V225.5C147 225.633 146.947 225.76 146.854 225.854C146.76 225.947 146.633 226 146.5 226Z" fill="#256FC7"/>
<path d="M135.5 237C135.367 237 135.24 236.947 135.146 236.854C135.053 236.76 135 236.633 135 236.5V235.5C135 235.367 135.053 235.24 135.146 235.146C135.24 235.053 135.367 235 135.5 235C135.633 235 135.76 235.053 135.854 235.146C135.947 235.24 136 235.367 136 235.5V236.5C136 236.633 135.947 236.76 135.854 236.854C135.76 236.947 135.633 237 135.5 237Z" fill="#256FC7"/>
<path d="M150.5 253C150.367 253 150.24 252.947 150.146 252.854C150.053 252.76 150 252.633 150 252.5V251.5C150 251.367 150.053 251.24 150.146 251.146C150.24 251.053 150.367 251 150.5 251C150.633 251 150.76 251.053 150.854 251.146C150.947 251.24 151 251.367 151 251.5V252.5C151 252.633 150.947 252.76 150.854 252.854C150.76 252.947 150.633 253 150.5 253Z" fill="#256FC7"/>
<path d="M162.5 239C162.367 239 162.24 238.947 162.146 238.854C162.053 238.76 162 238.633 162 238.5V237.5C162 237.367 162.053 237.24 162.146 237.146C162.24 237.053 162.367 237 162.5 237C162.633 237 162.76 237.053 162.854 237.146C162.947 237.24 163 237.367 163 237.5V238.5C163 238.633 162.947 238.76 162.854 238.854C162.76 238.947 162.633 239 162.5 239Z" fill="#256FC7"/>
<path d="M167.5 246C167.367 246 167.24 245.947 167.146 245.854C167.053 245.76 167 245.633 167 245.5V244.5C167 244.367 167.053 244.24 167.146 244.146C167.24 244.053 167.367 244 167.5 244C167.633 244 167.76 244.053 167.854 244.146C167.947 244.24 168 244.367 168 244.5V245.5C168 245.633 167.947 245.76 167.854 245.854C167.76 245.947 167.633 246 167.5 246Z" fill="#256FC7"/>
<path d="M133.5 213C133.367 213 133.24 212.947 133.146 212.854C133.053 212.76 133 212.633 133 212.5V211.5C133 211.367 133.053 211.24 133.146 211.146C133.24 211.053 133.367 211 133.5 211C133.633 211 133.76 211.053 133.854 211.146C133.947 211.24 134 211.367 134 211.5V212.5C134 212.633 133.947 212.76 133.854 212.854C133.76 212.947 133.633 213 133.5 213Z" fill="#256FC7"/>
<path d="M147.5 172C147.367 172 147.24 171.947 147.146 171.854C147.053 171.76 147 171.633 147 171.5V167.5C147 167.367 147.053 167.24 147.146 167.146C147.24 167.053 147.367 167 147.5 167C147.633 167 147.76 167.053 147.854 167.146C147.947 167.24 148 167.367 148 167.5V171.5C148 171.633 147.947 171.76 147.854 171.854C147.76 171.947 147.633 172 147.5 172Z" fill="#256FC7"/>
<path d="M170.5 167C170.367 167 170.24 166.947 170.146 166.854C170.053 166.76 170 166.633 170 166.5V162.5C170 162.367 170.053 162.24 170.146 162.146C170.24 162.053 170.367 162 170.5 162C170.633 162 170.76 162.053 170.854 162.146C170.947 162.24 171 162.367 171 162.5V166.5C171 166.633 170.947 166.76 170.854 166.854C170.76 166.947 170.633 167 170.5 167Z" fill="#256FC7"/>
<path d="M167.5 189C167.367 189 167.24 188.947 167.146 188.854C167.053 188.76 167 188.633 167 188.5V184.5C167 184.367 167.053 184.24 167.146 184.146C167.24 184.053 167.367 184 167.5 184C167.633 184 167.76 184.053 167.854 184.146C167.947 184.24 168 184.367 168 184.5V188.5C168 188.633 167.947 188.76 167.854 188.854C167.76 188.947 167.633 189 167.5 189Z" fill="#256FC7"/>
<path d="M147.5 165C147.367 165 147.24 164.947 147.146 164.854C147.053 164.76 147 164.633 147 164.5V163.5C147 163.367 147.053 163.24 147.146 163.146C147.24 163.053 147.367 163 147.5 163C147.633 163 147.76 163.053 147.854 163.146C147.947 163.24 148 163.367 148 163.5V164.5C148 164.633 147.947 164.76 147.854 164.854C147.76 164.947 147.633 165 147.5 165Z" fill="#256FC7"/>
<path d="M162.5 203C162.367 203 162.24 202.947 162.146 202.854C162.053 202.76 162 202.633 162 202.5V201.5C162 201.367 162.053 201.24 162.146 201.146C162.24 201.053 162.367 201 162.5 201C162.633 201 162.76 201.053 162.854 201.146C162.947 201.24 163 201.367 163 201.5V202.5C163 202.633 162.947 202.76 162.854 202.854C162.76 202.947 162.633 203 162.5 203Z" fill="#256FC7"/>
<path d="M167.5 181C167.367 181 167.24 180.947 167.146 180.854C167.053 180.76 167 180.633 167 180.5V179.5C167 179.367 167.053 179.24 167.146 179.146C167.24 179.053 167.367 179 167.5 179C167.633 179 167.76 179.053 167.854 179.146C167.947 179.24 168 179.367 168 179.5V180.5C168 180.633 167.947 180.76 167.854 180.854C167.76 180.947 167.633 181 167.5 181Z" fill="#256FC7"/>
<path d="M136.5 195C136.367 195 136.24 194.947 136.146 194.854C136.053 194.76 136 194.633 136 194.5V193.5C136 193.367 136.053 193.24 136.146 193.146C136.24 193.053 136.367 193 136.5 193C136.633 193 136.76 193.053 136.854 193.146C136.947 193.24 137 193.367 137 193.5V194.5C137 194.633 136.947 194.76 136.854 194.854C136.76 194.947 136.633 195 136.5 195Z" fill="#256FC7"/>
<path d="M143.5 179C143.367 179 143.24 178.947 143.146 178.854C143.053 178.76 143 178.633 143 178.5V177.5C143 177.367 143.053 177.24 143.146 177.146C143.24 177.053 143.367 177 143.5 177C143.633 177 143.76 177.053 143.854 177.146C143.947 177.24 144 177.367 144 177.5V178.5C144 178.633 143.947 178.76 143.854 178.854C143.76 178.947 143.633 179 143.5 179Z" fill="#256FC7"/>
<path d="M136.5 164C136.367 164 136.24 163.947 136.146 163.854C136.053 163.76 136 163.633 136 163.5V162.5C136 162.367 136.053 162.24 136.146 162.146C136.24 162.053 136.367 162 136.5 162C136.633 162 136.76 162.053 136.854 162.146C136.947 162.24 137 162.367 137 162.5V163.5C137 163.633 136.947 163.76 136.854 163.854C136.76 163.947 136.633 164 136.5 164Z" fill="#256FC7"/>
<path d="M148.5 211C148.367 211 148.24 210.947 148.146 210.854C148.053 210.76 148 210.633 148 210.5V209.5C148 209.367 148.053 209.24 148.146 209.146C148.24 209.053 148.367 209 148.5 209C148.633 209 148.76 209.053 148.854 209.146C148.947 209.24 149 209.367 149 209.5V210.5C149 210.633 148.947 210.76 148.854 210.854C148.76 210.947 148.633 211 148.5 211Z" fill="#256FC7"/>
<path d="M165.5 224C165.367 224 165.24 223.947 165.146 223.854C165.053 223.76 165 223.633 165 223.5V222.5C165 222.367 165.053 222.24 165.146 222.146C165.24 222.053 165.367 222 165.5 222C165.633 222 165.76 222.053 165.854 222.146C165.947 222.24 166 222.367 166 222.5V223.5C166 223.633 165.947 223.76 165.854 223.854C165.76 223.947 165.633 224 165.5 224Z" fill="#256FC7"/>
<path d="M146.5 237C146.367 237 146.24 236.947 146.146 236.854C146.053 236.76 146 236.633 146 236.5V230.5C146 230.367 146.053 230.24 146.146 230.146C146.24 230.053 146.367 230 146.5 230C146.633 230 146.76 230.053 146.854 230.146C146.947 230.24 147 230.367 147 230.5V236.5C147 236.633 146.947 236.76 146.854 236.854C146.76 236.947 146.633 237 146.5 237Z" fill="#256FC7"/>
<path d="M143.5 199C143.367 199 143.24 198.947 143.146 198.854C143.053 198.76 143 198.633 143 198.5V182.5C143 182.367 143.053 182.24 143.146 182.146C143.24 182.053 143.367 182 143.5 182C143.633 182 143.76 182.053 143.854 182.146C143.947 182.24 144 182.367 144 182.5V198.5C144 198.633 143.947 198.76 143.854 198.854C143.76 198.947 143.633 199 143.5 199Z" fill="#256FC7"/>
<path d="M162.5 258C162.367 258 162.24 257.947 162.146 257.854C162.053 257.76 162 257.633 162 257.5V241.5C162 241.367 162.053 241.24 162.146 241.146C162.24 241.053 162.367 241 162.5 241C162.633 241 162.76 241.053 162.854 241.146C162.947 241.24 163 241.367 163 241.5V257.5C163 257.633 162.947 257.76 162.854 257.854C162.76 257.947 162.633 258 162.5 258Z" fill="#256FC7"/>
<path d="M167.5 210C167.367 210 167.24 209.947 167.146 209.854C167.053 209.76 167 209.633 167 209.5V193.5C167 193.367 167.053 193.24 167.146 193.146C167.24 193.053 167.367 193 167.5 193C167.633 193 167.76 193.053 167.854 193.146C167.947 193.24 168 193.367 168 193.5V209.5C168 209.633 167.947 209.76 167.854 209.854C167.76 209.947 167.633 210 167.5 210Z" fill="#256FC7"/>
<path d="M208.5 172L178.5 144H216.5L245.29 169.07C245.29 169.07 251.58 175.07 242.5 180C232.79 185.33 220.07 183.39 208.5 172Z" fill="white"/>
<path d="M216 144H91L88 141V96C88 90.4305 90.2125 85.089 94.1508 81.1508C98.089 77.2125 103.43 75 109 75H198.71C204.09 75.0026 209.25 77.1412 213.054 80.9457C216.859 84.7503 218.997 89.9096 219 95.29V141L216 144Z" fill="white"/>
<path d="M179 144H97L95 141.48L95.36 98.85C95.3996 94.1021 97.3134 89.5622 100.685 86.2189C104.056 82.8757 108.612 80.9998 113.36 81H185C182 81 179 90 179 100V144Z" fill="#F0F6FD"/>
<path d="M216 144H184V100.43C184.005 98.1324 184.464 95.8584 185.349 93.7382C186.234 91.6181 187.529 89.6933 189.159 88.0743C190.789 86.4552 192.723 85.1737 194.849 84.3029C196.975 83.4322 199.252 82.9894 201.55 82.9999C206.175 83.0105 210.607 84.8524 213.877 88.1226C217.148 91.3928 218.989 95.8252 219 100.45V141L216 144Z" fill="#F0F6FD"/>
<path d="M209.84 168.38L183.19 143.5H217L242.58 165.78C242.58 165.78 249.17 172.11 241.1 176.48C232.42 181.22 220.12 178.5 209.84 168.38Z" fill="#F0F6FD"/>
<path d="M240.46 146.11C240.332 146.108 240.209 146.057 240.116 145.968C240.023 145.879 239.968 145.758 239.96 145.63C239.96 145.38 239.96 145.13 239.96 144.88C239.955 144.816 239.962 144.751 239.982 144.689C240.001 144.628 240.033 144.571 240.075 144.521C240.117 144.472 240.168 144.432 240.225 144.402C240.283 144.373 240.346 144.355 240.41 144.35C240.541 144.339 240.671 144.38 240.772 144.464C240.874 144.548 240.937 144.669 240.95 144.8C240.95 145.06 240.95 145.32 241 145.58C241.005 145.645 240.997 145.711 240.976 145.774C240.955 145.836 240.922 145.893 240.878 145.942C240.834 145.991 240.78 146.03 240.72 146.057C240.66 146.084 240.596 146.099 240.53 146.1L240.46 146.11Z" fill="#79B4F2"/>
<path d="M240.15 143.18C240.032 143.179 239.918 143.136 239.828 143.06C239.738 142.983 239.679 142.877 239.66 142.76C239.352 140.874 238.832 139.029 238.11 137.26C238.086 137.199 238.074 137.134 238.074 137.068C238.075 137.002 238.089 136.937 238.115 136.877C238.141 136.817 238.179 136.762 238.226 136.716C238.273 136.67 238.329 136.634 238.39 136.61C238.45 136.584 238.515 136.57 238.581 136.57C238.646 136.569 238.712 136.582 238.772 136.607C238.833 136.632 238.888 136.67 238.934 136.716C238.98 136.763 239.016 136.819 239.04 136.88C239.782 138.722 240.319 140.64 240.64 142.6C240.651 142.664 240.65 142.73 240.635 142.794C240.621 142.858 240.594 142.918 240.555 142.971C240.517 143.025 240.469 143.07 240.413 143.104C240.357 143.138 240.295 143.16 240.23 143.17L240.15 143.18Z" fill="#79B4F2"/>
<path d="M231.45 182.85C223.68 182.85 215.5 179.09 208.15 171.85L178.15 143.85C178.075 143.782 178.023 143.693 177.999 143.594C177.976 143.496 177.984 143.392 178.021 143.298C178.057 143.204 178.122 143.123 178.206 143.066C178.29 143.009 178.389 142.979 178.49 142.98H216.49C216.611 142.979 216.728 143.021 216.82 143.1L245.61 168.17C245.74 168.29 248.28 170.77 247.86 173.96C247.55 176.24 245.86 178.24 242.73 179.96C239.276 181.864 235.394 182.858 231.45 182.85ZM179.77 144L208.84 171.13C219.57 181.69 232.05 184.65 242.25 179.05C245.05 177.53 246.6 175.78 246.86 173.84C247.22 171.14 244.96 168.95 244.94 168.92L216.31 144H179.77Z" fill="#256FC7"/>
<path d="M246.38 156.13C246.337 156.139 246.293 156.139 246.25 156.13C246.186 156.114 246.126 156.085 246.074 156.045C246.021 156.006 245.977 155.956 245.943 155.9C245.91 155.843 245.888 155.78 245.879 155.715C245.87 155.65 245.873 155.584 245.89 155.52C246.632 152.741 247.005 149.876 247 147C246.999 145.198 246.852 143.398 246.56 141.62C246.55 141.555 246.553 141.489 246.569 141.425C246.585 141.361 246.613 141.301 246.652 141.248C246.691 141.195 246.74 141.15 246.796 141.116C246.852 141.082 246.915 141.06 246.98 141.05C247.044 141.039 247.111 141.04 247.174 141.055C247.238 141.069 247.298 141.096 247.352 141.135C247.405 141.173 247.45 141.221 247.484 141.277C247.518 141.333 247.54 141.395 247.55 141.46C248.329 146.222 248.094 151.095 246.86 155.76C246.832 155.866 246.769 155.959 246.682 156.026C246.596 156.093 246.489 156.129 246.38 156.13Z" fill="#256FC7"/>
<path d="M245.29 135.5C245.189 135.499 245.09 135.469 245.006 135.412C244.923 135.355 244.858 135.274 244.82 135.18C244.167 133.472 243.371 131.823 242.44 130.25C242.375 130.136 242.358 130.001 242.391 129.874C242.425 129.748 242.507 129.639 242.619 129.572C242.732 129.506 242.867 129.486 242.994 129.517C243.121 129.548 243.231 129.628 243.3 129.74C244.258 131.361 245.078 133.061 245.75 134.82C245.797 134.944 245.793 135.08 245.741 135.201C245.689 135.323 245.592 135.419 245.47 135.47C245.412 135.49 245.351 135.5 245.29 135.5Z" fill="#256FC7"/>
<path d="M240.46 127C240.384 126.999 240.309 126.981 240.241 126.946C240.174 126.911 240.115 126.861 240.07 126.8C239.8 126.46 239.53 126.12 239.25 125.8C239.165 125.697 239.124 125.566 239.135 125.433C239.147 125.3 239.209 125.177 239.31 125.09C239.36 125.047 239.417 125.015 239.479 124.994C239.542 124.974 239.607 124.967 239.673 124.972C239.738 124.978 239.801 124.996 239.859 125.027C239.917 125.058 239.969 125.099 240.01 125.15C240.3 125.5 240.58 125.84 240.86 126.2C240.941 126.305 240.976 126.437 240.96 126.569C240.943 126.7 240.875 126.819 240.77 126.9C240.68 126.966 240.571 127.002 240.46 127Z" fill="#256FC7"/>
<path d="M233.94 149C233.874 148.995 233.81 148.977 233.751 148.947C233.693 148.917 233.64 148.876 233.598 148.826C233.555 148.775 233.523 148.717 233.502 148.654C233.482 148.592 233.475 148.526 233.48 148.46C233.48 147.98 233.53 147.46 233.53 147C233.535 144.893 233.198 142.799 232.53 140.8C232.492 140.674 232.504 140.538 232.563 140.42C232.623 140.303 232.726 140.213 232.85 140.17C232.912 140.148 232.978 140.139 233.044 140.144C233.11 140.148 233.174 140.166 233.233 140.196C233.292 140.226 233.344 140.267 233.387 140.318C233.429 140.368 233.461 140.427 233.48 140.49C234.17 142.591 234.514 144.789 234.5 147C234.5 147.52 234.5 148 234.44 148.54C234.43 148.665 234.373 148.783 234.28 148.868C234.187 148.953 234.066 149 233.94 149Z" fill="#256FC7"/>
<path d="M231.49 137.79C231.401 137.789 231.315 137.766 231.238 137.722C231.161 137.678 231.096 137.616 231.05 137.54C230.717 136.928 230.346 136.337 229.94 135.77C229.902 135.716 229.875 135.655 229.86 135.591C229.846 135.527 229.844 135.46 229.855 135.395C229.866 135.33 229.89 135.268 229.925 135.212C229.96 135.156 230.006 135.108 230.06 135.07C230.114 135.032 230.175 135.005 230.239 134.99C230.303 134.976 230.37 134.974 230.435 134.985C230.5 134.996 230.562 135.02 230.618 135.055C230.674 135.09 230.722 135.136 230.76 135.19C231.18 135.79 231.57 136.41 231.93 137.05C231.962 137.108 231.982 137.171 231.989 137.237C231.996 137.302 231.99 137.368 231.971 137.432C231.953 137.495 231.922 137.554 231.88 137.605C231.839 137.656 231.788 137.699 231.73 137.73C231.656 137.77 231.574 137.79 231.49 137.79Z" fill="#256FC7"/>
<path d="M95 81.2399C94.9305 81.241 94.8616 81.2273 94.7978 81.1997C94.734 81.1721 94.6768 81.1313 94.63 81.0799C94.5834 81.0343 94.5464 80.9798 94.5212 80.9197C94.4959 80.8596 94.4829 80.7951 94.4829 80.7299C94.4829 80.6647 94.4959 80.6002 94.5212 80.5401C94.5464 80.48 94.5834 80.4255 94.63 80.3799C97.4941 77.7482 101.05 75.9892 104.88 75.3099C104.946 75.2987 105.013 75.3006 105.078 75.3154C105.143 75.3303 105.204 75.3577 105.258 75.3963C105.313 75.4348 105.359 75.4837 105.394 75.54C105.43 75.5964 105.454 75.6592 105.465 75.7249C105.476 75.7906 105.474 75.8578 105.459 75.9227C105.445 75.9877 105.417 76.049 105.379 76.1034C105.34 76.1577 105.291 76.2039 105.235 76.2393C105.178 76.2748 105.116 76.2987 105.05 76.3099C101.413 76.9562 98.0343 78.6245 95.31 81.1199C95.2234 81.1941 95.114 81.2364 95 81.2399Z" fill="#256FC7"/>
<path d="M88.5 107.5C88.3674 107.5 88.2402 107.447 88.1465 107.354C88.0527 107.26 88 107.133 88 107V95.5C87.9835 90.8712 89.5501 86.3759 92.44 82.76C92.5225 82.657 92.6424 82.5907 92.7735 82.5757C92.9047 82.5608 93.0364 82.5982 93.14 82.68C93.1922 82.72 93.2357 82.7701 93.2681 82.8273C93.3005 82.8846 93.321 82.9477 93.3285 83.013C93.3359 83.0783 93.3302 83.1445 93.3115 83.2075C93.2929 83.2706 93.2618 83.3292 93.22 83.38C90.4727 86.8207 88.9838 91.097 89 95.5V107C89 107.133 88.9473 107.26 88.8536 107.354C88.7598 107.447 88.6326 107.5 88.5 107.5Z" fill="#256FC7"/>
<path d="M216.5 144H90.5C90.4345 144.001 90.3694 143.988 90.3092 143.962C90.2489 143.936 90.1947 143.898 90.15 143.85L88.15 141.85C88.102 141.805 88.0638 141.751 88.038 141.691C88.0122 141.631 87.9992 141.566 88 141.5V110.56C88 110.427 88.0527 110.3 88.1465 110.206C88.2402 110.113 88.3674 110.06 88.5 110.06C88.6326 110.06 88.7598 110.113 88.8536 110.206C88.9474 110.3 89 110.427 89 110.56V141.29L90.71 143H216.29L218 141.29V95.5C217.992 90.3307 215.935 85.3754 212.28 81.7202C208.625 78.0649 203.669 76.0079 198.5 76H116.33C116.197 76 116.07 75.9473 115.976 75.8536C115.883 75.7598 115.83 75.6326 115.83 75.5C115.83 75.3674 115.883 75.2402 115.976 75.1464C116.07 75.0527 116.197 75 116.33 75H198.5C203.935 75.0079 209.144 77.1703 212.987 81.0131C216.83 84.8559 218.992 90.0655 219 95.5V141.5C219.001 141.566 218.988 141.631 218.962 141.691C218.936 141.751 218.898 141.805 218.85 141.85L216.85 143.85C216.805 143.898 216.751 143.936 216.691 143.962C216.631 143.988 216.566 144.001 216.5 144Z" fill="#256FC7"/>
<path d="M111.92 76H110.43C110.297 76 110.17 75.9473 110.076 75.8536C109.983 75.7598 109.93 75.6326 109.93 75.5C109.93 75.3674 109.983 75.2402 110.076 75.1464C110.17 75.0527 110.297 75 110.43 75H111.92C112.053 75 112.18 75.0527 112.274 75.1464C112.367 75.2402 112.42 75.3674 112.42 75.5C112.42 75.6326 112.367 75.7598 112.274 75.8536C112.18 75.9473 112.053 76 111.92 76Z" fill="#256FC7"/>
<path d="M216.5 144H178.5C178.367 144 178.24 143.947 178.146 143.854C178.053 143.76 178 143.633 178 143.5C178 143.367 178.053 143.24 178.146 143.146C178.24 143.053 178.367 143 178.5 143H216.29L218 141.29V95.5C218 90.3283 215.946 85.3684 212.289 81.7114C208.632 78.0545 203.672 76 198.5 76C193.328 76 188.368 78.0545 184.711 81.7114C181.054 85.3684 179 90.3283 179 95.5V139.5C179 139.633 178.947 139.76 178.854 139.854C178.76 139.947 178.633 140 178.5 140C178.367 140 178.24 139.947 178.146 139.854C178.053 139.76 178 139.633 178 139.5V95.5C178 90.0631 180.16 84.8488 184.004 81.0043C187.849 77.1598 193.063 75 198.5 75C203.937 75 209.151 77.1598 212.996 81.0043C216.84 84.8488 219 90.0631 219 95.5V141.5C219.001 141.566 218.988 141.631 218.962 141.691C218.936 141.751 218.898 141.805 218.85 141.85L216.85 143.85C216.805 143.898 216.751 143.936 216.691 143.962C216.631 143.988 216.566 144.001 216.5 144Z" fill="#256FC7"/>
<path d="M208 143H179V105H207L208 106V143Z" fill="white"/>
<path d="M191 124L201 111L187 125L203 138L191 124Z" fill="#CFE6FF"/>
<path d="M195.5 94.21H192.23C192.097 94.21 191.97 94.1573 191.876 94.0635C191.783 93.9697 191.73 93.8426 191.73 93.71C191.733 93.5782 191.786 93.4525 191.879 93.3592C191.972 93.266 192.098 93.2125 192.23 93.21H195.5C195.633 93.21 195.76 93.2626 195.854 93.3564C195.947 93.4502 196 93.5774 196 93.71C196 93.8426 195.947 93.9697 195.854 94.0635C195.76 94.1573 195.633 94.21 195.5 94.21Z" fill="#79B4F2"/>
<path d="M201.5 94.21H200.23C200.097 94.21 199.97 94.1573 199.876 94.0635C199.783 93.9697 199.73 93.8426 199.73 93.71C199.733 93.5782 199.786 93.4525 199.879 93.3592C199.972 93.266 200.098 93.2125 200.23 93.21H201.5C201.633 93.21 201.76 93.2626 201.854 93.3564C201.947 93.4502 202 93.5774 202 93.71C202 93.8426 201.947 93.9697 201.854 94.0635C201.76 94.1573 201.633 94.21 201.5 94.21Z" fill="#79B4F2"/>
<path d="M208.5 144C208.367 144 208.24 143.947 208.146 143.854C208.053 143.76 208 143.633 208 143.5V106.71L206.29 105H178.5C178.367 105 178.24 104.947 178.146 104.854C178.053 104.76 178 104.633 178 104.5C178 104.367 178.053 104.24 178.146 104.146C178.24 104.053 178.367 104 178.5 104H206.5C206.566 103.999 206.631 104.012 206.691 104.038C206.751 104.064 206.805 104.102 206.85 104.15L208.85 106.15C208.898 106.195 208.936 106.249 208.962 106.309C208.988 106.369 209.001 106.434 209 106.5V143.5C209 143.633 208.947 143.76 208.854 143.854C208.76 143.947 208.633 144 208.5 144Z" fill="#256FC7"/>
<path d="M206 141.5C205.882 141.5 205.769 141.457 205.68 141.38L186.68 125.38C186.621 125.341 186.572 125.29 186.534 125.231C186.496 125.171 186.472 125.104 186.462 125.034C186.452 124.965 186.457 124.894 186.476 124.826C186.495 124.758 186.529 124.695 186.574 124.642C186.62 124.588 186.676 124.544 186.739 124.513C186.803 124.483 186.872 124.466 186.942 124.464C187.013 124.462 187.083 124.475 187.148 124.502C187.213 124.529 187.272 124.569 187.32 124.62L206.32 140.62C206.397 140.686 206.453 140.774 206.479 140.873C206.505 140.971 206.5 141.075 206.465 141.171C206.43 141.267 206.367 141.349 206.284 141.408C206.201 141.467 206.102 141.499 206 141.5Z" fill="#256FC7"/>
<path d="M182.5 129C182.373 128.999 182.251 128.949 182.16 128.86L179.81 126.64C179.713 126.549 179.657 126.422 179.653 126.289C179.649 126.156 179.699 126.027 179.79 125.93C179.882 125.833 180.008 125.777 180.141 125.773C180.274 125.769 180.403 125.819 180.5 125.91L182.5 127.81L202.16 109.14C202.258 109.07 202.379 109.038 202.499 109.05C202.619 109.062 202.73 109.117 202.813 109.204C202.896 109.292 202.944 109.407 202.949 109.527C202.954 109.648 202.915 109.766 202.84 109.86L182.84 128.86C182.749 128.949 182.627 128.999 182.5 129Z" fill="#256FC7"/>
<path d="M203.5 98.5H201.5C201.367 98.5 201.24 98.4473 201.146 98.3536C201.053 98.2598 201 98.1326 201 98C201 97.8674 201.053 97.7402 201.146 97.6464C201.24 97.5527 201.367 97.5 201.5 97.5H203.5C203.633 97.5 203.76 97.5527 203.854 97.6464C203.947 97.7402 204 97.8674 204 98C204 98.1326 203.947 98.2598 203.854 98.3536C203.76 98.4473 203.633 98.5 203.5 98.5Z" fill="#256FC7"/>
<path d="M209.5 98.5C209.367 98.5 209.24 98.4473 209.146 98.3536C209.053 98.2598 209 98.1326 209 98C208.999 97.9348 209.01 97.87 209.034 97.8094C209.058 97.7488 209.094 97.6936 209.14 97.647C209.186 97.6005 209.24 97.5635 209.3 97.5382C209.36 97.513 209.425 97.5 209.49 97.5C209.623 97.5 209.75 97.5527 209.844 97.6464C209.937 97.7402 209.99 97.8674 209.99 98C209.99 98.1326 209.937 98.2598 209.844 98.3536C209.75 98.4473 209.623 98.5 209.49 98.5H209.5Z" fill="#256FC7"/>
<path d="M197.54 98.5H184.93C184.797 98.5 184.67 98.4473 184.576 98.3536C184.483 98.2598 184.43 98.1326 184.43 98C184.43 97.8674 184.483 97.7402 184.576 97.6464C184.67 97.5527 184.797 97.5 184.93 97.5H197.54C197.673 97.5 197.8 97.5527 197.894 97.6464C197.987 97.7402 198.04 97.8674 198.04 98C198.04 98.1326 197.987 98.2598 197.894 98.3536C197.8 98.4473 197.673 98.5 197.54 98.5Z" fill="#256FC7"/>
<path d="M175.03 43.0002L157.48 42.9702L157 43.4502L156.89 105.58L157.37 106.09L165.52 111.3L166 110.81L166.09 52.5002L166.57 52.0002L175 52.0102L175.03 43.0002Z" fill="white"/>
<path d="M175.03 46.0002L160.48 45.9702L160 46.4502L159.89 107.58L160.37 108.09L165.52 111.3L166 110.81L166.09 52.5002L166.57 52.0002L175 52.0102L175.03 46.0002Z" fill="#FB8686"/>
<path d="M198.94 57.24C198.824 57.24 198.711 57.2013 198.62 57.13L197.74 56.43C197.684 56.3916 197.635 56.3422 197.599 56.2846C197.562 56.227 197.538 56.1625 197.527 56.0951C197.516 56.0277 197.519 55.9588 197.536 55.8927C197.553 55.8266 197.583 55.7646 197.625 55.7105C197.667 55.6565 197.719 55.6116 197.779 55.5786C197.838 55.5455 197.904 55.5251 197.972 55.5185C198.04 55.5119 198.109 55.5192 198.174 55.5401C198.239 55.561 198.299 55.595 198.35 55.64L199.25 56.35C199.331 56.4146 199.389 56.5026 199.418 56.6019C199.446 56.7012 199.443 56.8069 199.409 56.9044C199.375 57.002 199.312 57.0866 199.228 57.1467C199.144 57.2068 199.043 57.2394 198.94 57.24Z" fill="#79B4F2"/>
<path d="M191.22 52.2201C191.143 52.2188 191.067 52.1982 191 52.1601C189.8 51.5501 188.55 50.9901 187.29 50.4901C187.229 50.4658 187.173 50.4297 187.126 50.3839C187.079 50.3381 187.041 50.2835 187.015 50.2231C186.989 50.1627 186.975 50.0978 186.974 50.0321C186.974 49.9664 186.986 49.9011 187.01 49.8401C187.061 49.7183 187.157 49.6212 187.279 49.569C187.4 49.5167 187.537 49.5135 187.66 49.5601C188.95 50.0701 190.22 50.6501 191.45 51.2701C191.553 51.3198 191.636 51.4033 191.684 51.5066C191.733 51.6099 191.745 51.7268 191.718 51.8379C191.691 51.9489 191.627 52.0474 191.537 52.117C191.446 52.1865 191.334 52.2229 191.22 52.2201Z" fill="#79B4F2"/>
<path d="M165.52 111.8C165.425 111.797 165.332 111.769 165.25 111.72L157.1 106.51C157.063 106.489 157.029 106.462 157 106.43L156.53 105.92C156.485 105.875 156.45 105.822 156.426 105.764C156.402 105.706 156.39 105.643 156.39 105.58L156.5 43.4501C156.5 43.387 156.512 43.3245 156.536 43.2662C156.56 43.2078 156.595 43.1548 156.64 43.1101L157.12 42.6201C157.166 42.5713 157.222 42.5327 157.284 42.5069C157.346 42.4811 157.413 42.4685 157.48 42.4701H175.03C175.162 42.4727 175.288 42.5262 175.381 42.6194C175.474 42.7126 175.527 42.8383 175.53 42.9701V51.9701C175.53 52.1027 175.477 52.2299 175.384 52.3237C175.29 52.4174 175.163 52.4701 175.03 52.4701H166.81L166.62 52.6701L166.53 110.78C166.531 110.914 166.481 111.043 166.39 111.14L165.91 111.62C165.862 111.677 165.802 111.722 165.735 111.753C165.668 111.784 165.594 111.8 165.52 111.8ZM157.69 105.7L165.45 110.7H165.5L165.59 52.5901C165.59 52.527 165.602 52.4645 165.626 52.4062C165.65 52.3478 165.685 52.2948 165.73 52.2501L166.2 51.7501C166.248 51.7001 166.305 51.6603 166.369 51.6328C166.432 51.6053 166.501 51.5908 166.57 51.5901H174.5V43.5901H157.66L157.47 43.7801L157.36 105.51L157.69 105.7Z" fill="#256FC7"/>
<path d="M202.46 55.0001C202.342 54.9998 202.229 54.9572 202.14 54.8801C201.82 54.6001 201.5 54.3301 201.14 54.0701C201.088 54.0285 201.045 53.9769 201.014 53.9185C200.982 53.86 200.963 53.7959 200.956 53.7298C200.95 53.6637 200.956 53.597 200.976 53.5335C200.995 53.47 201.027 53.4111 201.07 53.3601C201.154 53.2586 201.275 53.1943 201.406 53.1812C201.537 53.1681 201.668 53.2072 201.77 53.2901L202.77 54.1201C202.848 54.1868 202.904 54.2759 202.929 54.3753C202.955 54.4747 202.949 54.5796 202.913 54.6757C202.877 54.7718 202.812 54.8545 202.728 54.9126C202.643 54.9706 202.543 55.0012 202.44 55.0001H202.46Z" fill="#256FC7"/>
<path d="M198.94 52.2202C198.836 52.2223 198.734 52.1907 198.65 52.1302C198.07 51.7168 197.48 51.3168 196.88 50.9302C196.821 50.8965 196.77 50.8512 196.729 50.797C196.688 50.7428 196.658 50.6809 196.642 50.615C196.626 50.549 196.623 50.4805 196.635 50.4135C196.646 50.3466 196.67 50.2826 196.707 50.2255C196.744 50.1684 196.792 50.1193 196.848 50.0814C196.904 50.0434 196.968 50.0173 197.035 50.0046C197.101 49.992 197.17 49.993 197.236 50.0077C197.302 50.0224 197.365 50.0505 197.42 50.0902C198.03 50.4902 198.63 50.8902 199.22 51.3102C199.274 51.3481 199.32 51.3963 199.355 51.4521C199.391 51.5078 199.415 51.5701 199.426 51.6351C199.437 51.7002 199.435 51.7669 199.42 51.8312C199.406 51.8956 199.378 51.9564 199.34 52.0102C199.296 52.0753 199.236 52.1285 199.166 52.1652C199.096 52.2018 199.019 52.2207 198.94 52.2202Z" fill="#256FC7"/>
<path d="M194.2 49.2701C194.119 49.2706 194.04 49.2499 193.97 49.2101C191.075 47.6321 188.022 46.3651 184.86 45.4301C184.794 45.4117 184.733 45.3806 184.679 45.3385C184.626 45.2964 184.581 45.2441 184.547 45.1847C184.514 45.1252 184.493 45.0598 184.484 44.9921C184.476 44.9244 184.482 44.8558 184.5 44.7901C184.518 44.7245 184.55 44.6631 184.592 44.6094C184.634 44.5558 184.686 44.511 184.745 44.4776C184.805 44.4441 184.87 44.4227 184.938 44.4146C185.006 44.4065 185.074 44.4117 185.14 44.4301C188.368 45.3839 191.485 46.6778 194.44 48.2901C194.499 48.3205 194.551 48.3625 194.593 48.4136C194.635 48.4647 194.667 48.5238 194.685 48.5873C194.704 48.6509 194.71 48.7176 194.702 48.7834C194.694 48.8492 194.673 48.9127 194.64 48.9701C194.601 49.0558 194.54 49.1292 194.462 49.1821C194.385 49.235 194.294 49.2655 194.2 49.2701Z" fill="#256FC7"/>
<path d="M194.59 59.57C194.482 59.5708 194.376 59.5356 194.29 59.47L193.63 58.99C193.576 58.9521 193.53 58.9039 193.495 58.8481C193.459 58.7923 193.435 58.7301 193.424 58.665C193.413 58.5999 193.415 58.5333 193.43 58.4689C193.444 58.4046 193.472 58.3438 193.51 58.29C193.588 58.183 193.705 58.1105 193.836 58.0881C193.966 58.0657 194.101 58.0951 194.21 58.17L194.89 58.66C194.943 58.6994 194.987 58.7488 195.02 58.8053C195.054 58.8618 195.076 58.9243 195.085 58.9893C195.094 59.0543 195.091 59.1205 195.074 59.1841C195.058 59.2477 195.029 59.3075 194.99 59.36C194.946 59.4252 194.886 59.4784 194.816 59.515C194.746 59.5516 194.669 59.5705 194.59 59.57Z" fill="#256FC7"/>
<path d="M190.42 56.8901C190.332 56.8918 190.245 56.8675 190.17 56.8201C188.395 55.8368 186.546 54.9942 184.64 54.3001C184.577 54.2789 184.52 54.2453 184.471 54.2013C184.422 54.1573 184.382 54.1038 184.354 54.044C184.326 53.9842 184.31 53.9194 184.308 53.8534C184.305 53.7874 184.316 53.7217 184.34 53.6601C184.385 53.5354 184.478 53.4338 184.598 53.3776C184.718 53.3213 184.855 53.315 184.98 53.3601C186.94 54.0895 188.839 54.9722 190.66 56.0001C190.718 56.0313 190.769 56.074 190.81 56.1254C190.852 56.1769 190.882 56.2362 190.9 56.2996C190.917 56.3631 190.922 56.4296 190.914 56.4949C190.905 56.5603 190.883 56.6233 190.85 56.6801C190.801 56.7476 190.736 56.802 190.661 56.8386C190.586 56.8752 190.503 56.8929 190.42 56.8901Z" fill="#256FC7"/>
<path d="M198 265C198 263.276 197.315 261.623 196.096 260.404C194.877 259.185 193.224 258.5 191.5 258.5C191.5 258.5 195.76 260.5 195.76 265H198Z" fill="white"/>
<path d="M198 265H195.76C195.627 265 195.5 264.947 195.406 264.854C195.313 264.76 195.26 264.633 195.26 264.5C195.26 260.4 191.45 258.5 191.26 258.45C191.155 258.404 191.07 258.323 191.019 258.221C190.968 258.118 190.954 258.001 190.98 257.89C191.005 257.779 191.067 257.68 191.156 257.609C191.245 257.538 191.356 257.499 191.47 257.5C193.327 257.5 195.107 258.238 196.42 259.55C197.733 260.863 198.47 262.643 198.47 264.5C198.47 264.628 198.422 264.75 198.334 264.843C198.247 264.936 198.127 264.992 198 265ZM196.24 264H197.48C197.386 262.88 196.978 261.809 196.305 260.909C195.631 260.009 194.718 259.316 193.67 258.91C195.163 260.202 196.087 262.031 196.24 264Z" fill="#256FC7"/>
<path d="M230.66 234.76C226.811 234.728 222.995 235.463 219.433 236.921C215.871 238.379 212.634 240.531 209.913 243.253C207.191 245.975 205.039 249.211 203.581 252.773C202.123 256.335 201.388 260.151 201.42 264H208.42C208.469 257.604 210.547 251.388 214.352 246.247C218.158 241.106 223.497 237.305 229.6 235.39L230.66 234.76Z" fill="white"/>
<path d="M204.42 264H208.42C208.464 258.165 210.195 252.468 213.405 247.595C216.615 242.723 221.166 238.883 226.51 236.54C215 240 204.42 247.62 204.42 264Z" fill="#A8F0C9"/>
<path d="M201.42 264.92C201.29 264.921 201.164 264.871 201.07 264.78C200.976 264.683 200.922 264.555 200.92 264.42C200.878 260.503 201.619 256.618 203.099 252.992C204.579 249.365 206.769 246.071 209.539 243.302C212.309 240.533 215.604 238.344 219.231 236.866C222.858 235.387 226.743 234.647 230.66 234.69C230.769 234.691 230.875 234.728 230.961 234.795C231.047 234.862 231.109 234.955 231.138 235.06C231.166 235.166 231.159 235.277 231.118 235.378C231.077 235.479 231.004 235.564 230.91 235.62L229.83 236.24H229.73C223.729 238.122 218.48 241.859 214.739 246.914C210.997 251.969 208.956 258.081 208.91 264.37C208.911 264.435 208.9 264.5 208.876 264.561C208.852 264.621 208.816 264.676 208.77 264.723C208.724 264.77 208.67 264.806 208.61 264.832C208.55 264.857 208.485 264.87 208.42 264.87H201.42V264.92ZM228 235.8C220.922 236.373 214.315 239.579 209.485 244.785C204.655 249.991 201.952 256.819 201.91 263.92H207.91C208.051 257.758 210.043 251.782 213.626 246.767C217.209 241.752 222.217 237.931 228 235.8Z" fill="#256FC7"/>
<path d="M208.5 265C208.5 261.154 210.028 257.466 212.747 254.747C215.466 252.028 219.154 250.5 223 250.5C223 250.5 213.5 255 213.5 265H208.5Z" fill="white"/>
<path d="M208.5 265C208.499 261.666 209.647 258.434 211.751 255.847C213.855 253.261 216.786 251.478 220.05 250.8C221 250.6 210.5 255 210.5 265H208.5Z" fill="#A8F0C9"/>
<path d="M213.5 265H208.5C208.367 265 208.24 264.947 208.146 264.854C208.053 264.76 208 264.633 208 264.5C208 260.522 209.58 256.706 212.393 253.893C215.206 251.08 219.022 249.5 223 249.5C223.114 249.499 223.225 249.538 223.314 249.609C223.403 249.68 223.465 249.779 223.49 249.89C223.516 250.001 223.502 250.118 223.451 250.221C223.4 250.323 223.315 250.404 223.21 250.45C223.12 250.5 214 254.94 214 264.5C214 264.633 213.947 264.76 213.854 264.854C213.76 264.947 213.633 265 213.5 265ZM209 264H213C213.22 256.89 218.17 252.54 220.94 250.65C217.703 251.129 214.737 252.727 212.556 255.166C210.375 257.605 209.117 260.73 209 264Z" fill="#256FC7"/>
<path d="M203 265H197C197 256 200 237 200 237C200 237 203 256 203 265Z" fill="white"/>
<path d="M203 265H199C199.099 256.902 199.62 248.814 200.56 240.77C201.43 246.77 203 258.5 203 265Z" fill="#A8F0C9"/>
<path d="M203 265H197C196.867 265 196.74 264.947 196.646 264.853C196.553 264.76 196.5 264.633 196.5 264.5C196.5 255.56 199.5 236.61 199.5 236.42C199.5 236.287 199.553 236.16 199.646 236.066C199.74 235.973 199.867 235.92 200 235.92C200.133 235.92 200.26 235.973 200.354 236.066C200.447 236.16 200.5 236.287 200.5 236.42C200.5 236.61 203.5 255.56 203.5 264.5C203.5 264.633 203.447 264.76 203.354 264.853C203.26 264.947 203.133 265 203 265ZM197.5 264H202.5C202.42 257.29 200.83 245.56 200 239.87C199.17 245.56 197.58 257.29 197.5 264Z" fill="#256FC7"/>
<path d="M209.26 265H206.74C206.947 261.05 207.368 257.114 208 253.21C208.632 257.114 209.053 261.05 209.26 265Z" fill="white"/>
<path d="M209.26 265H206.74C206.607 265 206.48 264.947 206.386 264.854C206.293 264.76 206.24 264.633 206.24 264.5C206.44 260.523 206.864 256.56 207.51 252.63C207.51 252.497 207.563 252.37 207.656 252.276C207.75 252.183 207.877 252.13 208.01 252.13C208.143 252.13 208.27 252.183 208.364 252.276C208.457 252.37 208.51 252.497 208.51 252.63C209.156 256.56 209.58 260.523 209.78 264.5C209.78 264.567 209.766 264.634 209.74 264.696C209.714 264.758 209.675 264.814 209.627 264.861C209.578 264.908 209.52 264.944 209.457 264.968C209.394 264.992 209.327 265.003 209.26 265ZM207.26 264H208.78C208.72 261.85 208.35 258.65 208.02 256.22C207.67 258.65 207.3 261.85 207.24 264H207.26Z" fill="#256FC7"/>
<path d="M205 265C205 261.154 203.472 257.466 200.753 254.747C198.034 252.028 194.346 250.5 190.5 250.5C190.5 250.5 200 255 200 265H205Z" fill="white"/>
<path d="M205 265C205.001 261.666 203.853 258.434 201.749 255.847C199.645 253.261 196.714 251.478 193.45 250.8C192.5 250.6 203 255 203 265H205Z" fill="#A8F0C9"/>
<path d="M205 265H200C199.867 265 199.74 264.947 199.646 264.854C199.553 264.76 199.5 264.633 199.5 264.5C199.5 254.93 190.38 250.5 190.29 250.45C190.185 250.404 190.1 250.323 190.049 250.221C189.998 250.118 189.984 250.001 190.01 249.89C190.035 249.779 190.097 249.68 190.186 249.609C190.275 249.538 190.386 249.499 190.5 249.5C194.478 249.5 198.294 251.08 201.107 253.893C203.92 256.706 205.5 260.522 205.5 264.5C205.5 264.633 205.447 264.76 205.354 264.854C205.26 264.947 205.133 265 205 265ZM200.49 264H204.49C204.373 260.73 203.115 257.605 200.934 255.166C198.753 252.727 195.787 251.129 192.55 250.65C195.32 252.54 200.27 256.89 200.49 264Z" fill="#256FC7"/>
<path d="M106.16 265H112.16C112.16 256 109.16 237 109.16 237C109.16 237 106.16 256 106.16 265Z" fill="white"/>
<path d="M106.16 265H110.16C110.061 256.902 109.54 248.814 108.6 240.77C107.73 246.77 106.16 258.5 106.16 265Z" fill="#A8F0C9"/>
<path d="M112.16 265H106.16C106.027 265 105.9 264.947 105.806 264.853C105.713 264.76 105.66 264.633 105.66 264.5C105.66 255.56 108.66 236.61 108.66 236.42C108.66 236.287 108.713 236.16 108.806 236.066C108.9 235.973 109.027 235.92 109.16 235.92C109.293 235.92 109.42 235.973 109.514 236.066C109.607 236.16 109.66 236.287 109.66 236.42C109.66 236.61 112.66 255.56 112.66 264.5C112.66 264.633 112.607 264.76 112.514 264.853C112.42 264.947 112.293 265 112.16 265ZM106.66 264H111.66C111.58 257.29 109.99 245.56 109.16 239.87C108.33 245.56 106.74 257.29 106.66 264Z" fill="#256FC7"/>
<path d="M110.66 265C110.66 261.154 109.132 257.466 106.413 254.747C103.694 252.028 100.006 250.5 96.16 250.5C96.16 250.5 105.66 255 105.66 265H110.66Z" fill="white"/>
<path d="M110.66 265C110.663 261.665 109.515 258.432 107.411 255.845C105.307 253.258 102.375 251.477 99.11 250.8C98.11 250.6 108.66 255 108.66 265H110.66Z" fill="#A8F0C9"/>
<path d="M110.66 265H105.66C105.527 265 105.4 264.947 105.306 264.854C105.213 264.76 105.16 264.633 105.16 264.5C105.16 254.93 96.04 250.5 95.95 250.45C95.8465 250.402 95.7624 250.321 95.7115 250.219C95.6606 250.117 95.6459 250.001 95.67 249.89C95.6967 249.78 95.7593 249.682 95.8481 249.611C95.9368 249.54 96.0466 249.501 96.16 249.5C100.138 249.5 103.954 251.08 106.767 253.893C109.58 256.706 111.16 260.522 111.16 264.5C111.16 264.633 111.107 264.76 111.014 264.854C110.92 264.947 110.793 265 110.66 265ZM106.15 264H110.15C110.034 260.732 108.777 257.607 106.598 255.169C104.419 252.73 101.455 251.131 98.22 250.65C101 252.54 105.93 256.89 106.15 264Z" fill="#256FC7"/>
<path d="M152.74 234.76C148.891 234.728 145.075 235.463 141.513 236.921C137.951 238.379 134.715 240.531 131.993 243.253C129.271 245.975 127.119 249.211 125.661 252.773C124.203 256.335 123.468 260.151 123.5 264H130.5C130.547 257.605 132.622 251.389 136.427 246.248C140.231 241.107 145.568 237.305 151.67 235.39L152.74 234.76Z" fill="white"/>
<path d="M126.5 264H130.5C130.541 258.166 132.271 252.469 135.479 247.596C138.687 242.723 143.237 238.884 148.58 236.54C137.08 240 126.5 247.62 126.5 264Z" fill="#A8F0C9"/>
<path d="M123.5 264.92C123.37 264.921 123.244 264.871 123.15 264.78C123.102 264.733 123.063 264.677 123.038 264.616C123.012 264.554 122.999 264.487 123 264.42C122.958 260.503 123.699 256.618 125.179 252.992C126.659 249.365 128.849 246.071 131.619 243.302C134.389 240.533 137.684 238.344 141.311 236.866C144.938 235.387 148.823 234.647 152.74 234.69C152.849 234.691 152.956 234.727 153.042 234.794C153.129 234.861 153.192 234.954 153.22 235.06C153.249 235.167 153.241 235.28 153.198 235.382C153.154 235.484 153.077 235.567 152.98 235.62L151.91 236.24H151.81C145.804 238.124 140.551 241.868 136.811 246.931C133.071 251.994 131.036 258.115 131 264.41C131 264.543 130.947 264.67 130.854 264.764C130.76 264.857 130.633 264.91 130.5 264.91L123.5 264.92ZM150.09 235.8C143.013 236.377 136.409 239.585 131.58 244.79C126.751 249.995 124.046 256.82 124 263.92H130C130.146 257.759 132.139 251.785 135.721 246.771C139.303 241.757 144.309 237.935 150.09 235.8Z" fill="#256FC7"/>
<path d="M124.66 265C124.66 263.276 123.975 261.623 122.756 260.404C121.537 259.185 119.884 258.5 118.16 258.5C118.16 258.5 122.42 260.5 122.42 265H124.66Z" fill="white"/>
<path d="M124.66 265H122.42C122.287 265 122.16 264.947 122.066 264.854C121.973 264.76 121.92 264.633 121.92 264.5C121.92 260.4 118.11 258.5 117.92 258.45C117.817 258.402 117.732 258.321 117.682 258.219C117.631 258.117 117.616 258.001 117.64 257.89C117.667 257.78 117.729 257.682 117.818 257.611C117.907 257.54 118.017 257.501 118.13 257.5C119.987 257.5 121.767 258.238 123.08 259.55C124.393 260.863 125.13 262.643 125.13 264.5C125.13 264.628 125.082 264.75 124.994 264.843C124.907 264.936 124.787 264.992 124.66 265ZM122.9 264H124.14C124.046 262.88 123.638 261.809 122.965 260.909C122.291 260.009 121.378 259.316 120.33 258.91C121.827 260.199 122.751 262.03 122.9 264Z" fill="#256FC7"/>
<path d="M126.16 265C126.16 261.154 127.688 257.466 130.407 254.747C133.126 252.028 136.814 250.5 140.66 250.5C140.66 250.5 131.16 255 131.16 265H126.16Z" fill="white"/>
<path d="M126.16 265C126.159 261.666 127.307 258.434 129.411 255.847C131.515 253.261 134.446 251.478 137.71 250.8C138.66 250.6 128.16 255 128.16 265H126.16Z" fill="#A8F0C9"/>
<path d="M131.16 265H126.16C126.027 265 125.9 264.947 125.806 264.854C125.713 264.76 125.66 264.633 125.66 264.5C125.66 260.522 127.24 256.706 130.053 253.893C132.866 251.08 136.682 249.5 140.66 249.5C140.773 249.5 140.884 249.538 140.972 249.608C141.061 249.678 141.124 249.777 141.149 249.887C141.175 249.998 141.162 250.113 141.113 250.216C141.064 250.318 140.982 250.401 140.88 250.45C140.78 250.5 131.66 254.94 131.66 264.5C131.66 264.633 131.607 264.76 131.514 264.854C131.42 264.947 131.293 265 131.16 265ZM126.67 264H130.67C130.89 256.89 135.84 252.54 138.61 250.65C135.374 251.129 132.407 252.727 130.226 255.166C128.045 257.605 126.787 260.73 126.67 264Z" fill="#256FC7"/>
<path d="M123.9 265H126.42C126.213 261.05 125.792 257.114 125.16 253.21C124.528 257.114 124.107 261.05 123.9 265Z" fill="white"/>
<path d="M126.42 265H123.9C123.767 265 123.64 264.947 123.546 264.854C123.453 264.76 123.4 264.633 123.4 264.5C123.605 260.523 124.029 256.56 124.67 252.63C124.67 252.497 124.723 252.37 124.816 252.276C124.91 252.183 125.037 252.13 125.17 252.13C125.303 252.13 125.43 252.183 125.524 252.276C125.617 252.37 125.67 252.497 125.67 252.63C126.306 256.561 126.727 260.523 126.93 264.5C126.93 264.567 126.917 264.632 126.891 264.694C126.865 264.755 126.828 264.811 126.78 264.857C126.733 264.904 126.676 264.94 126.614 264.965C126.553 264.989 126.487 265.001 126.42 265ZM124.42 264H125.93C125.87 261.85 125.5 258.65 125.17 256.22C124.84 258.65 124.46 261.85 124.41 264H124.42Z" fill="#256FC7"/>
<path d="M183.5 265H80.5C80.3674 265 80.2402 264.947 80.1464 264.854C80.0527 264.76 80 264.633 80 264.5C80 264.367 80.0527 264.24 80.1464 264.146C80.2402 264.053 80.3674 264 80.5 264H183.5C183.633 264 183.76 264.053 183.854 264.146C183.947 264.24 184 264.367 184 264.5C184 264.633 183.947 264.76 183.854 264.854C183.76 264.947 183.633 265 183.5 265Z" fill="#256FC7"/>
<path d="M204.5 277H201.5C201.367 277 201.24 276.947 201.146 276.854C201.053 276.76 201 276.633 201 276.5C201 276.367 201.053 276.24 201.146 276.146C201.24 276.053 201.367 276 201.5 276H204.5C204.633 276 204.76 276.053 204.854 276.146C204.947 276.24 205 276.367 205 276.5C205 276.633 204.947 276.76 204.854 276.854C204.76 276.947 204.633 277 204.5 277Z" fill="#256FC7"/>
<path d="M192.75 277H181.42C181.287 277 181.16 276.947 181.066 276.854C180.973 276.76 180.92 276.633 180.92 276.5C180.92 276.367 180.973 276.24 181.066 276.146C181.16 276.053 181.287 276 181.42 276H192.75C192.883 276 193.01 276.053 193.104 276.146C193.197 276.24 193.25 276.367 193.25 276.5C193.25 276.633 193.197 276.76 193.104 276.854C193.01 276.947 192.883 277 192.75 277Z" fill="#256FC7"/>
<path d="M157 277H153C152.867 277 152.74 276.947 152.646 276.854C152.553 276.76 152.5 276.633 152.5 276.5C152.5 276.367 152.553 276.24 152.646 276.146C152.74 276.053 152.867 276 153 276H157C157.133 276 157.26 276.053 157.354 276.146C157.447 276.24 157.5 276.367 157.5 276.5C157.5 276.633 157.447 276.76 157.354 276.854C157.26 276.947 157.133 277 157 277Z" fill="#256FC7"/>
<path d="M234 265H231.5C231.367 265 231.24 264.947 231.146 264.854C231.053 264.76 231 264.633 231 264.5C231 264.367 231.053 264.24 231.146 264.146C231.24 264.053 231.367 264 231.5 264H234C234.133 264 234.26 264.053 234.354 264.146C234.447 264.24 234.5 264.367 234.5 264.5C234.5 264.633 234.447 264.76 234.354 264.854C234.26 264.947 234.133 265 234 265Z" fill="#256FC7"/>
<path d="M145.5 277H119.57C119.437 277 119.31 276.947 119.216 276.854C119.123 276.76 119.07 276.633 119.07 276.5C119.07 276.367 119.123 276.24 119.216 276.146C119.31 276.053 119.437 276 119.57 276H145.5C145.633 276 145.76 276.053 145.854 276.146C145.947 276.24 146 276.367 146 276.5C146 276.633 145.947 276.76 145.854 276.854C145.76 276.947 145.633 277 145.5 277Z" fill="#256FC7"/>
<path d="M106.41 277H101.5C101.367 277 101.24 276.947 101.146 276.854C101.053 276.76 101 276.633 101 276.5C101 276.367 101.053 276.24 101.146 276.146C101.24 276.053 101.367 276 101.5 276H106.41C106.543 276 106.67 276.053 106.764 276.146C106.857 276.24 106.91 276.367 106.91 276.5C106.91 276.633 106.857 276.76 106.764 276.854C106.67 276.947 106.543 277 106.41 277Z" fill="#256FC7"/>
<path d="M223 265H190.5C190.367 265 190.24 264.947 190.146 264.854C190.053 264.76 190 264.633 190 264.5C190 264.367 190.053 264.24 190.146 264.146C190.24 264.053 190.367 264 190.5 264H223C223.133 264 223.26 264.053 223.354 264.146C223.447 264.24 223.5 264.367 223.5 264.5C223.5 264.633 223.447 264.76 223.354 264.854C223.26 264.947 223.133 265 223 265Z" fill="#256FC7"/>
<path d="M74.5 265H70.5C70.3674 265 70.2402 264.947 70.1464 264.854C70.0527 264.76 70 264.633 70 264.5C70 264.367 70.0527 264.24 70.1464 264.146C70.2402 264.053 70.3674 264 70.5 264H74.5C74.6326 264 74.7598 264.053 74.8536 264.146C74.9473 264.24 75 264.367 75 264.5C75 264.633 74.9473 264.76 74.8536 264.854C74.7598 264.947 74.6326 265 74.5 265Z" fill="#256FC7"/>
</svg>
