<svg width="33" height="38" viewBox="0 0 33 38" fill="none" xmlns="http://www.w3.org/2000/svg">
<ellipse cx="16.4999" cy="22.6894" rx="14.8686" ry="14.8781" fill="#0064FF"/>
<ellipse cx="16.5001" cy="3.25458" rx="3.2525" ry="3.25458" fill="#0064FF"/>
<path fill-rule="evenodd" clip-rule="evenodd" d="M15.4468 15.6222L15.4468 4.55658L17.5532 4.55658L17.5532 15.6222L15.4468 15.6222Z" fill="#0064FF"/>
<path fill-rule="evenodd" clip-rule="evenodd" d="M0.702148 22.9222C0.702148 19.1989 3.73341 16.1806 7.47267 16.1806H25.5274C29.2666 16.1806 32.2979 19.1989 32.2979 22.9222C32.2979 26.6455 29.2666 29.6638 25.5274 29.6638H7.47267C3.73341 29.6638 0.702148 26.6455 0.702148 22.9222Z" fill="white"/>
<path fill-rule="evenodd" clip-rule="evenodd" d="M0 22.9223C0 18.8077 3.34887 15.4781 7.47264 15.4781H25.5274C29.6511 15.4781 33 18.8077 33 22.9223C33 27.0368 29.6511 30.3665 25.5274 30.3665H7.47264C3.34887 30.3665 0 27.0368 0 22.9223ZM7.47264 16.8832C4.11791 16.8832 1.40426 19.5902 1.40426 22.9223C1.40426 26.2543 4.11791 28.9613 7.47264 28.9613H25.5274C28.8821 28.9613 31.5957 26.2543 31.5957 22.9223C31.5957 19.5902 28.8821 16.8832 25.5274 16.8832H7.47264Z" fill="#0064FF"/>
<path d="M5.81315 22.9221C5.81315 20.5509 6.69175 18.9701 9.43737 18.9701H11.7437L11.8535 19.083V26.7611L11.7437 26.874H9.43737C6.69175 26.874 5.81315 25.2932 5.81315 22.9221Z" fill="#0064FF"/>
<path d="M26.3867 24.6158C26.3867 23.5995 25.8381 23.035 25.1799 22.8091V22.6962C25.7284 22.4704 26.1673 21.9058 26.1673 21.1154C26.1673 19.5346 25.0702 18.9701 23.8634 18.9701H20.7916L20.6819 19.083V26.7611L20.7916 26.874H24.0828C25.2896 26.874 26.3867 26.3095 26.3867 24.6158Z" fill="#0064FF"/>
</svg>
