<svg width="24" height="24" viewBox="0 0 24 24" fill="none" xmlns="http://www.w3.org/2000/svg">
<circle cx="12" cy="12" r="12" fill="#0064FF"/>
<path fill-rule="evenodd" clip-rule="evenodd" d="M9.99966 6.49346C10.0783 6.67832 9.99261 6.89088 9.81439 6.98359C9.15073 7.32881 8.56652 7.81006 8.10047 8.39661C7.55927 9.07773 7.19373 9.88025 7.03488 10.7338C6.87604 11.5873 6.92853 12.4668 7.18793 13.2955C7.44735 14.1244 7.90606 14.8781 8.52495 15.4903C9.14389 16.1026 9.9042 16.5547 10.7398 16.8061C11.5754 17.0575 12.4601 17.1003 13.3163 16.9306C14.1725 16.761 14.9732 16.3842 15.6487 15.8341C16.2281 15.3623 16.7001 14.7753 17.0361 14.1127C17.1282 13.9311 17.3441 13.8436 17.5309 13.9246L18.4172 14.3091C18.6015 14.3891 18.6879 14.6031 18.6003 14.7839C18.1523 15.7081 17.5076 16.5238 16.7106 17.1728C15.82 17.8981 14.7663 18.3933 13.6417 18.6162C12.5172 18.839 11.3553 18.7829 10.2573 18.4525C9.15921 18.1222 8.15771 17.5274 7.34076 16.7192C6.52375 15.911 5.91617 14.9139 5.57213 13.8147C5.22808 12.7155 5.15832 11.5483 5.36913 10.4155C5.57993 9.28283 6.06468 8.21994 6.78008 7.31959C7.41847 6.51614 8.22306 5.86407 9.13598 5.4068C9.31804 5.31561 9.53578 5.40285 9.61548 5.59022L9.99966 6.49346Z" fill="white"/>
</svg>
