<?xml version="1.0" encoding="utf-8"?>
<!-- Generator: Adobe Illustrator 23.0.4, SVG Export Plug-In . SVG Version: 6.00 Build 0)  -->
<svg version="1.1" id="Layer_1" xmlns="http://www.w3.org/2000/svg" xmlns:xlink="http://www.w3.org/1999/xlink" x="0px" y="0px"
	 viewBox="0 0 382 769.2" style="enable-background:new 0 0 382 769.2;" xml:space="preserve">
<style type="text/css">
	.st0{fill:#F0F6FD;}
	.st1{fill:#267FED;}
	.st2{fill:#267EDC;}
	.st3{fill-rule:evenodd;clip-rule:evenodd;fill:#267FED;}
	.st4{fill-rule:evenodd;clip-rule:evenodd;fill:#FFFFFF;}
	.st5{fill:#E8F2FE;}
	.st6{fill:#FFFFFF;}
	.st7{fill:#B1D4F8;}
</style>
<title>Group 2</title>
<desc>Created with Sketch.</desc>
<g id="Splash">
	<g transform="translate(222.000000, 0.000000)">
		<path id="Path" class="st0" d="M-166.8,167.3c-1.4-36.7,4.4-75.9,28.5-103.6s71-37.3,97.9-12.3c8.1,7.6,13.8,17.5,21.8,25.1
			s20.2,12.9,30.2,8.3c5.9-2.7,9.9-8.3,15.1-12.3c12-9.3,29.6-8.9,42.9-1.8c13.4,7.1,22.9,19.9,29.2,33.7
			c8.1,17.9,11.3,37.5,9.4,57.1c-5.1,50.7-44.5,95.6-39.1,146.3c3,28.3,19.7,52.9,31.1,79c30.2,68.8,21.7,153.1-21.4,214.6
			c-11.7,16.7-25.9,32-34.7,50.4c-8.9,18.4-11.9,39.3-20.2,58.1s-24.2,36.7-44.7,37.6c-16.8,0.7-31.6-9.8-45.1-19.9l-73.2-55.1
			c-23.5-17.7-49.4-40.2-47.9-69.5c0.6-11.6,5.6-22.4,9.5-33.4c10.7-29.8,13.6-61.8,15.2-93.4C-156.8,372.8-162.9,269.9-166.8,167.3
			z"/>
	</g>
</g>
<g id="DB" transform="translate(665.000000, 120.000000)">
	<circle id="Oval" class="st1" cx="-474" cy="511.8" r="57"/>
	<circle class="st2" cx="-473.5" cy="437.3" r="12.5"/>
	<polygon class="st3" points="-478,484.8 -478,442.8 -470,442.8 -470,484.8 	"/>
	<path class="st4" d="M-534,512.8c0-14.4,11.6-26,25.9-26h69.1c14.3,0,25.9,11.6,25.9,26s-11.6,26-25.9,26h-69.1
		C-522.4,538.8-534,527.2-534,512.8z"/>
	<path class="st3" d="M-537,512.3c0-15.8,12.8-28.5,28.5-28.5h68.9c15.7,0,28.5,12.7,28.5,28.5c0,15.8-12.8,28.5-28.5,28.5h-68.9
		C-524.2,540.8-537,528.1-537,512.3z M-508.5,489.2c-12.8,0-23.2,10.4-23.2,23.1c0,12.8,10.4,23.1,23.2,23.1h68.9
		c12.8,0,23.2-10.4,23.2-23.1c0-12.8-10.4-23.1-23.2-23.1H-508.5z"/>
	<path class="st1" d="M-515,512.8c0-9,3.3-15,13.8-15h8.8l0.4,0.4v29.1l-0.4,0.4h-8.8C-511.7,527.8-515,521.8-515,512.8z"/>
	<path class="st1" d="M-436,519.3c0-3.9-2.1-6-4.7-6.9V512c2.1-0.9,3.8-3,3.8-6c0-6-4.2-8.1-8.9-8.1h-11.8l-0.4,0.4v29.1l0.4,0.4
		h12.7C-440.2,527.8-436,525.7-436,519.3z"/>
</g>
<g>
	<path class="st5" d="M104.6,347.3c2.3,0,4.1-1.8,4.1-4.1c0-2.3-1.8-4.1-4.1-4.1c-2.3,0-4.1,1.8-4.1,4.1
		C100.5,345.4,102.3,347.3,104.6,347.3z"/>
	<path class="st5" d="M175.4,161.6c1.9,0,3.4-1.5,3.4-3.4s-1.5-3.4-3.4-3.4c-1.9,0-3.4,1.5-3.4,3.4S173.6,161.6,175.4,161.6z"/>
	<path class="st5" d="M355.8,326.8c1.9,0,3.4-1.5,3.4-3.4s-1.5-3.4-3.4-3.4s-3.4,1.5-3.4,3.4S354,326.8,355.8,326.8z"/>
	<path class="st5" d="M152.7,497.2c3.7,0,6.7-3,6.7-6.7c0-3.7-3-6.7-6.7-6.7c-3.7,0-6.7,3-6.7,6.7C146,494.1,149,497.2,152.7,497.2z
		"/>
	<path class="st5" d="M38,392c3,0,5.4-2.4,5.4-5.4c0-3-2.4-5.4-5.4-5.4c-3,0-5.4,2.4-5.4,5.4C32.6,389.6,35,392,38,392z"/>
	<path class="st5" d="M274.4,363.3c2.6,0,4.7-2.1,4.7-4.7s-2.1-4.7-4.7-4.7s-4.7,2.1-4.7,4.7S271.8,363.3,274.4,363.3z"/>
	<path class="st5" d="M119.5,256.7c2.3,0,4.1-1.8,4.1-4.1c0-2.3-1.8-4.1-4.1-4.1c-2.3,0-4.1,1.8-4.1,4.1
		C115.4,254.9,117.2,256.7,119.5,256.7z"/>
	<path class="st5" d="M300.7,454.3c2.3,0,4.1-1.8,4.1-4.1s-1.8-4.1-4.1-4.1s-4.1,1.8-4.1,4.1S298.4,454.3,300.7,454.3z"/>
	<path class="st5" d="M301.2,458.8c-0.2-0.1-0.4-0.1-0.5-0.1c-0.2,0-0.4,0-0.5,0.1l-9.5,2.4c-0.2,0.1-0.4,0.3-0.6,0.5
		c-0.1,0.2-0.2,0.5-0.2,0.7v3.9c0,0.4,0.1,0.7,0.4,1c0.3,0.3,0.6,0.4,1,0.4h18.9c0.2,0,0.4,0,0.5-0.1c0.2-0.1,0.3-0.2,0.4-0.3
		c0.1-0.1,0.2-0.3,0.3-0.4c0.1-0.2,0.1-0.3,0.1-0.5v-3.9c0-0.3-0.1-0.5-0.2-0.7c-0.1-0.2-0.3-0.4-0.6-0.5L301.2,458.8z"/>
	<path class="st5" d="M55.6,217.9c1.8,0,3.2-1.4,3.2-3.2c0-1.8-1.4-3.2-3.2-3.2c-1.8,0-3.2,1.4-3.2,3.2
		C52.4,216.5,53.8,217.9,55.6,217.9z"/>
	<path class="st5" d="M56.2,221.3c-0.3-0.1-0.6-0.1-0.9,0l-7.4,1.9c-0.2,0.1-0.4,0.2-0.5,0.4c-0.1,0.2-0.2,0.4-0.2,0.6v3.1
		c0,0.3,0.1,0.6,0.3,0.8c0.2,0.2,0.5,0.3,0.8,0.3h14.9c0.3,0,0.6-0.1,0.8-0.3c0.2-0.2,0.3-0.5,0.3-0.8v-3.1c0-0.2-0.1-0.4-0.2-0.6
		c-0.1-0.2-0.3-0.3-0.5-0.4L56.2,221.3z"/>
	<path class="st5" d="M317.1,195.6c1.2,0,2.2-1,2.2-2.2c0-1.2-1-2.2-2.2-2.2c-1.2,0-2.2,1-2.2,2.2
		C314.8,194.6,315.8,195.6,317.1,195.6z"/>
	<path class="st5" d="M317.5,197.8c-0.2-0.1-0.4-0.1-0.6,0l-5.1,1.2c-0.1,0.1-0.2,0.2-0.3,0.3c-0.1,0.1-0.1,0.3-0.1,0.4v2.1
		c0,0.1,0,0.2,0.1,0.3c0,0.1,0.1,0.2,0.2,0.2c0.1,0.1,0.1,0.1,0.2,0.2c0.1,0,0.2,0.1,0.3,0.1h10.1c0.1,0,0.2,0,0.3-0.1
		c0.1,0,0.2-0.1,0.2-0.2c0.1-0.1,0.1-0.2,0.2-0.2c0-0.1,0.1-0.2,0.1-0.3v-2.1c0-0.1,0-0.3-0.1-0.4c-0.1-0.1-0.2-0.2-0.3-0.3
		L317.5,197.8z"/>
	<path class="st5" d="M179.6,290.9c1.2,0,2.2-1,2.2-2.2c0-1.2-1-2.2-2.2-2.2c-1.2,0-2.2,1-2.2,2.2
		C177.3,289.9,178.3,290.9,179.6,290.9z"/>
	<path class="st5" d="M180.1,293.2c-0.2-0.1-0.4-0.1-0.6,0l-5.1,1.3c-0.1,0.1-0.2,0.2-0.3,0.3c-0.1,0.1-0.1,0.3-0.1,0.4v2.1
		c0,0.1,0,0.2,0.1,0.3c0,0.1,0.1,0.2,0.2,0.2c0.1,0.1,0.1,0.1,0.2,0.2c0.1,0,0.2,0.1,0.3,0.1h10.1c0.1,0,0.2,0,0.3-0.1
		c0.1,0,0.2-0.1,0.2-0.2c0.1-0.1,0.1-0.2,0.2-0.2c0-0.1,0.1-0.2,0.1-0.3v-2.1c0-0.1,0-0.3-0.1-0.4c-0.1-0.1-0.2-0.2-0.3-0.3
		L180.1,293.2z"/>
	<path class="st6" d="M105.1,346.9c1.5,0,2.8-1.3,2.8-2.8c0-1.5-1.3-2.8-2.8-2.8c-1.5,0-2.8,1.3-2.8,2.8
		C102.3,345.7,103.6,346.9,105.1,346.9z"/>
	<path class="st6" d="M176.7,161.3c1.1,0,2.1-0.9,2.1-2.1c0-1.1-0.9-2.1-2.1-2.1c-1.1,0-2.1,0.9-2.1,2.1
		C174.7,160.4,175.6,161.3,176.7,161.3z"/>
	<path class="st6" d="M356.8,326.8c1.1,0,2.1-0.9,2.1-2.1s-0.9-2.1-2.1-2.1c-1.1,0-2.1,0.9-2.1,2.1S355.6,326.8,356.8,326.8z"/>
	<path class="st6" d="M154,496.4c2.6,0,4.7-2.1,4.7-4.7s-2.1-4.7-4.7-4.7c-2.6,0-4.7,2.1-4.7,4.7S151.4,496.4,154,496.4z"/>
	<path class="st6" d="M39.3,391.3c1.9,0,3.4-1.5,3.4-3.4c0-1.9-1.5-3.4-3.4-3.4c-1.9,0-3.4,1.5-3.4,3.4
		C35.9,389.8,37.4,391.3,39.3,391.3z"/>
	<path class="st6" d="M275.9,363c1.5,0,2.8-1.3,2.8-2.8c0-1.5-1.3-2.8-2.8-2.8s-2.8,1.3-2.8,2.8C273.1,361.7,274.3,363,275.9,363z"
		/>
	<path class="st6" d="M120.4,256.3c1.5,0,2.8-1.3,2.8-2.8c0-1.5-1.3-2.8-2.8-2.8c-1.5,0-2.8,1.3-2.8,2.8
		C117.6,255.1,118.9,256.3,120.4,256.3z"/>
	<path class="st6" d="M301.6,453.9c1.5,0,2.8-1.3,2.8-2.8c0-1.5-1.3-2.8-2.8-2.8c-1.5,0-2.8,1.3-2.8,2.8
		C298.8,452.7,300,453.9,301.6,453.9z"/>
	<path class="st6" d="M301.4,461c-0.1-0.1-0.3-0.1-0.4-0.1s-0.3,0-0.4,0.1l-7.1,1.8c-0.2,0.1-0.3,0.2-0.4,0.4
		c-0.1,0.2-0.2,0.4-0.2,0.6v2.9c0,0.3,0.1,0.5,0.3,0.7s0.4,0.3,0.7,0.3h17c0.3,0,0.5-0.1,0.7-0.3c0.2-0.2,0.3-0.4,0.3-0.7v-2.9
		L301.4,461z"/>
	<path class="st6" d="M56.7,217.6c1.1,0,2.1-0.9,2.1-2.1s-0.9-2.1-2.1-2.1c-1.1,0-2.1,0.9-2.1,2.1S55.6,217.6,56.7,217.6z"/>
	<path class="st6" d="M55.7,223.1l-5.4,1.4c-0.1,0.1-0.3,0.2-0.4,0.3c-0.1,0.1-0.1,0.3-0.1,0.4v2.4c0,0.1,0,0.2,0.1,0.3
		c0,0.1,0.1,0.2,0.2,0.3c0.1,0.1,0.2,0.1,0.3,0.2c0.1,0,0.2,0.1,0.3,0.1h12.9c0.2,0,0.4-0.1,0.6-0.2c0.2-0.2,0.2-0.4,0.2-0.6v-2.4
		L55.7,223.1z"/>
	<path class="st6" d="M317.8,195.2c0.6,0,1.1-0.5,1.1-1.1c0-0.6-0.5-1.1-1.1-1.1s-1.1,0.5-1.1,1.1
		C316.7,194.7,317.2,195.2,317.8,195.2z"/>
	<path class="st6" d="M317,199.5l-4.1,1v1.7c0,0.1,0.1,0.3,0.2,0.4s0.3,0.1,0.4,0.1h8.7c0.1,0,0.3,0,0.4-0.1s0.2-0.2,0.2-0.4
		l-0.5-1.3L317,199.5z"/>
	<path class="st6" d="M180.3,290.6c0.6,0,1.1-0.5,1.1-1.1s-0.5-1.1-1.1-1.1c-0.6,0-1.1,0.5-1.1,1.1S179.7,290.6,180.3,290.6z"/>
	<path class="st6" d="M179.5,294.9l-4.1,1v1.7c0,0.1,0.1,0.3,0.2,0.4c0.1,0.1,0.3,0.1,0.4,0.1h8.7c0.1,0,0.3,0,0.4-0.1
		c0.1-0.1,0.2-0.2,0.2-0.4l-0.5-1.3L179.5,294.9z"/>
	<path class="st7" d="M104.6,347.9c-1.2,0-2.4-0.5-3.2-1.4c-0.9-0.9-1.3-2-1.4-3.2c0-1.2,0.4-2.4,1.2-3.3c0.8-0.9,2-1.4,3.2-1.5
		c0.6,0,1.2,0.1,1.8,0.3c0.6,0.2,1.1,0.5,1.6,1c0.5,0.4,0.8,0.9,1.1,1.5c0.3,0.6,0.4,1.2,0.4,1.8c0,0.6-0.1,1.2-0.3,1.8
		c-0.2,0.6-0.6,1.1-1,1.6c-0.4,0.5-0.9,0.8-1.5,1.1c-0.6,0.3-1.2,0.4-1.8,0.4L104.6,347.9z M104.6,339.7h-0.1
		c-0.5,0-0.9,0.1-1.4,0.3c-0.4,0.2-0.8,0.4-1.2,0.8c-0.3,0.3-0.6,0.7-0.8,1.2c-0.2,0.4-0.3,0.9-0.2,1.4c0,0.5,0.1,0.9,0.3,1.4
		c0.2,0.4,0.5,0.8,0.8,1.1c0.4,0.3,0.8,0.6,1.2,0.7c0.4,0.1,0.9,0.2,1.4,0.2c0.5,0,0.9-0.1,1.4-0.3c0.4-0.2,0.8-0.5,1.1-0.8
		c0.6-0.7,1-1.6,0.9-2.5c0-0.9-0.4-1.8-1.1-2.4C106.4,340.1,105.5,339.7,104.6,339.7L104.6,339.7z"/>
	<path class="st7" d="M175.4,162.3c-1,0-2-0.5-2.7-1.2c-0.7-0.7-1.1-1.7-1.1-2.7c0-1,0.4-2,1-2.8c0.7-0.8,1.6-1.2,2.7-1.3
		c0.5,0,1,0.1,1.5,0.2c0.5,0.2,0.9,0.5,1.3,0.8c0.4,0.4,0.7,0.8,0.9,1.3c0.2,0.5,0.3,1,0.3,1.5c0,1.1-0.4,2.1-1.1,2.8
		c-0.7,0.8-1.7,1.2-2.8,1.3H175.4z M175.4,155.6L175.4,155.6c-0.6,0-1.2,0.2-1.6,0.5c-0.4,0.3-0.8,0.8-1,1.3
		c-0.2,0.5-0.2,1.1-0.1,1.6c0.1,0.5,0.4,1,0.8,1.4c0.5,0.5,1.2,0.8,2,0.7c0.4,0,0.7-0.1,1-0.2c0.3-0.1,0.6-0.4,0.9-0.6
		c0.5-0.5,0.8-1.2,0.7-2c0-0.7-0.3-1.4-0.8-1.9C176.8,155.8,176.1,155.5,175.4,155.6L175.4,155.6z"/>
	<path class="st7" d="M355.8,327.4c-1,0-2-0.5-2.7-1.2c-0.7-0.7-1.1-1.7-1.1-2.7c0-1,0.4-2,1-2.8c0.7-0.8,1.6-1.2,2.7-1.3
		c0.5,0,1,0.1,1.5,0.2c0.5,0.2,0.9,0.5,1.3,0.8c0.4,0.4,0.7,0.8,0.9,1.3c0.2,0.5,0.3,1,0.3,1.5c0,1.1-0.4,2.1-1.1,2.8
		c-0.7,0.8-1.7,1.2-2.8,1.3H355.8z M355.8,320.7L355.8,320.7c-0.9,0-1.6,0.3-2.1,0.9c-0.5,0.5-0.8,1.3-0.8,2c0,0.8,0.3,1.5,0.9,2
		c0.5,0.5,1.3,0.8,2,0.8c0.8,0,1.5-0.3,2-0.8c0.5-0.5,0.8-1.3,0.9-2c0-0.8-0.3-1.5-0.8-2C357.3,321,356.6,320.7,355.8,320.7z"/>
	<path class="st7" d="M152.7,497.8c-1.9,0-3.7-0.8-5-2.2c-1.3-1.3-2.1-3.2-2.1-5.1c0-1.9,0.7-3.7,2-5.1c1.3-1.4,3.1-2.2,5-2.3
		c1.9-0.1,3.8,0.7,5.2,2c1.4,1.3,2.3,3.2,2.3,5.1c0.1,1.9-0.6,3.8-2,5.2c-1.3,1.4-3.2,2.3-5.1,2.3L152.7,497.8z M152.7,484.3h-0.2
		c-0.8,0-1.6,0.2-2.3,0.5c-0.7,0.3-1.4,0.8-1.9,1.4c-0.5,0.6-1,1.3-1.3,2c-0.3,0.7-0.4,1.5-0.4,2.3c0,0.8,0.2,1.6,0.5,2.3
		c0.3,0.7,0.8,1.4,1.4,1.9c0.6,0.5,1.3,1,2,1.3c0.7,0.3,1.5,0.4,2.3,0.4c0.8,0,1.6-0.2,2.3-0.5c0.7-0.3,1.4-0.8,1.9-1.4
		c0.5-0.6,1-1.3,1.3-2c0.3-0.7,0.4-1.5,0.4-2.3c-0.1-1.6-0.7-3.1-1.8-4.2C155.8,485,154.2,484.3,152.7,484.3L152.7,484.3z"/>
	<path class="st7" d="M37.9,392.6c-1.6,0-3.1-0.6-4.2-1.7c-1.1-1.1-1.8-2.6-1.8-4.1c0-0.8,0.1-1.6,0.4-2.3c0.3-0.7,0.7-1.4,1.2-2
		c0.5-0.6,1.2-1,1.9-1.4c0.7-0.3,1.5-0.5,2.3-0.5c0.8,0,1.6,0.1,2.3,0.4c0.7,0.3,1.4,0.7,2,1.2c0.6,0.5,1,1.2,1.4,1.9
		c0.3,0.7,0.5,1.5,0.5,2.3c0,1.6-0.5,3.1-1.6,4.3c-1.1,1.2-2.6,1.8-4.2,1.9L37.9,392.6z M37.9,381.8h-0.2c-0.9,0-1.8,0.4-2.6,0.9
		c-0.8,0.6-1.3,1.3-1.7,2.2c-0.3,0.9-0.4,1.8-0.2,2.8c0.2,0.9,0.7,1.7,1.4,2.4c0.7,0.6,1.6,1.1,2.5,1.2c0.9,0.2,1.9,0,2.7-0.4
		c0.9-0.4,1.6-1,2.1-1.8c0.5-0.8,0.8-1.7,0.7-2.7c0-1.2-0.6-2.4-1.5-3.3C40.4,382.3,39.2,381.8,37.9,381.8L37.9,381.8z"/>
	<path class="st7" d="M274.4,363.9c-1.5,0-2.9-0.6-3.9-1.7c-1-1.1-1.6-2.5-1.6-3.9c0-1.5,0.6-2.9,1.7-3.9c1-1,2.5-1.6,3.9-1.6
		s2.9,0.6,3.9,1.6c1,1,1.6,2.4,1.7,3.9c0,1.5-0.6,2.9-1.6,3.9c-1,1.1-2.4,1.7-3.9,1.7H274.4z M274.4,354.6h-0.1
		c-1.1,0-2.1,0.5-2.8,1.3c-0.7,0.8-1.1,1.8-1.1,2.9c0,1.1,0.5,2.1,1.2,2.8c0.6,0.5,1.3,0.9,2.1,1c0.8,0.1,1.6,0,2.3-0.3
		c0.7-0.3,1.3-0.9,1.8-1.5c0.4-0.7,0.6-1.5,0.6-2.3c0-1-0.5-2-1.2-2.8C276.4,355,275.4,354.6,274.4,354.6L274.4,354.6z"/>
	<path class="st7" d="M119.5,257.3c-0.9,0-1.8-0.3-2.6-0.8c-0.8-0.5-1.4-1.3-1.7-2.1s-0.5-1.8-0.3-2.7c0.2-0.9,0.6-1.8,1.3-2.4
		c0.7-0.7,1.5-1.1,2.4-1.3c0.9-0.2,1.9-0.1,2.7,0.3c0.9,0.4,1.6,1,2.1,1.7c0.5,0.8,0.8,1.7,0.8,2.6c0,1.3-0.5,2.5-1.4,3.3
		C122,256.8,120.7,257.3,119.5,257.3z M119.5,249.1c-0.7,0-1.4,0.2-1.9,0.6c-0.6,0.4-1,0.9-1.3,1.6c-0.3,0.6-0.3,1.3-0.2,2
		c0.1,0.7,0.5,1.3,1,1.8c0.5,0.5,1.1,0.8,1.8,1c0.7,0.1,1.4,0.1,2-0.2c0.6-0.3,1.2-0.7,1.6-1.3c0.4-0.6,0.6-1.2,0.6-1.9
		c0-0.9-0.4-1.8-1-2.5C121.3,249.5,120.4,249.1,119.5,249.1z"/>
	<path class="st7" d="M300.7,454.9c-0.9,0-1.8-0.3-2.6-0.8c-0.8-0.5-1.4-1.3-1.7-2.1c-0.4-0.9-0.5-1.8-0.3-2.7
		c0.2-0.9,0.6-1.8,1.3-2.4s1.5-1.1,2.4-1.3c0.9-0.2,1.9-0.1,2.7,0.3c0.9,0.4,1.6,1,2.1,1.7c0.5,0.8,0.8,1.7,0.8,2.6
		c0,1.3-0.5,2.4-1.4,3.3C303.1,454.4,301.9,454.9,300.7,454.9z M300.7,446.7c-0.7,0-1.4,0.2-1.9,0.6c-0.6,0.4-1,0.9-1.3,1.6
		c-0.3,0.6-0.3,1.3-0.2,2s0.5,1.3,1,1.8c0.5,0.5,1.1,0.8,1.8,1c0.7,0.1,1.4,0.1,2-0.2c0.6-0.3,1.2-0.7,1.6-1.3
		c0.4-0.6,0.6-1.2,0.6-1.9c0-0.9-0.4-1.8-1-2.5C302.5,447.1,301.6,446.7,300.7,446.7z"/>
	<path class="st7" d="M310.1,468.3h-18.9c-0.5,0-1-0.2-1.4-0.6c-0.4-0.4-0.6-0.9-0.6-1.4v-3.9c0-0.4,0.1-0.8,0.3-1.1
		c0.2-0.3,0.5-0.6,0.9-0.7l9.6-2.5c0.5-0.2,1-0.2,1.4,0l9.4,2.4c0.4,0.2,0.7,0.4,0.9,0.7c0.2,0.3,0.3,0.7,0.3,1.1v3.9
		c0,0.3,0,0.5-0.1,0.8c-0.1,0.2-0.2,0.5-0.4,0.7c-0.2,0.2-0.4,0.3-0.6,0.4C310.6,468.3,310.4,468.3,310.1,468.3z M300.7,459.3
		c-0.1,0-0.2,0-0.3,0l-9.6,2.5c-0.1,0.1-0.2,0.2-0.2,0.3c-0.1,0.1-0.1,0.2-0.1,0.4v3.9c0,0.2,0.1,0.4,0.2,0.5
		c0.1,0.1,0.3,0.2,0.5,0.2h18.9c0.1,0,0.2,0,0.3-0.1c0.1,0,0.2-0.1,0.2-0.2c0.1-0.1,0.1-0.1,0.2-0.2c0-0.1,0.1-0.2,0.1-0.3v-3.9
		c0-0.1,0-0.3-0.1-0.4c-0.1-0.1-0.2-0.2-0.3-0.3l-9.4-2.4c0,0-0.1,0-0.1,0C300.9,459.3,300.8,459.3,300.7,459.3z"/>
	<path class="st7" d="M55.6,218.6c-0.7,0-1.5-0.2-2.1-0.6s-1.1-1-1.4-1.7c-0.3-0.7-0.4-1.5-0.2-2.2c0.1-0.7,0.5-1.4,1-1.9
		c0.5-0.5,1.2-0.9,1.9-1s1.5-0.1,2.2,0.2c0.7,0.3,1.3,0.8,1.7,1.4c0.4,0.6,0.6,1.4,0.6,2.1c0,1-0.4,2-1.1,2.7
		C57.5,218.2,56.6,218.6,55.6,218.6z M55.6,212.2c-0.5,0-1,0.1-1.4,0.4c-0.4,0.3-0.7,0.7-0.9,1.1s-0.2,1-0.1,1.5
		c0.1,0.5,0.3,0.9,0.7,1.3c0.4,0.4,0.8,0.6,1.3,0.7c0.5,0.1,1,0,1.5-0.1c0.5-0.2,0.9-0.5,1.1-0.9c0.3-0.4,0.4-0.9,0.4-1.4
		c0-0.7-0.3-1.3-0.7-1.8C56.9,212.5,56.2,212.2,55.6,212.2z"/>
	<path class="st7" d="M63.2,229h-15c-0.2,0-0.4,0-0.6-0.1c-0.2-0.1-0.4-0.2-0.6-0.4c-0.2-0.2-0.3-0.3-0.4-0.5
		c-0.1-0.2-0.1-0.4-0.1-0.6v-3.1c0-0.3,0.1-0.6,0.3-0.9c0.2-0.3,0.4-0.5,0.7-0.6l7.6-1.9c0.2-0.1,0.4-0.1,0.6-0.1s0.4,0,0.6,0.1
		l7.4,1.9c0.3,0.1,0.6,0.3,0.8,0.6c0.2,0.3,0.3,0.6,0.3,1v3.1c0,0.2,0,0.4-0.1,0.7c-0.1,0.2-0.2,0.4-0.4,0.6
		c-0.2,0.2-0.4,0.3-0.6,0.4C63.7,229,63.5,229,63.2,229z M55.8,221.9c-0.1,0-0.1,0-0.2,0l-7.6,1.9c-0.1,0-0.1,0.1-0.1,0.2
		c0,0.1,0,0.1,0,0.2v3.1c0,0.1,0.1,0.2,0.1,0.3c0.1,0.1,0.2,0.1,0.3,0.1h14.9c0.1,0,0.2,0,0.3-0.1c0.1-0.1,0.1-0.2,0.1-0.3v-3.1
		c0-0.1,0-0.2-0.1-0.2c0-0.1-0.1-0.1-0.2-0.2l-7.4-1.9L55.8,221.9C55.9,221.9,55.8,221.9,55.8,221.9z"/>
	<path class="st7" d="M317.1,196.2c-0.6,0-1.1-0.2-1.6-0.5c-0.5-0.3-0.8-0.8-1.1-1.3c-0.2-0.5-0.3-1.1-0.2-1.7
		c0.1-0.6,0.4-1.1,0.8-1.5c0.4-0.4,0.9-0.7,1.5-0.8c0.6-0.1,1.1-0.1,1.7,0.2c0.5,0.2,1,0.6,1.3,1.1c0.3,0.5,0.5,1,0.5,1.6
		c0,0.8-0.3,1.5-0.8,2C318.5,195.9,317.8,196.2,317.1,196.2z M317.1,191.7c-0.3,0-0.6,0.1-0.9,0.3c-0.3,0.2-0.5,0.4-0.6,0.7
		c-0.1,0.3-0.2,0.6-0.1,0.9c0.1,0.3,0.2,0.6,0.4,0.8c0.2,0.2,0.5,0.4,0.8,0.4c0.3,0.1,0.6,0,0.9-0.1c0.3-0.1,0.5-0.3,0.7-0.6
		c0.2-0.3,0.3-0.6,0.3-0.9c0-0.4-0.2-0.8-0.5-1.1C317.9,191.9,317.5,191.7,317.1,191.7z"/>
	<path class="st7" d="M322.3,203.3h-10.1c-0.2,0-0.4,0-0.5-0.1c-0.2-0.1-0.3-0.2-0.4-0.3c-0.1-0.1-0.2-0.3-0.3-0.4
		c-0.1-0.2-0.1-0.3-0.1-0.5v-2.1c0-0.3,0.1-0.5,0.2-0.7c0.1-0.2,0.3-0.4,0.6-0.5l5.2-1.3c0.3-0.1,0.6-0.1,0.9,0l5,1.2
		c0.3,0.1,0.5,0.3,0.6,0.5c0.2,0.2,0.3,0.5,0.3,0.8v2.1c0,0.2,0,0.4-0.1,0.5c-0.1,0.2-0.2,0.3-0.3,0.5c-0.1,0.1-0.3,0.2-0.4,0.3
		C322.6,203.2,322.5,203.3,322.3,203.3z M312.1,199.7C312.1,199.7,312.1,199.7,312.1,199.7v2.2c0,0,0,0.1,0,0.1c0,0,0,0,0.1,0h10.1
		c0,0,0.1,0,0.1,0s0-0.1,0-0.1v-2.1l-5-1.4h-0.1h-0.1L312.1,199.7L312.1,199.7z"/>
	<path class="st7" d="M179.6,291.6c-0.6,0-1.1-0.2-1.6-0.5c-0.5-0.3-0.8-0.8-1.1-1.3c-0.2-0.5-0.3-1.1-0.2-1.7
		c0.1-0.6,0.4-1.1,0.8-1.5c0.4-0.4,0.9-0.7,1.5-0.8c0.6-0.1,1.1-0.1,1.7,0.2c0.5,0.2,1,0.6,1.3,1.1c0.3,0.5,0.5,1,0.5,1.6
		c0,0.8-0.3,1.5-0.8,2C181.1,291.3,180.3,291.6,179.6,291.6z M179.6,287.1c-0.3,0-0.6,0.1-0.9,0.3c-0.3,0.2-0.5,0.4-0.6,0.7
		c-0.1,0.3-0.2,0.6-0.1,0.9c0.1,0.3,0.2,0.6,0.4,0.8c0.2,0.2,0.5,0.4,0.8,0.4c0.3,0.1,0.6,0,0.9-0.1c0.3-0.1,0.5-0.3,0.7-0.6
		c0.2-0.3,0.3-0.6,0.3-0.9c0-0.4-0.2-0.8-0.5-1.1C180.4,287.3,180,287.1,179.6,287.1z"/>
	<path class="st7" d="M184.8,298.7h-10.1c-0.2,0-0.4,0-0.5-0.1c-0.2-0.1-0.3-0.2-0.4-0.3c-0.1-0.1-0.2-0.3-0.3-0.4
		c-0.1-0.2-0.1-0.3-0.1-0.5v-2.1c0-0.3,0.1-0.5,0.2-0.7c0.1-0.2,0.3-0.4,0.6-0.5l5.2-1.3c0.3-0.1,0.6-0.1,0.9,0l5,1.2
		c0.3,0.1,0.5,0.3,0.6,0.5c0.2,0.2,0.3,0.5,0.3,0.8v2.1c0,0.2,0,0.4-0.1,0.5c-0.1,0.2-0.2,0.3-0.3,0.5c-0.1,0.1-0.3,0.2-0.4,0.3
		C185.2,298.6,185,298.7,184.8,298.7z M174.6,295.1C174.6,295.1,174.6,295.1,174.6,295.1v2.2c0,0,0,0.1,0,0.1c0,0,0,0,0.1,0h10.1
		c0,0,0.1,0,0.1,0s0-0.1,0-0.1v-2.1l-5-1.4h-0.1h-0.1L174.6,295.1L174.6,295.1z"/>
	<path class="st7" d="M321.4,387.9c1.1,0,2.1-0.9,2.1-2.1c0-1.1-0.9-2.1-2.1-2.1c-1.1,0-2.1,0.9-2.1,2.1
		C319.3,387,320.2,387.9,321.4,387.9z"/>
	<path class="st7" d="M243.4,442.7c1.1,0,2.1-0.9,2.1-2.1s-0.9-2.1-2.1-2.1c-1.1,0-2.1,0.9-2.1,2.1S242.3,442.7,243.4,442.7z"/>
	<path class="st7" d="M91.7,398.7c1.1,0,2.1-0.9,2.1-2.1s-0.9-2.1-2.1-2.1s-2.1,0.9-2.1,2.1S90.6,398.7,91.7,398.7z"/>
	<path class="st7" d="M172.2,416.1c1.1,0,2.1-0.9,2.1-2.1c0-1.1-0.9-2.1-2.1-2.1c-1.1,0-2.1,0.9-2.1,2.1
		C170.2,415.2,171.1,416.1,172.2,416.1z"/>
	<path class="st7" d="M182.2,356.6c1.1,0,2.1-0.9,2.1-2.1c0-1.1-0.9-2.1-2.1-2.1c-1.1,0-2.1,0.9-2.1,2.1
		C180.1,355.7,181,356.6,182.2,356.6z"/>
	<path class="st7" d="M94.3,278.3c1.1,0,2.1-0.9,2.1-2.1c0-1.1-0.9-2.1-2.1-2.1s-2.1,0.9-2.1,2.1C92.3,277.4,93.2,278.3,94.3,278.3z
		"/>
	<path class="st7" d="M113.3,202.3c1.1,0,2.1-0.9,2.1-2.1c0-1.1-0.9-2.1-2.1-2.1c-1.1,0-2.1,0.9-2.1,2.1
		C111.3,201.4,112.2,202.3,113.3,202.3z"/>
	<path class="st7" d="M164.8,210.5c1.1,0,2.1-0.9,2.1-2.1c0-1.1-0.9-2.1-2.1-2.1c-1.1,0-2.1,0.9-2.1,2.1
		C162.7,209.6,163.6,210.5,164.8,210.5z"/>
	<path class="st7" d="M256.1,153.5c1.1,0,2.1-0.9,2.1-2.1c0-1.1-0.9-2.1-2.1-2.1c-1.1,0-2.1,0.9-2.1,2.1
		C254.1,152.5,255,153.5,256.1,153.5z"/>
	<path class="st7" d="M100.3,162.4c1.1,0,2.1-0.9,2.1-2.1s-0.9-2.1-2.1-2.1s-2.1,0.9-2.1,2.1S99.2,162.4,100.3,162.4z"/>
	<path class="st7" d="M45.5,309.3c1.1,0,2.1-0.9,2.1-2.1c0-1.1-0.9-2.1-2.1-2.1c-1.1,0-2.1,0.9-2.1,2.1
		C43.4,308.3,44.4,309.3,45.5,309.3z"/>
	<path class="st7" d="M6.4,319c1.1,0,2.1-0.9,2.1-2.1c0-1.1-0.9-2.1-2.1-2.1c-1.1,0-2.1,0.9-2.1,2.1C4.3,318,5.2,319,6.4,319z"/>
	<path class="st7" d="M81.7,469.9c1.1,0,2.1-0.9,2.1-2.1c0-1.1-0.9-2.1-2.1-2.1c-1.1,0-2.1,0.9-2.1,2.1
		C79.6,469,80.5,469.9,81.7,469.9z"/>
	<path class="st7" d="M240.5,502.4c1.1,0,2.1-0.9,2.1-2.1c0-1.1-0.9-2.1-2.1-2.1c-1.1,0-2.1,0.9-2.1,2.1
		C238.4,501.4,239.3,502.4,240.5,502.4z"/>
	<path class="st7" d="M367.2,389.8c1.1,0,2.1-0.9,2.1-2.1c0-1.1-0.9-2.1-2.1-2.1c-1.1,0-2.1,0.9-2.1,2.1
		C365.2,388.9,366.1,389.8,367.2,389.8z"/>
	<path class="st7" d="M306.8,289.1c1.1,0,2.1-0.9,2.1-2.1s-0.9-2.1-2.1-2.1s-2.1,0.9-2.1,2.1S305.7,289.1,306.8,289.1z"/>
	<path class="st7" d="M249.4,247.8c1.1,0,2.1-0.9,2.1-2.1c0-1.1-0.9-2.1-2.1-2.1c-1.1,0-2.1,0.9-2.1,2.1
		C247.4,246.8,248.3,247.8,249.4,247.8z"/>
	<path class="st7" d="M369.1,234.7c1.1,0,2.1-0.9,2.1-2.1c0-1.1-0.9-2.1-2.1-2.1c-1.1,0-2.1,0.9-2.1,2.1
		C367,233.8,367.9,234.7,369.1,234.7z"/>
	<path class="st7" d="M239.7,436.7c-0.1,0-0.2,0-0.3-0.1c-0.1,0-0.2-0.1-0.2-0.2l-52-75.6c-0.1-0.1-0.1-0.3-0.1-0.4
		c0-0.1,0.1-0.3,0.3-0.4c0.1-0.1,0.3-0.1,0.4-0.1c0.1,0,0.3,0.1,0.4,0.2l52,75.6c0,0.1,0.1,0.1,0.1,0.2c0,0.1,0,0.2,0,0.2
		c0,0.1,0,0.2-0.1,0.2c0,0.1-0.1,0.1-0.2,0.2C240,436.7,239.9,436.7,239.7,436.7z"/>
	<path class="st7" d="M238.5,439.2c-0.1,0-0.1,0-0.2,0l-61.9-22.3c-0.1-0.1-0.3-0.2-0.3-0.3c-0.1-0.1-0.1-0.3,0-0.5
		c0.1-0.2,0.2-0.3,0.3-0.3c0.1-0.1,0.3-0.1,0.5,0l61.9,22.3c0.2,0,0.3,0.1,0.4,0.3c0.1,0.1,0.1,0.3,0.1,0.5c0,0.2-0.1,0.3-0.3,0.4
		C238.8,439.3,238.7,439.3,238.5,439.2L238.5,439.2z"/>
	<path class="st7" d="M295.8,438.9c-0.1,0-0.3,0-0.4-0.1c-0.1-0.1-0.2-0.2-0.2-0.3l-18.9-70.2c0-0.2,0-0.3,0.1-0.5
		c0.1-0.1,0.2-0.3,0.4-0.3c0.2,0,0.3,0,0.5,0.1c0.1,0.1,0.3,0.2,0.3,0.4l18.9,70.2c0,0.2,0,0.3-0.1,0.5c-0.1,0.1-0.2,0.2-0.4,0.3
		C296,438.9,295.9,438.9,295.8,438.9z"/>
	<path class="st7" d="M312.6,441.7c-0.1,0-0.2,0-0.3-0.1c-0.1-0.1-0.2-0.2-0.2-0.3c0-0.1-0.1-0.2,0-0.4c0-0.1,0.1-0.2,0.2-0.3
		l50.5-49.7c0.1-0.1,0.1-0.1,0.2-0.1c0.1,0,0.2,0,0.2,0c0.1,0,0.2,0,0.2,0c0.1,0,0.1,0.1,0.2,0.1c0.1,0.1,0.1,0.1,0.1,0.2
		c0,0.1,0,0.2,0,0.2s0,0.2,0,0.2c0,0.1-0.1,0.1-0.1,0.2L313,441.5c-0.1,0.1-0.1,0.1-0.2,0.2C312.7,441.6,312.7,441.7,312.6,441.7z"
		/>
	<path class="st7" d="M352.8,315c-0.1,0-0.3,0-0.4-0.1c-0.1-0.1-0.2-0.2-0.2-0.3l-33-106.3c0-0.1,0-0.2,0-0.3c0-0.1,0-0.2,0.1-0.2
		c0-0.1,0.1-0.1,0.2-0.2c0.1-0.1,0.1-0.1,0.2-0.1c0.1,0,0.2,0,0.3,0c0.1,0,0.2,0,0.2,0.1c0.1,0,0.1,0.1,0.2,0.2
		c0.1,0.1,0.1,0.1,0.1,0.2l33,106.3c0,0.1,0,0.2,0,0.2c0,0.1,0,0.2-0.1,0.2c0,0.1-0.1,0.1-0.2,0.2c-0.1,0.1-0.1,0.1-0.2,0.1
		C352.9,315,352.8,315,352.8,315z"/>
	<path class="st7" d="M283,355.7c-0.1,0-0.2,0-0.3-0.1c-0.1-0.1-0.2-0.2-0.2-0.3c0-0.1-0.1-0.2-0.1-0.2c0-0.1,0-0.2,0-0.2
		s0.1-0.1,0.1-0.2c0.1-0.1,0.1-0.1,0.2-0.1l64.1-27.8c0.1,0,0.2-0.1,0.2-0.1c0.1,0,0.2,0,0.3,0c0.1,0,0.2,0.1,0.2,0.1
		c0.1,0.1,0.1,0.1,0.2,0.2c0,0.1,0.1,0.2,0.1,0.3c0,0.1,0,0.2-0.1,0.3c0,0.1-0.1,0.1-0.2,0.2c-0.1,0.1-0.1,0.1-0.2,0.1l-64.1,27.8
		C283.2,355.7,283.1,355.7,283,355.7z"/>
	<path class="st7" d="M141.1,487.7h-0.2l-54.3-18.3c-0.2-0.1-0.3-0.2-0.4-0.3s-0.1-0.3,0-0.5c0.1-0.2,0.2-0.3,0.3-0.4
		c0.1-0.1,0.3-0.1,0.5,0l54.3,18.3c0.1,0,0.2,0,0.2,0.1c0.1,0,0.1,0.1,0.2,0.2c0,0.1,0.1,0.1,0.1,0.2c0,0.1,0,0.2,0,0.2
		c0,0.1,0,0.2-0.1,0.2c0,0.1-0.1,0.1-0.2,0.2c-0.1,0-0.1,0.1-0.2,0.1C141.3,487.8,141.2,487.8,141.1,487.7L141.1,487.7z"/>
	<path class="st7" d="M79.5,464.1c-0.1,0-0.2,0-0.3-0.1c-0.1-0.1-0.2-0.1-0.2-0.2l-36.8-68.4c0-0.1-0.1-0.1-0.1-0.2
		c0-0.1,0-0.2,0-0.2c0-0.1,0.1-0.2,0.1-0.2c0.1-0.1,0.1-0.1,0.2-0.2c0.1,0,0.2-0.1,0.2-0.1c0.1,0,0.2,0,0.2,0c0.1,0,0.2,0.1,0.2,0.1
		c0.1,0.1,0.1,0.1,0.2,0.2l36.8,68.4c0,0.1,0.1,0.1,0.1,0.2c0,0.1,0,0.2,0,0.2c0,0.1-0.1,0.1-0.1,0.2c-0.1,0.1-0.1,0.1-0.2,0.1
		C79.7,464.1,79.6,464.1,79.5,464.1z"/>
	<path class="st7" d="M38.2,375.7L38.2,375.7c-0.2,0-0.4-0.1-0.5-0.2c-0.1-0.1-0.1-0.3-0.1-0.5l7.4-62.4c0-0.1,0-0.2,0.1-0.2
		c0-0.1,0.1-0.1,0.2-0.2c0.1,0,0.1-0.1,0.2-0.1c0.1,0,0.2,0,0.2,0c0.2,0,0.3,0.1,0.4,0.2c0.1,0.1,0.1,0.3,0.1,0.5l-7.4,62.4
		c0,0.2-0.1,0.3-0.2,0.4C38.5,375.7,38.4,375.7,38.2,375.7z"/>
	<path class="st7" d="M45.6,302.5L45.6,302.5c-0.2,0-0.3,0-0.3-0.1c-0.1,0-0.1-0.1-0.2-0.2c0-0.1-0.1-0.1-0.1-0.2c0-0.1,0-0.2,0-0.2
		l9.6-65.5c0-0.2,0.1-0.3,0.2-0.4c0.1,0,0.1-0.1,0.2-0.1c0.1,0,0.2,0,0.2,0c0.1,0,0.2,0,0.2,0.1c0.1,0,0.1,0.1,0.2,0.2
		c0,0.1,0.1,0.1,0.1,0.2c0,0.1,0,0.2,0,0.2L46.2,302c0,0.1-0.1,0.3-0.2,0.4C45.9,302.5,45.7,302.5,45.6,302.5z"/>
	<path class="st7" d="M90.2,272.7c-0.1,0-0.2,0-0.3-0.1c-0.1,0-0.2-0.1-0.2-0.2l-28.7-37.3c-0.1-0.1-0.1-0.3-0.1-0.4
		c0-0.2,0.1-0.3,0.2-0.4c0.1-0.1,0.3-0.1,0.4-0.1c0.2,0,0.3,0.1,0.4,0.2l28.7,37.3c0.1,0.1,0.1,0.2,0.1,0.3c0,0.1,0,0.2-0.1,0.3
		c-0.1,0.1-0.1,0.2-0.2,0.3C90.5,272.7,90.4,272.7,90.2,272.7z"/>
	<path class="st7" d="M101.4,336.1c-0.1,0-0.3-0.1-0.4-0.2c-0.1-0.1-0.2-0.2-0.2-0.4l-7.1-53.9c0-0.2,0-0.3,0.1-0.5
		c0.1-0.1,0.2-0.2,0.4-0.2c0.2,0,0.3,0,0.5,0.1c0.1,0.1,0.2,0.2,0.2,0.4l7.1,53.9c0,0.2,0,0.3-0.1,0.5
		C101.8,336,101.7,336.1,101.4,336.1L101.4,336.1z"/>
	<path class="st7" d="M110.7,339.5c-0.1,0-0.2,0-0.3-0.1c-0.1,0-0.2-0.1-0.2-0.2c0-0.1-0.1-0.1-0.1-0.2c0-0.1,0-0.2,0-0.2
		c0-0.1,0.1-0.2,0.1-0.2c0-0.1,0.1-0.1,0.2-0.2l60.9-39.1c0.1-0.1,0.3-0.1,0.5-0.1c0.2,0,0.3,0.1,0.4,0.3c0.1,0.1,0.1,0.3,0.1,0.5
		c0,0.2-0.1,0.3-0.2,0.4l-60.9,39.1C111,339.5,110.8,339.5,110.7,339.5z"/>
	<path class="st7" d="M186.5,289.3c-0.1,0-0.2,0-0.3-0.1c-0.1,0-0.2-0.1-0.2-0.2c0-0.1-0.1-0.1-0.1-0.2c0-0.1,0-0.2,0-0.2
		c0-0.1,0-0.2,0.1-0.2c0-0.1,0.1-0.1,0.2-0.2l57.3-39.5c0.1-0.1,0.3-0.1,0.5-0.1s0.3,0.1,0.4,0.3c0.1,0.1,0.1,0.3,0.1,0.5
		c0,0.2-0.1,0.3-0.3,0.4l-57.4,39.5C186.7,289.3,186.6,289.3,186.5,289.3z"/>
	<path class="st7" d="M252,242.1c-0.1,0-0.2,0-0.3-0.1c-0.1,0-0.2-0.1-0.2-0.2c0-0.1-0.1-0.1-0.1-0.2c0-0.1,0-0.2,0-0.2
		c0-0.1,0-0.2,0.1-0.2c0-0.1,0.1-0.1,0.2-0.2l55.4-37.7c0.1-0.1,0.1-0.1,0.2-0.1c0.1,0,0.2,0,0.3,0c0.1,0,0.2,0,0.2,0.1
		s0.1,0.1,0.2,0.2c0,0.1,0.1,0.2,0.1,0.2c0,0.1,0,0.2,0,0.3c0,0.1-0.1,0.2-0.1,0.2c-0.1,0.1-0.1,0.1-0.2,0.2L252.3,242
		C252.2,242.1,252.1,242.1,252,242.1z"/>
	<path class="st7" d="M305.9,195.3h-0.2L182.3,161c-0.2,0-0.3-0.2-0.4-0.3s-0.1-0.3-0.1-0.5c0-0.2,0.2-0.3,0.3-0.4
		c0.1-0.1,0.3-0.1,0.5-0.1L306.1,194c0.2,0,0.3,0.1,0.4,0.3c0.1,0.1,0.1,0.3,0.1,0.5c0,0.1-0.1,0.3-0.2,0.3
		C306.2,195.2,306.1,195.3,305.9,195.3z"/>
	<path class="st7" d="M46.7,379.7c-0.1,0-0.3,0-0.4-0.1c-0.1-0.1-0.2-0.2-0.2-0.3c0-0.1,0-0.3,0-0.4c0-0.1,0.1-0.2,0.2-0.3
		l51.7-31.1c0.1,0,0.1-0.1,0.2-0.1c0.1,0,0.2,0,0.2,0c0.1,0,0.2,0.1,0.2,0.1c0.1,0,0.1,0.1,0.2,0.2c0,0.1,0.1,0.1,0.1,0.2
		c0,0.1,0,0.2,0,0.2c0,0.1-0.1,0.2-0.1,0.2c0,0.1-0.1,0.1-0.2,0.2l-51.7,31C46.9,379.7,46.8,379.7,46.7,379.7z"/>
	<path class="st7" d="M166.7,205.1L166.7,205.1c-0.3,0-0.4-0.1-0.5-0.2c-0.1-0.1-0.1-0.3-0.1-0.5l5.2-38.8c0-0.2,0.1-0.3,0.2-0.4
		c0.1-0.1,0.3-0.1,0.5-0.1c0.1,0,0.2,0,0.2,0.1c0.1,0,0.1,0.1,0.2,0.2c0,0.1,0.1,0.1,0.1,0.2c0,0.1,0,0.2,0,0.2l-5.2,38.8
		c0,0.1-0.1,0.3-0.2,0.4C166.9,205,166.8,205.1,166.7,205.1z"/>
	<path class="st7" d="M242.5,244.8c-0.1,0-0.2,0-0.3,0L170.1,210c-0.1-0.1-0.3-0.2-0.3-0.4c-0.1-0.2,0-0.3,0-0.5
		c0.1-0.1,0.2-0.3,0.4-0.3c0.2-0.1,0.3,0,0.5,0l72.2,34.7c0.2,0,0.3,0.1,0.4,0.3c0.1,0.1,0.1,0.3,0.1,0.5c0,0.2-0.1,0.3-0.3,0.4
		C242.9,244.9,242.7,244.9,242.5,244.8L242.5,244.8z"/>
	<path class="st7" d="M302.3,284c-0.1,0-0.3,0-0.4-0.1l-47.2-34.6c-0.1-0.1-0.2-0.2-0.2-0.4c0-0.2,0-0.3,0.1-0.5
		c0.1-0.1,0.2-0.2,0.4-0.2c0.2,0,0.3,0,0.5,0.1l47.2,34.6c0.1,0.1,0.2,0.2,0.2,0.3c0,0.1,0,0.3,0,0.4c0,0.1-0.1,0.2-0.2,0.3
		C302.5,284,302.4,284,302.3,284z"/>
	<path class="st7" d="M122.9,246.3c-0.1,0-0.2,0-0.3,0c-0.1,0-0.1-0.1-0.2-0.1c-0.1-0.1-0.1-0.1-0.1-0.2c0-0.1,0-0.2,0-0.2
		s0-0.2,0-0.2c0-0.1,0.1-0.1,0.1-0.2l37.6-33.8c0.1-0.1,0.1-0.1,0.2-0.2c0.1,0,0.2-0.1,0.3-0.1c0.1,0,0.2,0,0.3,0.1
		c0.1,0,0.2,0.1,0.2,0.2c0.1,0.1,0.1,0.1,0.1,0.2c0,0.1,0,0.2,0,0.3c0,0.1,0,0.2-0.1,0.2c0,0.1-0.1,0.1-0.2,0.2l-37.6,33.8
		c-0.1,0.1-0.1,0.1-0.2,0.1S122.9,246.3,122.9,246.3z"/>
	<path class="st7" d="M265.1,353.2c-0.1,0-0.2,0-0.3-0.1l-77.4-52.8c-0.1-0.1-0.2-0.2-0.2-0.4c0-0.2,0-0.3,0.1-0.4
		c0.1-0.1,0.2-0.2,0.4-0.3c0.1,0,0.3,0,0.4,0.1l77.4,52.8c0.1,0.1,0.2,0.2,0.3,0.3c0,0.1,0.1,0.3,0,0.4c0,0.1-0.1,0.2-0.2,0.3
		C265.4,353.2,265.3,353.2,265.1,353.2z"/>
	<path class="st7" d="M171.6,289.3c-0.1,0-0.3,0-0.4-0.1l-46.1-31.9c-0.1,0-0.1-0.1-0.2-0.2c0-0.1-0.1-0.1-0.1-0.2
		c0-0.1,0-0.2,0-0.2c0-0.1,0-0.2,0.1-0.2c0-0.1,0.1-0.1,0.2-0.2c0.1,0,0.2-0.1,0.2-0.1c0.1,0,0.2,0,0.2,0c0.1,0,0.2,0.1,0.2,0.1
		l46.1,31.9c0.1,0.1,0.2,0.2,0.2,0.4c0,0.2,0,0.3-0.1,0.5c-0.1,0.1-0.1,0.2-0.2,0.2C171.8,289.3,171.7,289.3,171.6,289.3z"/>
	<path class="st7" d="M112.4,249.4c-0.1,0-0.2,0-0.3-0.1l-42.2-21.4c-0.1,0-0.1-0.1-0.2-0.1c-0.1-0.1-0.1-0.1-0.1-0.2
		c0-0.1,0-0.2,0-0.2c0-0.1,0-0.2,0.1-0.2c0-0.1,0.1-0.1,0.2-0.2c0.1-0.1,0.1-0.1,0.2-0.1c0.1,0,0.2,0,0.3,0c0.1,0,0.2,0,0.2,0.1
		l42.2,21.4c0.1,0.1,0.3,0.2,0.3,0.4c0,0.2,0,0.3,0,0.5c0,0.1-0.1,0.2-0.2,0.3C112.6,249.3,112.5,249.4,112.4,249.4z"/>
	<path class="st7" d="M162.9,414.4h-0.2l-65.6-18.6c-0.2,0-0.3-0.2-0.4-0.3c-0.1-0.1-0.1-0.3-0.1-0.5c0-0.2,0.2-0.3,0.3-0.4
		c0.1-0.1,0.3-0.1,0.5-0.1l65.6,18.6c0.1,0,0.2,0,0.2,0.1c0.1,0,0.1,0.1,0.2,0.2c0,0.1,0.1,0.1,0.1,0.2c0,0.1,0,0.2,0,0.2
		c0,0.1,0,0.2-0.1,0.2c0,0.1-0.1,0.1-0.2,0.2c-0.1,0-0.1,0.1-0.2,0.1C163.1,414.4,163,414.4,162.9,414.4z"/>
	<path class="st7" d="M166.7,409.5c-0.2,0-0.3-0.1-0.4-0.2l-58.7-58c-0.1-0.1-0.1-0.1-0.1-0.2c0-0.1,0-0.2,0-0.2s0-0.2,0-0.2
		c0-0.1,0.1-0.1,0.1-0.2c0.1-0.1,0.1-0.1,0.2-0.1c0.1,0,0.2,0,0.2,0s0.2,0,0.2,0c0.1,0,0.1,0.1,0.2,0.1l58.7,58
		c0.1,0.1,0.1,0.2,0.2,0.3c0,0.1,0,0.2,0,0.4c0,0.1-0.1,0.2-0.2,0.3C166.9,409.4,166.8,409.5,166.7,409.5L166.7,409.5z"/>
	<path class="st7" d="M263.2,358.4l-75.5-3.4c-0.1,0-0.2,0-0.2-0.1c-0.1,0-0.1-0.1-0.2-0.1c-0.1-0.1-0.1-0.1-0.1-0.2
		c0-0.1,0-0.2,0-0.2c0-0.1,0-0.2,0-0.2c0-0.1,0.1-0.1,0.1-0.2c0.1-0.1,0.1-0.1,0.2-0.1c0.1,0,0.2,0,0.2,0l75.5,3.4
		c0.1,0,0.2,0,0.2,0.1c0.1,0,0.1,0.1,0.2,0.1c0.1,0.1,0.1,0.1,0.1,0.2c0,0.1,0,0.2,0,0.2c0,0.2-0.1,0.3-0.2,0.4
		C263.5,358.3,263.3,358.4,263.2,358.4z"/>
	<path class="st7" d="M176.6,355L176.6,355l-64.2-10.4c-0.1,0-0.2,0-0.2-0.1c-0.1,0-0.1-0.1-0.2-0.2c0-0.1-0.1-0.1-0.1-0.2
		c0-0.1,0-0.2,0-0.2c0-0.2,0.1-0.3,0.3-0.4c0.1-0.1,0.3-0.1,0.5-0.1l64.1,10.4c0.2,0,0.3,0.1,0.4,0.2c0.1,0.1,0.2,0.3,0.1,0.5
		c0,0.2-0.1,0.3-0.2,0.4C176.9,354.9,176.7,355,176.6,355L176.6,355z"/>
	<path class="st7" d="M182.8,350c-0.2,0-0.3-0.1-0.4-0.2c-0.1-0.1-0.2-0.3-0.2-0.4l-2.5-48.3c0-0.1,0-0.2,0-0.2
		c0-0.1,0.1-0.1,0.1-0.2c0.1-0.1,0.1-0.1,0.2-0.1c0.1,0,0.2-0.1,0.2-0.1c0.1,0,0.2,0,0.2,0c0.1,0,0.1,0.1,0.2,0.1
		c0.1,0.1,0.1,0.1,0.1,0.2c0,0.1,0.1,0.2,0.1,0.2l2.5,48.3c0,0.1,0,0.2,0,0.2c0,0.1-0.1,0.1-0.1,0.2c-0.1,0.1-0.1,0.1-0.2,0.1
		C183,350,182.9,350,182.8,350L182.8,350z"/>
	<path class="st7" d="M174.1,409.5L174.1,409.5c-0.2,0-0.2,0-0.3-0.1c-0.1,0-0.1-0.1-0.2-0.2c0-0.1-0.1-0.1-0.1-0.2
		c0-0.1,0-0.2,0-0.2l7.4-49.5c0-0.1,0-0.2,0.1-0.2c0-0.1,0.1-0.1,0.2-0.2c0.1,0,0.1-0.1,0.2-0.1c0.1,0,0.2,0,0.2,0
		c0.1,0,0.2,0,0.2,0.1c0.1,0,0.1,0.1,0.2,0.2c0,0.1,0.1,0.1,0.1,0.2c0,0.1,0,0.2,0,0.2l-7.4,49.5c0,0.1-0.1,0.3-0.2,0.4
		C174.4,409.4,174.2,409.5,174.1,409.5z"/>
	<path class="st7" d="M154.3,477.6c0,0-0.1,0-0.1,0c-0.1,0-0.2-0.1-0.2-0.1c-0.1,0-0.1-0.1-0.2-0.2c0-0.1-0.1-0.1-0.1-0.2
		c0-0.1,0-0.2,0-0.2l14.9-58.2c0-0.2,0.1-0.3,0.3-0.4c0.1-0.1,0.3-0.1,0.5-0.1c0.2,0,0.3,0.1,0.4,0.3c0.1,0.1,0.1,0.3,0.1,0.5
		l-14.9,58.2c0,0.1-0.1,0.3-0.2,0.3C154.6,477.6,154.4,477.6,154.3,477.6z"/>
	<path class="st7" d="M272.4,349.8c-0.1,0-0.3,0-0.4-0.1c-0.1-0.1-0.2-0.2-0.2-0.3l-23.1-98.2c0-0.2,0-0.3,0.1-0.5
		c0.1-0.1,0.2-0.2,0.4-0.3c0.2,0,0.3,0,0.5,0.1c0.1,0.1,0.2,0.2,0.3,0.4L273,349c0,0.2,0,0.3-0.1,0.5c-0.1,0.1-0.2,0.2-0.4,0.3
		L272.4,349.8z"/>
	<path class="st7" d="M245.2,240.8c-0.1,0-0.2,0-0.3-0.1c-0.1,0-0.1-0.1-0.2-0.1l-66.3-74.9c-0.1-0.1-0.2-0.3-0.2-0.4
		c0-0.2,0.1-0.3,0.2-0.4c0.1-0.1,0.1-0.1,0.2-0.1s0.2,0,0.2,0s0.2,0,0.2,0s0.1,0.1,0.2,0.1l66.3,75c0.1,0.1,0.2,0.3,0.2,0.4
		c0,0.2-0.1,0.3-0.2,0.4C245.6,240.7,245.4,240.8,245.2,240.8z"/>
	<path class="st7" d="M244.1,498.9c-0.1,0-0.2,0-0.3-0.1c-0.1,0-0.2-0.1-0.2-0.2c-0.1-0.1-0.1-0.3-0.1-0.5c0-0.2,0.1-0.3,0.3-0.4
		l40.7-25.8c0.1-0.1,0.3-0.1,0.5-0.1c0.2,0,0.3,0.1,0.4,0.3c0,0.1,0.1,0.1,0.1,0.2c0,0.1,0,0.2,0,0.2c0,0.1-0.1,0.2-0.1,0.2
		c0,0.1-0.1,0.1-0.2,0.2l-40.7,25.8C244.3,498.9,244.2,498.9,244.1,498.9z"/>
	<path class="st7" d="M357,315L357,315c-0.3,0-0.4-0.1-0.5-0.2c-0.1-0.1-0.1-0.3-0.1-0.5l12.1-74.3c0-0.2,0.1-0.3,0.3-0.4
		c0.1-0.1,0.3-0.1,0.5-0.1s0.3,0.1,0.4,0.3c0.1,0.1,0.1,0.3,0.1,0.5l-12.1,74.3c0,0.1-0.1,0.3-0.2,0.4C357.3,315,357.2,315,357,315z
		"/>
	<path class="st7" d="M365.1,227.9c-0.1,0-0.3,0-0.4-0.1l-36-25.2c-0.1-0.1-0.2-0.2-0.2-0.4c0-0.1,0-0.3,0.1-0.4
		c0.1-0.1,0.2-0.2,0.4-0.2c0.1,0,0.3,0,0.4,0.1l36.1,25.2c0.1,0.1,0.2,0.2,0.2,0.3c0,0.1,0,0.3,0,0.4c0,0.1-0.1,0.2-0.2,0.3
		C365.4,227.9,365.2,227.9,365.1,227.9L365.1,227.9z"/>
	<path class="st7" d="M309.9,189.1c-0.1,0-0.3,0-0.4-0.1L261,154.1c-0.1,0-0.1-0.1-0.2-0.2c0-0.1-0.1-0.1-0.1-0.2c0-0.1,0-0.2,0-0.2
		c0-0.1,0.1-0.2,0.1-0.2c0.1-0.1,0.2-0.2,0.4-0.2c0.2,0,0.3,0,0.5,0.1l48.5,34.9c0.1,0.1,0.2,0.2,0.2,0.4c0,0.2,0,0.3-0.1,0.5
		c-0.1,0.1-0.1,0.1-0.2,0.2C310.1,189.1,310,189.1,309.9,189.1z"/>
	<path class="st7" d="M366.1,383.1c-0.1,0-0.3-0.1-0.4-0.1c-0.1-0.1-0.2-0.2-0.2-0.4l-7.8-49.9c0-0.2,0-0.3,0.1-0.5s0.2-0.2,0.4-0.3
		s0.3,0,0.5,0.1c0.1,0.1,0.2,0.2,0.3,0.4l7.7,49.9c0,0.2,0,0.3-0.1,0.5C366.5,383,366.3,383.1,366.1,383.1L366.1,383.1z"/>
	<path class="st7" d="M323.3,383.1c-0.1,0-0.2,0-0.3-0.1c-0.1,0-0.1-0.1-0.2-0.2c-0.1-0.1-0.1-0.1-0.1-0.2c0-0.1,0-0.2,0-0.2
		c0-0.1,0-0.2,0.1-0.2l27.1-49.7c0-0.1,0.1-0.1,0.2-0.2c0.1-0.1,0.1-0.1,0.2-0.1c0.1,0,0.2,0,0.2,0c0.1,0,0.2,0,0.2,0.1
		c0.1,0,0.1,0.1,0.2,0.2c0.1,0.1,0.1,0.1,0.1,0.2c0,0.1,0,0.2,0,0.2c0,0.1,0,0.2-0.1,0.2l-27.2,49.7c-0.1,0.1-0.1,0.2-0.2,0.2
		C323.6,383.1,323.5,383.1,323.3,383.1z"/>
	<path class="st7" d="M317.8,384.1c-0.1,0-0.2,0-0.3-0.1l-34.8-20c-0.1-0.1-0.2-0.2-0.3-0.4c0-0.2,0-0.3,0.1-0.5
		c0-0.1,0.1-0.1,0.2-0.2c0.1-0.1,0.1-0.1,0.2-0.1c0.1,0,0.2,0,0.2,0s0.2,0,0.2,0.1l34.8,20c0.1,0.1,0.2,0.2,0.3,0.4
		c0,0.2,0,0.3-0.1,0.5c-0.1,0.1-0.1,0.2-0.2,0.2C318,384.1,317.9,384.1,317.8,384.1z"/>
	<path class="st7" d="M362.3,387.8l-37.2-1.4c-0.2,0-0.3-0.1-0.4-0.2c-0.1-0.1-0.2-0.3-0.2-0.4c0-0.1,0-0.2,0.1-0.2
		c0-0.1,0.1-0.1,0.1-0.2c0.1-0.1,0.1-0.1,0.2-0.1c0.1,0,0.2,0,0.2,0l37.2,1.4c0.2,0,0.3,0.1,0.4,0.2c0.1,0.1,0.2,0.3,0.2,0.4
		s-0.1,0.3-0.2,0.4C362.6,387.8,362.5,387.8,362.3,387.8L362.3,387.8z"/>
	<path class="st7" d="M303.4,438.9c-0.1,0-0.1,0-0.2,0c-0.1,0-0.1-0.1-0.2-0.1c-0.1-0.1-0.1-0.1-0.1-0.2c0-0.1-0.1-0.2-0.1-0.2
		c0-0.1,0-0.2,0-0.2l16.4-48.7c0.1-0.2,0.2-0.3,0.3-0.4c0.1-0.1,0.3-0.1,0.5,0c0.1,0,0.2,0.1,0.2,0.1c0.1,0.1,0.1,0.1,0.2,0.2
		c0,0.1,0.1,0.2,0.1,0.2c0,0.1,0,0.2,0,0.2L304,438.5c0,0.1-0.1,0.2-0.2,0.3C303.7,438.9,303.6,438.9,303.4,438.9z"/>
	<path class="st7" d="M236.4,500.1l-73.6-5.2c-0.1,0-0.2,0-0.2-0.1c-0.1,0-0.1-0.1-0.2-0.1c-0.1-0.1-0.1-0.1-0.1-0.2
		c0-0.1,0-0.2,0-0.2c0-0.2,0.1-0.3,0.2-0.4c0.1-0.1,0.3-0.2,0.4-0.2l73.5,5.2c0.1,0,0.2,0,0.2,0.1c0.1,0,0.1,0.1,0.2,0.1
		c0.1,0.1,0.1,0.1,0.1,0.2c0,0.1,0,0.2,0,0.2c0,0.2-0.1,0.3-0.2,0.4C236.7,500.1,236.6,500.1,236.4,500.1z"/>
	<path class="st7" d="M240.7,496.5c-0.1,0-0.2,0-0.2-0.1c-0.1,0-0.1-0.1-0.2-0.1c-0.1-0.1-0.1-0.1-0.1-0.2c0-0.1,0-0.2,0-0.2
		l2.1-50.6c0-0.2,0.1-0.3,0.2-0.4c0.1-0.1,0.3-0.2,0.4-0.2c0.2,0,0.3,0.1,0.4,0.2c0.1,0.1,0.2,0.3,0.2,0.4l-2.1,50.6
		c0,0.1,0,0.2-0.1,0.2c0,0.1-0.1,0.1-0.1,0.2c-0.1,0.1-0.1,0.1-0.2,0.1C240.9,496.5,240.8,496.5,240.7,496.5z"/>
	<path class="st7" d="M163.3,484.9c-0.1,0-0.3,0-0.4-0.1c-0.1-0.1-0.2-0.2-0.2-0.3c0-0.1,0-0.3,0-0.4c0.1-0.1,0.2-0.2,0.3-0.3
		l75.7-40.5c0.1,0,0.2-0.1,0.2-0.1c0.1,0,0.2,0,0.3,0c0.1,0,0.2,0.1,0.2,0.1s0.1,0.1,0.2,0.2c0,0.1,0.1,0.2,0.1,0.2
		c0,0.1,0,0.2,0,0.2c0,0.1-0.1,0.2-0.1,0.2c-0.1,0.1-0.1,0.1-0.2,0.1l-75.7,40.5C163.5,484.9,163.4,484.9,163.3,484.9z"/>
	<path class="st7" d="M245.4,436.4h-0.2c-0.1,0-0.1-0.1-0.2-0.1c-0.1-0.1-0.1-0.1-0.1-0.2c0-0.1-0.1-0.2-0.1-0.2c0-0.1,0-0.2,0-0.2
		l25.8-67.7c0.1-0.1,0.2-0.3,0.3-0.3c0.1-0.1,0.3-0.1,0.5,0c0.1,0,0.1,0.1,0.2,0.1c0.1,0.1,0.1,0.1,0.1,0.2c0,0.1,0.1,0.2,0.1,0.2
		c0,0.1,0,0.2,0,0.2L246,436.1c-0.1,0.1-0.1,0.2-0.2,0.3C245.7,436.4,245.5,436.4,245.4,436.4z"/>
	<path class="st7" d="M142.4,482.3c-0.1,0-0.2,0-0.3-0.1c-0.1-0.1-0.2-0.1-0.2-0.2l-46.7-80.9c-0.1-0.1-0.1-0.3-0.1-0.5
		c0-0.2,0.1-0.3,0.3-0.4c0.1-0.1,0.3-0.1,0.5-0.1c0.2,0,0.3,0.1,0.4,0.3l46.7,80.9c0.1,0.1,0.1,0.3,0.1,0.5c0,0.2-0.1,0.3-0.3,0.4
		C142.6,482.3,142.5,482.3,142.4,482.3z"/>
	<path class="st7" d="M87.5,396h-0.1L48,389.2c-0.1,0-0.2,0-0.2-0.1c-0.1,0-0.1-0.1-0.2-0.2c0-0.1-0.1-0.1-0.1-0.2
		c0-0.1,0-0.2,0-0.2c0-0.2,0.1-0.3,0.3-0.4c0.1-0.1,0.3-0.1,0.5-0.1l39.5,6.8c0.2,0,0.3,0.1,0.4,0.3c0.1,0.1,0.1,0.3,0.1,0.5
		c0,0.1-0.1,0.3-0.2,0.4C87.8,395.9,87.7,396,87.5,396z"/>
	<path class="st7" d="M93,391.9h-0.1c-0.1,0-0.2-0.1-0.2-0.1c-0.1,0-0.1-0.1-0.2-0.2c0-0.1-0.1-0.1-0.1-0.2c0-0.1,0-0.2,0-0.2
		l9.5-40.6c0-0.2,0.1-0.3,0.3-0.4c0.1-0.1,0.3-0.1,0.5-0.1c0.2,0,0.3,0.1,0.4,0.3c0.1,0.1,0.1,0.3,0.1,0.5l-9.5,40.6
		c0,0.1-0.1,0.3-0.2,0.3C93.2,391.9,93.1,391.9,93,391.9z"/>
	<path class="st7" d="M31.8,378.4c-0.1,0-0.2,0-0.3-0.1c-0.1-0.1-0.2-0.2-0.2-0.3L7.1,322.5c0-0.1-0.1-0.2-0.1-0.2
		c0-0.1,0-0.2,0-0.3c0-0.1,0.1-0.2,0.1-0.2c0.1-0.1,0.1-0.1,0.2-0.2c0.1,0,0.2-0.1,0.3-0.1c0.1,0,0.2,0,0.3,0.1s0.2,0.1,0.2,0.2
		c0.1,0.1,0.1,0.1,0.1,0.2l24.2,55.5c0,0.1,0.1,0.2,0.1,0.2c0,0.1,0,0.2,0,0.2c0,0.1-0.1,0.1-0.1,0.2c-0.1,0.1-0.1,0.1-0.2,0.1
		C32,378.3,31.9,378.4,31.8,378.4z"/>
	<path class="st7" d="M7.6,312c-0.1,0-0.2,0-0.3,0c-0.1,0-0.1-0.1-0.2-0.1c-0.1-0.1-0.1-0.1-0.1-0.2c0-0.1,0-0.2,0-0.2
		c0-0.1,0-0.2,0.1-0.2L45,232.6c0-0.1,0.1-0.1,0.2-0.2c0.1-0.1,0.1-0.1,0.2-0.1c0.1,0,0.2,0,0.3,0c0.1,0,0.2,0,0.2,0.1
		c0.1,0,0.1,0.1,0.2,0.1c0.1,0.1,0.1,0.1,0.1,0.2c0,0.1,0,0.2,0,0.2c0,0.1,0,0.2-0.1,0.2l-38,78.4c0,0.1-0.1,0.2-0.2,0.3
		C7.9,312,7.8,312,7.6,312z"/>
	<path class="st7" d="M11.7,316.1c-0.2,0-0.3,0-0.5-0.1c-0.1-0.1-0.2-0.3-0.2-0.4c0-0.2,0-0.3,0.1-0.5c0.1-0.1,0.3-0.2,0.4-0.2
		l29.8-8.1c0.1,0,0.2,0,0.2,0c0.1,0,0.2,0,0.2,0.1c0.1,0,0.1,0.1,0.2,0.2c0.1,0.1,0.1,0.1,0.1,0.2c0,0.1,0,0.2,0,0.3
		c0,0.1,0,0.2-0.1,0.2c0,0.1-0.1,0.1-0.2,0.2c-0.1,0.1-0.1,0.1-0.2,0.1l-29.8,8.1H11.7z"/>
	<path class="st7" d="M97,339.1c-0.1,0-0.2,0-0.3-0.1l-46-29.8c-0.1,0-0.1-0.1-0.2-0.2c-0.1-0.1-0.1-0.1-0.1-0.2c0-0.1,0-0.2,0-0.3
		c0-0.1,0-0.2,0.1-0.2c0-0.1,0.1-0.1,0.2-0.2c0.1,0,0.1-0.1,0.2-0.1c0.1,0,0.2,0,0.2,0c0.1,0,0.2,0.1,0.2,0.1l46,29.8
		c0.1,0.1,0.2,0.2,0.3,0.4s0,0.3-0.1,0.5c-0.1,0.1-0.1,0.2-0.2,0.2C97.2,339.1,97.1,339.1,97,339.1z"/>
	<path class="st7" d="M49.6,305.2c-0.1,0-0.2,0-0.3-0.1c-0.1,0-0.2-0.1-0.2-0.2c0-0.1-0.1-0.1-0.1-0.2c0-0.1,0-0.2,0-0.2
		c0-0.1,0.1-0.2,0.1-0.2c0-0.1,0.1-0.1,0.2-0.2l40.6-25.7c0.1-0.1,0.1-0.1,0.2-0.1c0.1,0,0.2,0,0.3,0c0.1,0,0.2,0,0.2,0.1
		c0.1,0,0.1,0.1,0.2,0.2c0,0.1,0.1,0.2,0.1,0.2c0,0.1,0,0.2,0,0.3c0,0.1-0.1,0.2-0.1,0.2c-0.1,0.1-0.1,0.1-0.2,0.2l-40.6,25.7
		C49.8,305.2,49.7,305.2,49.6,305.2z"/>
	<path class="st7" d="M97,274.1c-0.2,0-0.3-0.1-0.5-0.2c-0.1-0.1-0.1-0.1-0.1-0.2c0-0.1,0-0.2,0-0.2s0-0.2,0-0.2
		c0-0.1,0.1-0.1,0.1-0.2l16.3-14.9c0.1-0.1,0.3-0.2,0.4-0.2s0.3,0.1,0.4,0.2c0.1,0.1,0.1,0.1,0.1,0.2s0,0.2,0,0.2s0,0.2,0,0.2
		s-0.1,0.1-0.1,0.2l-16.3,14.9C97.3,274,97.2,274.1,97,274.1z"/>
	<path class="st7" d="M70.7,216.5c-0.1,0-0.2,0-0.3-0.1c-0.1-0.1-0.2-0.2-0.2-0.3c0-0.1,0-0.2,0-0.2c0-0.1,0-0.2,0.1-0.2
		c0-0.1,0.1-0.1,0.1-0.2c0.1-0.1,0.1-0.1,0.2-0.1l37.9-14.9c0.2-0.1,0.3-0.1,0.5,0c0.2,0.1,0.3,0.2,0.3,0.3c0.1,0.2,0.1,0.3,0,0.5
		c-0.1,0.2-0.2,0.3-0.3,0.3l-37.9,14.9C70.8,216.5,70.7,216.5,70.7,216.5z"/>
	<path class="st7" d="M117.3,242.9c-0.2,0-0.3-0.1-0.4-0.2c-0.1-0.1-0.2-0.2-0.2-0.4l-4.1-37.9c0-0.1,0-0.2,0-0.2
		c0-0.1,0.1-0.2,0.1-0.2c0.1-0.1,0.1-0.1,0.2-0.2c0.1,0,0.2-0.1,0.2-0.1c0.2,0,0.3,0,0.5,0.1c0.1,0.1,0.2,0.3,0.2,0.4l4.1,37.9
		c0,0.1,0,0.2,0,0.2c0,0.1-0.1,0.2-0.1,0.2c-0.1,0.1-0.1,0.1-0.2,0.2C117.6,242.9,117.5,242.9,117.3,242.9L117.3,242.9z"/>
	<path class="st7" d="M116,198.2c-0.1,0-0.3,0-0.4-0.1c-0.1-0.1-0.2-0.2-0.2-0.3c0-0.1,0-0.3,0-0.4c0-0.1,0.1-0.2,0.2-0.3l52.9-35.2
		c0.1-0.1,0.3-0.1,0.4-0.1c0.1,0,0.3,0.1,0.4,0.3c0.1,0.1,0.1,0.3,0.1,0.4c0,0.2-0.1,0.3-0.2,0.4l-52.9,35.2
		C116.2,198.2,116.1,198.3,116,198.2z"/>
	<path class="st7" d="M63.2,206.3c-0.1,0-0.3,0-0.4-0.1c-0.1-0.1-0.2-0.3-0.2-0.4c0-0.2,0-0.3,0.1-0.5l33.8-41.9
		c0.1-0.1,0.3-0.2,0.4-0.2c0.2,0,0.3,0,0.5,0.1c0.1,0.1,0.2,0.3,0.2,0.4c0,0.2,0,0.3-0.1,0.5l-33.9,42
		C63.5,206.3,63.4,206.3,63.2,206.3z"/>
	<path class="st7" d="M105.1,160.3c-0.2,0-0.3-0.1-0.4-0.2c-0.1-0.1-0.2-0.3-0.2-0.4c0-0.2,0.1-0.3,0.2-0.4c0.1-0.1,0.3-0.2,0.4-0.2
		l62.3-1.4c0.1,0,0.2,0,0.2,0c0.1,0,0.1,0.1,0.2,0.1c0.1,0.1,0.1,0.1,0.1,0.2c0,0.1,0.1,0.2,0.1,0.2c0,0.1,0,0.2,0,0.2
		c0,0.1-0.1,0.1-0.1,0.2c-0.1,0.1-0.1,0.1-0.2,0.1c-0.1,0-0.2,0.1-0.2,0.1L105.1,160.3L105.1,160.3z"/>
	<path class="st7" d="M183,157c-0.2,0-0.3-0.1-0.4-0.2c-0.1-0.1-0.2-0.2-0.2-0.4c0-0.1,0-0.2,0-0.2c0-0.1,0.1-0.2,0.1-0.2
		c0.1-0.1,0.1-0.1,0.2-0.2c0.1,0,0.2-0.1,0.2-0.1l69.1-5.4c0.1,0,0.2,0,0.2,0c0.1,0,0.1,0.1,0.2,0.1s0.1,0.1,0.2,0.2
		c0,0.1,0.1,0.2,0.1,0.2c0,0.1,0,0.2,0,0.2s-0.1,0.1-0.1,0.2c-0.1,0.1-0.1,0.1-0.2,0.2c-0.1,0-0.2,0.1-0.2,0.1L183,157L183,157z"/>
	<path class="st7" d="M278.5,349.9c-0.1,0-0.2,0-0.2,0c-0.1-0.1-0.3-0.2-0.3-0.3c-0.1-0.2-0.1-0.3,0-0.5l25.7-58.2
		c0-0.1,0.1-0.2,0.1-0.2c0.1-0.1,0.1-0.1,0.2-0.2c0.1,0,0.2-0.1,0.3-0.1c0.1,0,0.2,0,0.3,0.1c0.1,0,0.2,0.1,0.2,0.2
		c0.1,0.1,0.1,0.1,0.1,0.2c0,0.1,0,0.2,0,0.3c0,0.1,0,0.2-0.1,0.2l-25.7,58.2c-0.1,0.1-0.1,0.2-0.2,0.2
		C278.7,349.9,278.6,349.9,278.5,349.9z"/>
	<path class="st7" d="M306.9,283.6L306.9,283.6c-0.2,0-0.4-0.1-0.5-0.2c-0.1-0.1-0.1-0.3-0.1-0.5l9.5-74.5c0-0.1,0-0.2,0.1-0.2
		c0-0.1,0.1-0.1,0.2-0.2c0.1-0.1,0.1-0.1,0.2-0.1c0.1,0,0.2,0,0.2,0c0.2,0,0.3,0.1,0.4,0.2c0.1,0.1,0.1,0.3,0.1,0.5l-9.5,74.5
		c0,0.1-0.1,0.3-0.2,0.4C307.2,283.5,307.1,283.6,306.9,283.6z"/>
	<path class="st7" d="M105.8,335.1L105.8,335.1c-0.2,0-0.2,0-0.3-0.1c-0.1,0-0.1-0.1-0.2-0.2c0-0.1-0.1-0.1-0.1-0.2
		c0-0.1,0-0.2,0-0.2l11.8-75.3c0-0.2,0.1-0.3,0.2-0.4c0.1-0.1,0.3-0.1,0.5-0.1c0.2,0,0.3,0.1,0.4,0.2c0.1,0.1,0.1,0.3,0.1,0.5
		l-11.8,75.3c0,0.1-0.1,0.3-0.2,0.4C106.1,335.1,106,335.1,105.8,335.1z"/>
	<path class="st7" d="M283.9,452.8c-0.1,0-0.1,0-0.2,0l-35.2-9.5c-0.1,0-0.2-0.1-0.2-0.1c-0.1,0-0.1-0.1-0.2-0.2
		c0-0.1-0.1-0.1-0.1-0.2c0-0.1,0-0.2,0-0.2c0-0.2,0.1-0.3,0.3-0.4c0.1-0.1,0.3-0.1,0.5-0.1l35.2,9.4c0.1,0,0.2,0.1,0.2,0.1
		c0.1,0,0.1,0.1,0.2,0.2c0,0.1,0.1,0.1,0.1,0.2c0,0.1,0,0.2,0,0.2c0,0.1-0.1,0.3-0.2,0.4C284.2,452.8,284,452.8,283.9,452.8z"/>
	<path class="st7" d="M84.8,463.7c-0.2,0-0.3-0.1-0.4-0.2c-0.1-0.1-0.2-0.3-0.1-0.4l5.4-62.3c0-0.2,0.1-0.3,0.2-0.4
		c0.1-0.1,0.3-0.2,0.4-0.1c0.1,0,0.2,0,0.2,0.1c0.1,0,0.1,0.1,0.2,0.2c0.1,0.1,0.1,0.1,0.1,0.2c0,0.1,0,0.2,0,0.2l-5.4,62.3
		c0,0.1,0,0.2-0.1,0.2c0,0.1-0.1,0.1-0.2,0.2c-0.1,0.1-0.1,0.1-0.2,0.1C85,463.7,84.9,463.7,84.8,463.7z"/>
	<path class="st7" d="M347.5,318.8c-0.1,0-0.3,0-0.4-0.1l-36.6-28.5c-0.1-0.1-0.2-0.3-0.2-0.4c0-0.2,0-0.3,0.1-0.5
		c0-0.1,0.1-0.1,0.2-0.2c0.1,0,0.1-0.1,0.2-0.1c0.1,0,0.2,0,0.2,0c0.1,0,0.2,0.1,0.2,0.1l36.6,28.5c0.1,0.1,0.2,0.3,0.2,0.4
		c0,0.2,0,0.3-0.1,0.5c-0.1,0.1-0.1,0.1-0.2,0.2C347.7,318.8,347.6,318.8,347.5,318.8z"/>
	<path class="st7" d="M111.9,196.9c-0.1,0-0.3,0-0.4-0.1c-0.1-0.1-0.2-0.2-0.2-0.3l-9.5-31.2c0-0.2,0-0.3,0.1-0.5
		c0.1-0.1,0.2-0.3,0.4-0.3c0.2,0,0.3,0,0.5,0.1c0.1,0.1,0.3,0.2,0.3,0.4l9.5,31.2c0,0.2,0,0.3-0.1,0.5c-0.1,0.1-0.2,0.3-0.4,0.3
		L111.9,196.9z"/>
	<path class="st7" d="M179,284.4c-0.1,0-0.3,0-0.4-0.1s-0.2-0.2-0.2-0.4L166,213.2c0-0.1,0-0.2,0-0.2c0-0.1,0-0.2,0.1-0.2
		c0-0.1,0.1-0.1,0.2-0.2c0.1,0,0.1-0.1,0.2-0.1c0.2,0,0.3,0,0.5,0.1c0.1,0.1,0.2,0.2,0.3,0.4l12.4,70.6c0,0.1,0,0.2,0,0.2
		c0,0.1,0,0.2-0.1,0.2c0,0.1-0.1,0.1-0.2,0.2c-0.1,0-0.1,0.1-0.2,0.1L179,284.4z"/>
</g>
</svg>
