<svg width="24" height="25" viewBox="0 0 24 25" fill="none" xmlns="http://www.w3.org/2000/svg">
<path fill-rule="evenodd" clip-rule="evenodd" d="M14.5981 3.25C13.4434 1.25 10.5566 1.25 9.40192 3.25L1.60769 16.75C0.452993 18.75 1.89637 21.25 4.20577 21.25H19.7942C22.1036 21.25 23.547 18.75 22.3923 16.75L14.5981 3.25ZM11.0619 16.7963C10.9379 16.9818 10.8718 17.1999 10.8718 17.4231C10.8718 17.7223 10.9906 18.0093 11.2022 18.2208C11.4138 18.4324 11.7007 18.5513 12 18.5513C12.2231 18.5513 12.4412 18.4851 12.6268 18.3611C12.8123 18.2372 12.9569 18.061 13.0423 17.8548C13.1277 17.6487 13.15 17.4218 13.1065 17.203C13.063 16.9841 12.9555 16.7831 12.7977 16.6253C12.6399 16.4675 12.4389 16.3601 12.2201 16.3166C12.0012 16.273 11.7744 16.2954 11.5682 16.3808C11.3621 16.4661 11.1859 16.6108 11.0619 16.7963ZM10.8718 12.9103L10.8718 8.39744C10.8718 8.09822 10.9906 7.81126 11.2022 7.59968C11.4138 7.3881 11.7008 7.26923 12 7.26923C12.2992 7.26923 12.5862 7.3881 12.7977 7.59968C13.0093 7.81126 13.1282 8.09822 13.1282 8.39744V12.9103C13.1282 13.2095 13.0093 13.4964 12.7977 13.708C12.5862 13.9196 12.2992 14.0385 12 14.0385C11.7007 14.0385 11.4138 13.9196 11.2022 13.708C10.9906 13.4964 10.8718 13.2095 10.8718 12.9103Z" fill="#FF0000"/>
</svg>
