<svg width="73" height="21" viewBox="0 0 73 21" fill="none" xmlns="http://www.w3.org/2000/svg">
<path fill-rule="evenodd" clip-rule="evenodd" d="M0.883489 20.7093H15.8291L16.1226 20.4172V16.6251L15.8291 16.333H6.15883L5.86537 16.0409V12.833L6.15883 12.5409H15.2422L15.5357 12.2488V8.45667L15.2422 8.16457H6.15883L5.86537 7.87246V4.95667L6.15883 4.66457H15.8291L16.1226 4.37247V0.582102L15.8291 0.290001H0.883489L0.590027 0.580363V20.4172L0.883489 20.7093ZM33.7059 20.7093H36.3435L36.6352 20.4259V16.6338L31.3599 10.2006V9.91543L36.3435 4.37247V0.582102L36.0501 0.290001H33.4124L32.8202 0.580363L27.8436 6.7058H27.5501L22.5752 0.582102L21.9901 0.290001H19.3454L19.0519 0.580363V4.37247L24.0338 9.90848V10.2006L18.7585 16.6338V20.4172L19.0519 20.7093H21.6896L22.2748 20.4172L27.5501 13.4154H27.8436L33.1189 20.4172L33.7059 20.7093ZM44.8401 20.7093H40.1569L39.8652 20.4172V0.580363L40.1569 0.290001H44.847L45.1388 0.582102V20.4172L44.8401 20.7093ZM67.4069 20.7093H72.0936L72.3958 20.4172V0.582102L72.1023 0.290001H66.5335L66.2331 0.582102L60.9577 13.7093H60.6643L55.3889 0.582102L55.0954 0.290001H49.5266L49.2402 0.580363V20.4172L49.5266 20.7093H54.2168L54.5103 20.4172V11.0821H54.802L58.6135 20.4172L58.9052 20.7093H62.7167L63.0102 20.4172L66.82 11.0821H67.1134V20.4172L67.4069 20.7093Z" fill="#267EDC"/>
</svg>
