<svg width="64" height="64" viewBox="0 0 64 64" fill="none" xmlns="http://www.w3.org/2000/svg">
<circle cx="32" cy="32" r="32" fill="#C3C8CF"/>
<g clip-path="url(#clip0)">
<path d="M42.6667 24C42.1952 24 41.743 23.8127 41.4096 23.4793C41.0762 23.1459 40.8889 22.6937 40.8889 22.2222V18.6667C40.8889 18.1952 41.0762 17.743 41.4096 17.4096C41.743 17.0762 42.1952 16.8889 42.6667 16.8889C43.1382 16.8889 43.5903 17.0762 43.9237 17.4096C44.2571 17.743 44.4444 18.1952 44.4444 18.6667V22.2222C44.4444 22.6937 44.2571 23.1459 43.9237 23.4793C43.5903 23.8127 43.1382 24 42.6667 24ZM23.1111 22.2222V18.6667C23.1111 18.1952 22.9238 17.743 22.5904 17.4096C22.257 17.0762 21.8048 16.8889 21.3333 16.8889C20.8618 16.8889 20.4097 17.0762 20.0763 17.4096C19.7429 17.743 19.5556 18.1952 19.5556 18.6667V22.2222C19.5556 22.6937 19.7429 23.1459 20.0763 23.4793C20.4097 23.8127 20.8618 24 21.3333 24C21.8048 24 22.257 23.8127 22.5904 23.4793C22.9238 23.1459 23.1111 22.6937 23.1111 22.2222ZM33.2622 35.9289L34.5067 34.6667C35.1744 34.0029 35.5516 33.1015 35.5556 32.16V25.7778C35.5556 25.3063 35.3683 24.8541 35.0349 24.5207C34.7015 24.1873 34.2493 24 33.7778 24C33.3063 24 32.8541 24.1873 32.5207 24.5207C32.1873 24.8541 32 25.3063 32 25.7778V32.16L30.7378 33.4045C30.5711 33.5697 30.4389 33.7663 30.3486 33.983C30.2584 34.1996 30.2119 34.432 30.2119 34.6667C30.2119 34.9014 30.2584 35.1337 30.3486 35.3504C30.4389 35.567 30.5711 35.7636 30.7378 35.9289C30.903 36.0955 31.0997 36.2278 31.3163 36.318C31.5329 36.4083 31.7653 36.4548 32 36.4548C32.2347 36.4548 32.4671 36.4083 32.6837 36.318C32.9003 36.2278 33.097 36.0955 33.2622 35.9289ZM39.6978 44.4445C39.8264 44.2421 39.9128 44.0158 39.9517 43.7793C39.9906 43.5427 39.9813 43.3006 39.9242 43.0678C39.8672 42.8349 39.7636 42.6159 39.6198 42.4241C39.4759 42.2323 39.2947 42.0716 39.0872 41.9516C38.8796 41.8316 38.6499 41.7548 38.4118 41.7259C38.1738 41.697 37.9324 41.7165 37.7022 41.7833C37.4719 41.8501 37.2575 41.9628 37.0719 42.1146C36.8863 42.2664 36.7334 42.4542 36.6222 42.6667C36.1546 43.4791 35.4811 44.1538 34.6696 44.623C33.8582 45.0922 32.9374 45.3393 32 45.3393C31.0626 45.3393 30.1418 45.0922 29.3304 44.623C28.5189 44.1538 27.8454 43.4791 27.3778 42.6667C27.2666 42.4542 27.1137 42.2664 26.9281 42.1146C26.7425 41.9628 26.5281 41.8501 26.2978 41.7833C26.0676 41.7165 25.8262 41.697 25.5881 41.7259C25.3501 41.7548 25.1204 41.8316 24.9128 41.9516C24.7053 42.0716 24.5241 42.2323 24.3802 42.4241C24.2364 42.6159 24.1328 42.8349 24.0758 43.0678C24.0187 43.3006 24.0094 43.5427 24.0483 43.7793C24.0872 44.0158 24.1736 44.2421 24.3022 44.4445C25.0824 45.7956 26.2045 46.9176 27.5557 47.6977C28.907 48.4778 30.4397 48.8885 32 48.8885C33.5602 48.8885 35.093 48.4778 36.4442 47.6977C37.7955 46.9176 38.9176 45.7956 39.6978 44.4445Z" fill="white"/>
</g>
<defs>
<clipPath id="clip0">
<rect width="42.6667" height="42.6667" fill="white" transform="translate(10.6667 10.6667)"/>
</clipPath>
</defs>
</svg>
