<svg width="28" height="28" viewBox="0 0 28 28" fill="none" xmlns="http://www.w3.org/2000/svg">
<circle cx="14" cy="14" r="14" fill="white"/>
<path fill-rule="evenodd" clip-rule="evenodd" d="M10.3812 13.1554L11.2785 14.7096L17.2698 11.2506L17.4933 11.3113L17.0897 14.0115L17.0305 14.2354L12.9106 16.614L12.9112 16.6141L12.5115 16.8449L12.5121 16.846L9.96762 18.315L9.96701 18.314L6.10253 20.5451L5.87899 20.4844L6.28261 17.7842L6.34179 17.5603L8.34793 16.4021L8.34736 16.402L8.73407 16.1787L6.61254 12.5041L6.67229 12.2811L17.9712 5.7577L18.1954 5.81669L17.7821 8.50556L17.7263 8.72624L10.441 12.9324L10.3812 13.1554ZM10.5154 19.2638L12.162 22.1158L12.385 22.1756L21.65 16.8264L21.7135 16.6013L22.1481 13.9001L21.927 13.8393L13.7052 18.5861L13.4823 18.5264L13.0598 17.7947L10.5154 19.2638Z" fill="#267EDC"/>
</svg>
