<svg width="34" height="31" viewBox="0 0 34 31" fill="none" xmlns="http://www.w3.org/2000/svg">
<path fill-rule="evenodd" clip-rule="evenodd" d="M12.3708 12.6862L13.7666 15.1039L23.0863 9.72314L23.434 9.81759L22.8062 14.0179L22.7141 14.3662L16.3055 18.0663L16.3063 18.0664L15.6845 18.4254L15.6855 18.4271L11.7274 20.7123L11.7265 20.7106L5.71504 24.1813L5.36731 24.0869L5.99517 19.8866L6.08723 19.5382L9.20789 17.7365L9.207 17.7364L9.80856 17.3891L6.5084 11.673L6.60133 11.3262L24.1774 1.17864L24.5263 1.2704L23.8833 5.45308L23.7965 5.79637L12.4637 12.3394L12.3708 12.6862ZM12.5795 22.1881L15.1409 26.6246L15.4877 26.7175L29.9 18.3966L29.9987 18.0464L30.6748 13.8446L30.3309 13.75L17.5415 21.134L17.1946 21.041L16.5375 19.9029L12.5795 22.1881Z" fill="#2D323B"/>
</svg>
