<svg width="470" height="89" viewBox="0 0 470 89" fill="none" xmlns="http://www.w3.org/2000/svg">
<path d="M59.28 35.4C59.28 14.28 49.68 1.8 25.68 1.8H1.68L0.72 2.75999V68.04L1.68 69H25.68C49.68 69 59.28 56.52 59.28 35.4ZM42 35.4C42 50.76 37.2 54.6 26.64 54.6H18.96L18 53.64V17.16L18.96 16.2H26.64C37.2 16.2 42 20.04 42 35.4ZM110.156 68.04V39.24C110.156 26.76 104.396 20.04 88.0763 20.04C72.7163 20.04 66.9563 27.72 66.9563 35.4L67.9163 36.36H81.3563L82.3163 35.4C83.2763 32.52 86.1562 32.52 88.0763 32.52C91.9163 32.52 93.8363 33.48 93.8363 37.32V38.28L92.8763 39.24C92.8763 39.24 89.9963 38.28 84.2363 38.28C76.5563 38.28 64.0763 40.2 64.0763 54.6C64.0763 64.2 70.7963 69.96 81.3563 69.96C89.0363 69.96 92.8763 66.12 92.8763 66.12H93.8363L94.7963 68.04L95.7563 69H109.196L110.156 68.04ZM93.8363 50.76V51.72C93.8363 55.56 89.9963 57.48 86.1562 57.48C83.2763 57.48 80.3963 56.52 80.3963 53.64C80.3963 50.76 82.3163 48.84 87.1163 48.84C90.9563 48.84 92.8763 49.8 92.8763 49.8L93.8363 50.76ZM168.24 45C168.24 29.64 159.6 20.04 147.12 20.04C142.32 20.04 137.52 21.96 135.6 24.84H134.64L133.68 21.96L132.72 21H119.28L118.32 21.96V87.24L119.28 88.2H133.68L134.64 87.24V65.16H135.6C137.52 68.04 142.32 69.96 147.12 69.96C159.6 69.96 168.24 60.36 168.24 45ZM151.92 45C151.92 53.64 148.08 56.52 143.28 56.52C138.48 56.52 134.64 53.64 134.64 45C134.64 36.36 138.48 33.48 143.28 33.48C148.08 33.48 151.92 36.36 151.92 45ZM224.396 45C224.396 29.64 215.756 20.04 203.276 20.04C198.476 20.04 193.676 21.96 191.756 24.84H190.796L189.836 21.96L188.876 21H175.436L174.476 21.96V87.24L175.436 88.2H189.836L190.796 87.24V65.16H191.756C193.676 68.04 198.476 69.96 203.276 69.96C215.756 69.96 224.396 60.36 224.396 45ZM208.076 45C208.076 53.64 204.236 56.52 199.436 56.52C194.636 56.52 190.796 53.64 190.796 45C190.796 36.36 194.636 33.48 199.436 33.48C204.236 33.48 208.076 36.36 208.076 45ZM282.953 50.76C282.953 37.32 273.353 32.52 259.913 30.6C246.473 28.68 241.673 26.76 241.673 19.08C241.673 13.32 246.473 9.48 255.113 9.48C267.593 9.48 271.433 13.32 271.433 21L272.393 21.96H280.073L281.033 21C281.033 6.6 270.473 0.839996 256.073 0.839996C238.793 0.839996 232.073 10.44 232.073 19.08C232.073 30.6 240.713 36.36 254.153 38.28C267.593 40.2 273.353 42.12 273.353 50.76C273.353 58.44 266.633 61.32 257.993 61.32C246.473 61.32 239.753 57.48 239.753 47.88L238.793 46.92H231.113L230.153 47.88C230.153 62.28 240.713 69.96 257.033 69.96C275.273 69.96 282.953 61.32 282.953 50.76ZM359.741 68.04V39.24C359.741 28.68 356.861 20.04 343.421 20.04C336.701 20.04 331.901 22.92 329.021 26.76H328.061C326.141 23.88 323.261 20.04 315.581 20.04C308.861 20.04 305.021 22.92 303.101 25.8H302.141L301.181 21.96L300.221 21H293.501L292.541 21.96V68.04L293.501 69H301.181L302.141 68.04V41.16C302.141 31.56 307.901 28.68 312.701 28.68C320.381 28.68 321.341 33.48 321.341 39.24V68.04L322.301 69H329.981L330.941 68.04V41.16C330.941 33.48 334.781 28.68 341.501 28.68C349.181 28.68 350.141 33.48 350.141 39.24V68.04L351.101 69H358.781L359.741 68.04ZM379.86 12.36V4.68L378.9 3.72H371.22L370.26 4.68V12.36L371.22 13.32H378.9L379.86 12.36ZM379.86 68.04V21.96L378.9 21H371.22L370.26 21.96V68.04L371.22 69H378.9L379.86 68.04ZM418.234 68.04V61.32L417.274 60.36H409.594C407.674 60.36 405.754 59.4 405.754 56.52V30.6L406.714 29.64H417.274L418.234 28.68V21.96L417.274 21H406.714L405.754 20.04V11.4L404.794 10.44H397.114L396.154 11.4V20.04L395.194 21H388.474L387.514 21.96V28.68L388.474 29.64H395.194L396.154 30.6V56.52C396.154 65.16 402.874 69 409.594 69H417.274L418.234 68.04ZM469.103 68.04V40.2C469.103 29.64 465.263 20.04 450.863 20.04C442.223 20.04 438.383 25.8 438.383 25.8H437.423V2.75999L436.463 1.8H428.783L427.823 2.75999V68.04L428.783 69H436.463L437.423 68.04V44.04C437.423 32.52 442.223 28.68 449.903 28.68C457.583 28.68 459.503 34.44 459.503 40.2V68.04L460.463 69H468.143L469.103 68.04Z" fill="#246fc7"/>
</svg>
