<svg width="372" height="88" viewBox="0 0 372 88" fill="none" xmlns="http://www.w3.org/2000/svg">
<path d="M59.28 34.4C59.28 13.28 49.68 0.799995 25.68 0.799995H1.68L0.72 1.75999V67.04L1.68 68H25.68C49.68 68 59.28 55.52 59.28 34.4ZM42 34.4C42 49.76 37.2 53.6 26.64 53.6H18.96L18 52.64V16.16L18.96 15.2H26.64C37.2 15.2 42 19.04 42 34.4ZM110.156 67.04V38.24C110.156 25.76 104.396 19.04 88.0763 19.04C72.7163 19.04 66.9563 26.72 66.9563 34.4L67.9163 35.36H81.3563L82.3163 34.4C83.2763 31.52 86.1562 31.52 88.0763 31.52C91.9163 31.52 93.8363 32.48 93.8363 36.32V37.28L92.8763 38.24C92.8763 38.24 89.9963 37.28 84.2363 37.28C76.5563 37.28 64.0763 39.2 64.0763 53.6C64.0763 63.2 70.7963 68.96 81.3563 68.96C89.0363 68.96 92.8763 65.12 92.8763 65.12H93.8363L94.7963 67.04L95.7563 68H109.196L110.156 67.04ZM93.8363 49.76V50.72C93.8363 54.56 89.9963 56.48 86.1562 56.48C83.2763 56.48 80.3963 55.52 80.3963 52.64C80.3963 49.76 82.3163 47.84 87.1163 47.84C90.9563 47.84 92.8763 48.8 92.8763 48.8L93.8363 49.76ZM168.24 44C168.24 28.64 159.6 19.04 147.12 19.04C142.32 19.04 137.52 20.96 135.6 23.84H134.64L133.68 20.96L132.72 20H119.28L118.32 20.96V86.24L119.28 87.2H133.68L134.64 86.24V64.16H135.6C137.52 67.04 142.32 68.96 147.12 68.96C159.6 68.96 168.24 59.36 168.24 44ZM151.92 44C151.92 52.64 148.08 55.52 143.28 55.52C138.48 55.52 134.64 52.64 134.64 44C134.64 35.36 138.48 32.48 143.28 32.48C148.08 32.48 151.92 35.36 151.92 44ZM224.396 44C224.396 28.64 215.756 19.04 203.276 19.04C198.476 19.04 193.676 20.96 191.756 23.84H190.796L189.836 20.96L188.876 20H175.436L174.476 20.96V86.24L175.436 87.2H189.836L190.796 86.24V64.16H191.756C193.676 67.04 198.476 68.96 203.276 68.96C215.756 68.96 224.396 59.36 224.396 44ZM208.076 44C208.076 52.64 204.236 55.52 199.436 55.52C194.636 55.52 190.796 52.64 190.796 44C190.796 35.36 194.636 32.48 199.436 32.48C204.236 32.48 208.076 35.36 208.076 44ZM283.913 48.8C283.913 40.16 279.113 35.36 273.353 33.44V32.48C278.153 30.56 281.993 25.76 281.993 19.04C281.993 5.6 272.393 0.799995 261.833 0.799995H234.953L233.993 1.75999V67.04L234.953 68H263.753C274.312 68 283.913 63.2 283.913 48.8ZM272.393 19.04C272.393 26.72 268.553 28.64 260.873 28.64H244.553L243.593 27.68V10.4L244.553 9.44H259.913C268.553 9.44 272.393 11.36 272.393 19.04ZM274.312 48.8C274.312 56.48 270.473 59.36 262.793 59.36H244.553L243.593 58.4V38.24L244.553 37.28H260.873C270.473 37.28 274.312 40.16 274.312 48.8ZM290.599 44C290.599 59.36 299.239 68.96 313.639 68.96C328.039 68.96 336.679 59.36 336.679 44C336.679 28.64 328.039 19.04 313.639 19.04C299.239 19.04 290.599 28.64 290.599 44ZM300.199 44C300.199 33.44 304.999 27.68 313.639 27.68C322.279 27.68 327.079 33.44 327.079 44C327.079 54.56 322.279 60.32 313.639 60.32C304.999 60.32 300.199 54.56 300.199 44ZM371.265 67.04V60.32L370.305 59.36H362.625C360.705 59.36 358.785 58.4 358.785 55.52V29.6L359.745 28.64H370.305L371.265 27.68V20.96L370.305 20H359.745L358.785 19.04V10.4L357.825 9.44H350.145L349.185 10.4V19.04L348.225 20H341.505L340.545 20.96V27.68L341.505 28.64H348.225L349.185 29.6V55.52C349.185 64.16 355.905 68 362.625 68H370.305L371.265 67.04Z" fill="#267EDC"/>
</svg>
