<svg width="126" height="126" viewBox="0 0 126 126" fill="none" xmlns="http://www.w3.org/2000/svg">
<path d="M64.7482 116.739C65.94 113.752 66.3819 110.519 66.0353 107.322C65.6888 104.124 64.5643 101.061 62.7603 98.3987C60.9562 95.7365 58.5274 93.5568 55.6864 92.0501C52.8453 90.5435 49.6784 89.7557 46.4625 89.7557C43.2466 89.7557 40.0797 90.5435 37.2386 92.0501C34.3976 93.5568 31.9688 95.7365 30.1647 98.3987C28.3607 101.061 27.2362 104.124 26.8896 107.322C26.5431 110.519 26.985 113.752 28.1767 116.739H64.7482Z" fill="#CFE6FF"/>
<path d="M40.7137 116.739C40.8641 115.897 40.9431 115.043 40.95 114.187C40.95 110.219 39.3736 106.413 36.5676 103.607C33.7616 100.801 29.9558 99.225 25.9875 99.225C22.0192 99.225 18.2134 100.801 15.4074 103.607C12.6014 106.413 11.025 110.219 11.025 114.187C11.0319 115.043 11.1109 115.897 11.2612 116.739H40.7137Z" fill="#CFE6FF"/>
<path d="M96.516 116.739C97.4552 114.466 97.8196 111.996 97.577 109.549C97.3343 107.101 96.4921 104.751 95.1248 102.707C93.7574 100.663 91.9073 98.9867 89.7379 97.8278C87.5686 96.6689 85.147 96.0626 82.6875 96.0626C80.228 96.0626 77.8064 96.6689 75.6371 97.8278C73.4678 98.9867 71.6176 100.663 70.2502 102.707C68.8829 104.751 68.0407 107.101 67.798 109.549C67.5554 111.996 67.9198 114.466 68.859 116.739H96.516Z" fill="#CFE6FF"/>
<path d="M104.17 116.739C105.706 114.9 106.686 112.661 106.995 110.285C107.304 107.909 106.929 105.494 105.913 103.324C104.898 101.153 103.285 99.3175 101.264 98.0312C99.2424 96.745 96.896 96.0618 94.5 96.0618C92.104 96.0618 89.7576 96.745 87.7361 98.0312C85.7145 99.3175 84.1016 101.153 83.0866 103.324C82.0715 105.494 81.6963 107.909 82.005 110.285C82.3137 112.661 83.2935 114.9 84.8295 116.739H104.17Z" fill="#CFE6FF"/>
<path d="M61.425 116.739V116.55C61.425 111.537 59.4338 106.73 55.8893 103.186C52.3449 99.6413 47.5376 97.65 42.525 97.65C37.5124 97.65 32.7051 99.6413 29.1607 103.186C25.6162 106.73 23.625 111.537 23.625 116.55C23.625 116.55 23.625 116.676 23.625 116.739H61.425Z" fill="#B1D4F8"/>
<path d="M78.75 116.739V116.55C78.75 113.626 77.5885 110.822 75.5209 108.754C73.4533 106.687 70.649 105.525 67.725 105.525C64.801 105.525 61.9967 106.687 59.9292 108.754C57.8616 110.822 56.7 113.626 56.7 116.55C56.7 116.55 56.7 116.676 56.7 116.739H78.75Z" fill="#B1D4F8"/>
<path d="M111.825 116.739V116.55C111.825 111.537 109.834 106.73 106.289 103.186C102.745 99.6413 97.9376 97.65 92.925 97.65C87.9124 97.65 83.1051 99.6413 79.5607 103.186C76.0162 106.73 74.025 111.537 74.025 116.55C74.025 116.55 74.025 116.676 74.025 116.739H111.825Z" fill="#B1D4F8"/>
<path d="M76.3875 20.9632C76.4068 19.1385 76.0326 17.331 75.2902 15.664C74.5478 13.9971 73.4547 12.5097 72.0854 11.3034C70.7162 10.0971 69.103 9.20017 67.3557 8.67376C65.6084 8.14735 63.7682 8.00382 61.9605 8.25297C58.9157 8.77118 56.1565 10.3608 54.181 12.7349C52.2054 15.1091 51.1437 18.1112 51.1875 21.1995V84.1995H76.3875V20.9632Z" fill="white"/>
<path d="M76.3875 21.5932C76.4148 20.0104 76.1048 18.4399 75.4781 16.9862C74.8514 15.5325 73.9223 14.229 72.7527 13.1622C71.5831 12.0954 70.1998 11.2898 68.6947 10.7991C67.1897 10.3084 65.5974 10.1438 64.0238 10.3162C61.2949 10.7314 58.8093 12.1222 57.0281 14.2308C55.2468 16.3393 54.2909 19.0224 54.3375 21.7822V77.175H76.3875V21.5932Z" fill="#79B4F2"/>
<path d="M76.3875 48.825H51.1875C50.9786 48.825 50.7783 48.742 50.6306 48.5943C50.483 48.4467 50.4 48.2464 50.4 48.0375C50.4 47.8286 50.483 47.6283 50.6306 47.4807C50.7783 47.333 50.9786 47.25 51.1875 47.25H76.3875C76.5964 47.25 76.7967 47.333 76.9443 47.4807C77.092 47.6283 77.175 47.8286 77.175 48.0375C77.175 48.2464 77.092 48.4467 76.9443 48.5943C76.7967 48.742 76.5964 48.825 76.3875 48.825Z" fill="white"/>
<path d="M76.3875 25.2H51.1875C50.9786 25.2 50.7783 25.117 50.6306 24.9693C50.483 24.8217 50.4 24.6214 50.4 24.4125C50.4 24.2036 50.483 24.0033 50.6306 23.8557C50.7783 23.708 50.9786 23.625 51.1875 23.625H76.3875C76.5964 23.625 76.7967 23.708 76.9443 23.8557C77.092 24.0033 77.175 24.2036 77.175 24.4125C77.175 24.6214 77.092 24.8217 76.9443 24.9693C76.7967 25.117 76.5964 25.2 76.3875 25.2Z" fill="white"/>
<path d="M71.0167 21.861C70.8079 21.861 70.6076 21.778 70.4599 21.6303C70.3122 21.4827 70.2292 21.2824 70.2292 21.0735V20.8372C70.2292 20.6284 70.3122 20.4281 70.4599 20.2804C70.6076 20.1327 70.8079 20.0497 71.0167 20.0497C71.2256 20.0497 71.4259 20.1327 71.5736 20.2804C71.7213 20.4281 71.8042 20.6284 71.8042 20.8372V21.0735C71.8042 21.2824 71.7213 21.4827 71.5736 21.6303C71.4259 21.778 71.2256 21.861 71.0167 21.861Z" fill="#256FC7"/>
<path d="M70.686 18.6323C70.5135 18.6313 70.3462 18.5738 70.2096 18.4685C70.0731 18.3632 69.9748 18.216 69.93 18.0495C69.7203 17.3358 69.4072 16.6566 69.0007 16.0335C68.3229 15.0116 67.3176 14.2506 66.15 13.8758C65.9411 13.8277 65.7599 13.6987 65.6462 13.517C65.5325 13.3354 65.4956 13.116 65.5436 12.9072C65.5916 12.6983 65.7207 12.5171 65.9023 12.4034C66.084 12.2896 66.3034 12.2527 66.5122 12.3008C68.0891 12.7505 69.456 13.7436 70.371 15.1043C70.8707 15.8671 71.253 16.7006 71.505 17.577C71.5635 17.7775 71.5399 17.9931 71.4395 18.1762C71.339 18.3593 71.17 18.495 70.9695 18.5535L70.686 18.6323Z" fill="#256FC7"/>
<path d="M76.3875 50.4H51.1875C50.9786 50.4 50.7783 50.317 50.6306 50.1694C50.483 50.0217 50.4 49.8214 50.4 49.6125C50.4 49.4037 50.483 49.2034 50.6306 49.0557C50.7783 48.908 50.9786 48.825 51.1875 48.825H76.3875C76.5964 48.825 76.7967 48.908 76.9443 49.0557C77.092 49.2034 77.175 49.4037 77.175 49.6125C77.175 49.8214 77.092 50.0217 76.9443 50.1694C76.7967 50.317 76.5964 50.4 76.3875 50.4Z" fill="#256FC7"/>
<path d="M76.3875 26.775H51.1875C50.9786 26.775 50.7783 26.692 50.6306 26.5444C50.483 26.3967 50.4 26.1964 50.4 25.9875C50.4 25.7787 50.483 25.5784 50.6306 25.4307C50.7783 25.283 50.9786 25.2 51.1875 25.2H76.3875C76.5964 25.2 76.7967 25.283 76.9443 25.4307C77.092 25.5784 77.175 25.7787 77.175 25.9875C77.175 26.1964 77.092 26.3967 76.9443 26.5444C76.7967 26.692 76.5964 26.775 76.3875 26.775Z" fill="#256FC7"/>
<path d="M76.3875 85.05H51.1875C50.9786 85.05 50.7783 84.967 50.6306 84.8193C50.483 84.6717 50.4 84.4714 50.4 84.2625V21.2625C50.3517 17.9842 51.4805 14.7972 53.5814 12.2802C55.6823 9.76311 58.6161 8.08278 61.8502 7.54423C63.7423 7.26587 65.6723 7.40351 67.5057 7.94754C69.3391 8.49158 71.0318 9.42892 72.4657 10.6942C73.9516 11.9842 75.1426 13.5787 75.9579 15.3696C76.7732 17.1605 77.1936 19.1058 77.1907 21.0735V84.2625C77.1908 84.3672 77.1699 84.471 77.1293 84.5675C77.0888 84.6641 77.0293 84.7516 76.9545 84.825C76.8797 84.8983 76.7911 84.956 76.6937 84.9946C76.5963 85.0333 76.4922 85.0521 76.3875 85.05ZM51.975 83.475H75.6V20.9632C75.606 19.2225 75.2362 17.501 74.5159 15.9163C73.7955 14.3316 72.7417 12.9211 71.4262 11.781C70.1611 10.6695 68.6681 9.84822 67.0519 9.37481C65.4358 8.90139 63.7356 8.78728 62.0707 9.04048C59.2109 9.52276 56.6191 11.0152 54.7665 13.2465C52.9138 15.4778 51.9233 18.2998 51.975 21.1995V83.475Z" fill="#256FC7"/>
<path d="M48.825 103.95H44.1V116.55H48.825V103.95Z" fill="#FFD196"/>
<path d="M66.15 102.375H61.425V116.55H66.15V102.375Z" fill="#FFD196"/>
<path d="M83.475 103.95H78.75V116.55H83.475V103.95Z" fill="#FFD196"/>
<path d="M46.4625 111.825C46.2536 111.825 46.0533 111.742 45.9056 111.594C45.758 111.447 45.675 111.246 45.675 111.038V103.95C45.675 103.741 45.758 103.541 45.9056 103.393C46.0533 103.246 46.2536 103.163 46.4625 103.163C46.6713 103.163 46.8716 103.246 47.0193 103.393C47.167 103.541 47.25 103.741 47.25 103.95V111.038C47.25 111.246 47.167 111.447 47.0193 111.594C46.8716 111.742 46.6713 111.825 46.4625 111.825Z" fill="#EEAB5C"/>
<path d="M63.7875 108.675C63.5786 108.675 63.3783 108.592 63.2307 108.444C63.083 108.297 63 108.096 63 107.888V102.375C63 102.166 63.083 101.966 63.2307 101.818C63.3783 101.67 63.5786 101.588 63.7875 101.588C63.9964 101.588 64.1967 101.67 64.3443 101.818C64.492 101.966 64.575 102.166 64.575 102.375V107.888C64.575 108.096 64.492 108.297 64.3443 108.444C64.1967 108.592 63.9964 108.675 63.7875 108.675Z" fill="#EEAB5C"/>
<path d="M63.7875 118.125C63.5786 118.125 63.3783 118.042 63.2307 117.894C63.083 117.747 63 117.546 63 117.338V113.4C63 113.191 63.083 112.991 63.2307 112.843C63.3783 112.696 63.5786 112.613 63.7875 112.613C63.9964 112.613 64.1967 112.696 64.3443 112.843C64.492 112.991 64.575 113.191 64.575 113.4V117.338C64.575 117.546 64.492 117.747 64.3443 117.894C64.1967 118.042 63.9964 118.125 63.7875 118.125Z" fill="#EEAB5C"/>
<path d="M81.1125 108.675C80.9036 108.675 80.7033 108.592 80.5556 108.444C80.4079 108.297 80.325 108.096 80.325 107.888V103.95C80.325 103.741 80.4079 103.541 80.5556 103.393C80.7033 103.246 80.9036 103.163 81.1125 103.163C81.3213 103.163 81.5216 103.246 81.6693 103.393C81.817 103.541 81.9 103.741 81.9 103.95V107.888C81.9 108.096 81.817 108.297 81.6693 108.444C81.5216 108.592 81.3213 108.675 81.1125 108.675Z" fill="#EEAB5C"/>
<path d="M99.225 116.739C99.1056 114.957 98.3137 113.287 97.0095 112.068C95.7052 110.848 93.9862 110.169 92.2005 110.169C90.4148 110.169 88.6958 110.848 87.3916 112.068C86.0874 113.287 85.2954 114.957 85.176 116.739H99.225Z" fill="#E8F2FE"/>
<path d="M114.219 116.739C114.907 114.95 115.15 113.02 114.925 111.116C114.701 109.212 114.017 107.391 112.931 105.811C111.846 104.231 110.392 102.938 108.696 102.045C106.999 101.152 105.111 100.686 103.194 100.686C101.277 100.686 99.3886 101.152 97.6922 102.045C95.9957 102.938 94.5421 104.231 93.4567 105.811C92.3714 107.391 91.687 109.212 91.4627 111.116C91.2383 113.02 91.4808 114.95 92.169 116.739H114.219Z" fill="#E8F2FE"/>
<path d="M119.369 116.739C119.108 116.215 118.706 115.774 118.208 115.466C117.71 115.157 117.136 114.994 116.55 114.994C115.964 114.994 115.39 115.157 114.892 115.466C114.394 115.774 113.992 116.215 113.731 116.739H119.369Z" fill="#E8F2FE"/>
<path d="M81.9 116.739V116.55C81.9 115.715 81.5682 114.913 80.9774 114.323C80.3867 113.732 79.5855 113.4 78.75 113.4C77.9146 113.4 77.1134 113.732 76.5226 114.323C75.9319 114.913 75.6 115.715 75.6 116.55C75.6 116.55 75.6 116.676 75.6 116.739H81.9Z" fill="#E8F2FE"/>
<path d="M77.0175 116.739C76.7003 115.347 75.9198 114.104 74.8038 113.214C73.6878 112.324 72.3026 111.839 70.875 111.839C69.4474 111.839 68.0622 112.324 66.9462 113.214C65.8303 114.104 65.0497 115.347 64.7325 116.739H77.0175Z" fill="#E8F2FE"/>
<path d="M61.1888 116.739C60.8781 115.794 60.2768 114.971 59.4708 114.387C58.6648 113.804 57.6951 113.489 56.7 113.489C55.7049 113.489 54.7353 113.804 53.9292 114.387C53.1232 114.971 52.522 115.794 52.2113 116.739H61.1888Z" fill="#E8F2FE"/>
<path d="M53.55 116.739V116.55C53.55 115.715 53.2181 114.913 52.6274 114.323C52.0367 113.732 51.2354 113.4 50.4 113.4C49.5646 113.4 48.7634 113.732 48.1726 114.323C47.5819 114.913 47.25 115.715 47.25 116.55C47.25 116.55 47.25 116.676 47.25 116.739H53.55Z" fill="#E8F2FE"/>
<path d="M47.1083 116.739C46.7625 114.941 45.8014 113.321 44.3901 112.155C42.9788 110.989 41.2055 110.351 39.375 110.351C37.5445 110.351 35.7712 110.989 34.3599 112.155C32.9486 113.321 31.9875 114.941 31.6418 116.739H47.1083Z" fill="#E8F2FE"/>
<path d="M39.375 116.739V116.55C39.375 112.791 37.8816 109.185 35.2233 106.527C32.5649 103.868 28.9595 102.375 25.2 102.375C21.4406 102.375 17.8351 103.868 15.1768 106.527C12.5185 109.185 11.025 112.791 11.025 116.55C11.025 116.55 11.025 116.676 11.025 116.739H39.375Z" fill="#E8F2FE"/>
<path d="M16.947 116.739C16.4943 115.315 15.6002 114.071 14.3939 113.189C13.1877 112.307 11.732 111.831 10.2375 111.831C8.74304 111.831 7.28734 112.307 6.0811 113.189C4.87487 114.071 3.9807 115.315 3.52802 116.739H16.947Z" fill="#E8F2FE"/>
<path d="M54.3375 110.25C55.6423 110.25 56.7 109.192 56.7 107.888C56.7 106.583 55.6423 105.525 54.3375 105.525C53.0327 105.525 51.975 106.583 51.975 107.888C51.975 109.192 53.0327 110.25 54.3375 110.25Z" fill="#E8F2FE"/>
<path d="M22.05 111.825C22.9199 111.825 23.625 111.12 23.625 110.25C23.625 109.38 22.9199 108.675 22.05 108.675C21.1802 108.675 20.475 109.38 20.475 110.25C20.475 111.12 21.1802 111.825 22.05 111.825Z" fill="#B1D4F8"/>
<path d="M100.012 111.825C101.317 111.825 102.375 110.767 102.375 109.462C102.375 108.158 101.317 107.1 100.012 107.1C98.7077 107.1 97.65 108.158 97.65 109.462C97.65 110.767 98.7077 111.825 100.012 111.825Z" fill="#B1D4F8"/>
<path d="M108.675 103.95C109.545 103.95 110.25 103.245 110.25 102.375C110.25 101.505 109.545 100.8 108.675 100.8C107.805 100.8 107.1 101.505 107.1 102.375C107.1 103.245 107.805 103.95 108.675 103.95Z" fill="#B1D4F8"/>
<path d="M51.1875 103.162C51.3095 103.165 51.4308 103.143 51.5443 103.098C51.6579 103.053 51.7615 102.986 51.8492 102.901C51.937 102.817 52.0072 102.715 52.0558 102.603C52.1044 102.491 52.1305 102.371 52.1325 102.249C52.1311 102.088 52.0846 101.93 51.9983 101.794C51.9121 101.657 51.7894 101.548 51.6443 101.477C51.5013 101.403 51.3825 101.289 51.3017 101.15C51.2208 101.01 51.1812 100.851 51.1875 100.69V32.3347C51.2772 30.9657 50.8365 29.6147 49.9567 28.5619C49.077 27.5091 47.8257 26.8354 46.4625 26.6805C45.0993 26.8354 43.848 27.5091 42.9683 28.5619C42.0885 29.6147 41.6478 30.9657 41.7375 32.3347V100.69C41.7438 100.851 41.7042 101.01 41.6234 101.15C41.5425 101.289 41.4237 101.403 41.2808 101.477C41.1356 101.548 41.0129 101.657 40.9267 101.794C40.8404 101.93 40.7939 102.088 40.7925 102.249C40.7946 102.371 40.8206 102.491 40.8692 102.603C40.9178 102.715 40.988 102.817 41.0758 102.901C41.1635 102.986 41.2671 103.053 41.3807 103.098C41.4942 103.143 41.6155 103.165 41.7375 103.162H51.1875Z" fill="white"/>
<path d="M51.1875 103.95H41.7375C41.5121 103.952 41.2884 103.91 41.0793 103.825C40.8702 103.741 40.6798 103.616 40.5189 103.458C40.3581 103.3 40.2299 103.112 40.1417 102.905C40.0535 102.697 40.0071 102.474 40.005 102.249C40.0072 101.958 40.0854 101.673 40.2318 101.421C40.3782 101.17 40.5878 100.961 40.8398 100.816C40.8398 100.816 40.95 100.8 40.95 100.69V32.3348C40.8531 30.7555 41.3741 29.2005 42.4028 27.9984C43.4315 26.7963 44.8873 26.0413 46.4625 25.893C48.0377 26.0413 49.4935 26.7963 50.5222 27.9984C51.5509 29.2005 52.0719 30.7555 51.975 32.3348V100.69L52.0852 100.816C52.4139 101.002 52.6705 101.293 52.8137 101.643C52.9569 101.993 52.9784 102.38 52.8749 102.744C52.7713 103.107 52.5487 103.425 52.2426 103.647C51.9366 103.868 51.565 103.981 51.1875 103.966V103.95ZM46.4625 27.468C45.3114 27.6288 44.2644 28.2209 43.5334 29.1244C42.8024 30.028 42.4419 31.1755 42.525 32.3348V100.69C42.5361 100.991 42.4603 101.29 42.3067 101.549C42.1532 101.809 41.9283 102.019 41.6588 102.155C41.6208 102.181 41.593 102.22 41.58 102.265C41.58 102.265 41.58 102.375 41.7375 102.375H51.1875C51.2061 102.377 51.225 102.376 51.2431 102.37C51.2611 102.365 51.2779 102.357 51.2926 102.345C51.3072 102.333 51.3194 102.319 51.3284 102.302C51.3374 102.286 51.343 102.268 51.345 102.249C51.3151 102.2 51.2711 102.162 51.219 102.139C50.94 101.989 50.7126 101.759 50.5665 101.478C50.4204 101.197 50.3624 100.878 50.4 100.564V32.3348C50.4831 31.1755 50.1226 30.028 49.3916 29.1244C48.6606 28.2209 47.6136 27.6288 46.4625 27.468V27.468Z" fill="#256FC7"/>
<path d="M85.8375 103.162C85.9595 103.165 86.0808 103.143 86.1943 103.098C86.3079 103.053 86.4115 102.986 86.4992 102.901C86.587 102.817 86.6572 102.715 86.7058 102.603C86.7544 102.491 86.7805 102.371 86.7825 102.249V102.249C86.7811 102.088 86.7346 101.93 86.6483 101.794C86.5621 101.657 86.4394 101.548 86.2943 101.477C86.1513 101.403 86.0325 101.289 85.9516 101.15C85.8708 101.01 85.8312 100.851 85.8375 100.69V32.3347C85.9272 30.9657 85.4865 29.6147 84.6067 28.5619C83.727 27.5091 82.4757 26.8354 81.1125 26.6805C79.7493 26.8354 78.498 27.5091 77.6183 28.5619C76.7385 29.6147 76.2978 30.9657 76.3875 32.3347V100.69C76.3938 100.851 76.3542 101.01 76.2734 101.15C76.1925 101.289 76.0737 101.403 75.9308 101.477C75.7856 101.548 75.6629 101.657 75.5767 101.794C75.4904 101.93 75.4439 102.088 75.4425 102.249V102.249C75.4446 102.371 75.4706 102.491 75.5192 102.603C75.5678 102.715 75.638 102.817 75.7258 102.901C75.8135 102.986 75.9171 103.053 76.0307 103.098C76.1442 103.143 76.2655 103.165 76.3875 103.162H85.8375Z" fill="white"/>
<path d="M85.8375 103.95H76.3875C76.162 103.952 75.9384 103.91 75.7293 103.825C75.5202 103.741 75.3298 103.616 75.1689 103.458C75.0081 103.3 74.8799 103.112 74.7917 102.905C74.7035 102.697 74.6571 102.474 74.655 102.249C74.6572 101.958 74.7354 101.673 74.8818 101.421C75.0282 101.17 75.2378 100.961 75.4897 100.816C75.4897 100.816 75.6 100.8 75.6 100.69V32.3348C75.5031 30.7555 76.024 29.2005 77.0527 27.9984C78.0814 26.7963 79.5373 26.0413 81.1125 25.893C82.6877 26.0413 84.1435 26.7963 85.1722 27.9984C86.2009 29.2005 86.7219 30.7555 86.625 32.3348V100.69L86.7352 100.816C87.0639 101.002 87.3205 101.293 87.4637 101.643C87.6069 101.993 87.6284 102.38 87.5249 102.744C87.4213 103.107 87.1986 103.425 86.8926 103.647C86.5866 103.868 86.215 103.981 85.8375 103.966V103.95ZM81.1125 27.468C79.9614 27.6288 78.9144 28.2209 78.1834 29.1244C77.4524 30.028 77.0919 31.1755 77.175 32.3348V100.69C77.186 100.991 77.1103 101.29 76.9567 101.549C76.8032 101.809 76.5783 102.019 76.3087 102.155C76.2707 102.181 76.243 102.22 76.23 102.265C76.23 102.265 76.23 102.375 76.3875 102.375H85.8375C85.8561 102.377 85.875 102.376 85.893 102.37C85.9111 102.365 85.9279 102.357 85.9426 102.345C85.9572 102.333 85.9694 102.319 85.9784 102.302C85.9874 102.286 85.993 102.268 85.995 102.249C85.965 102.2 85.9211 102.162 85.869 102.139C85.59 101.989 85.3626 101.759 85.2165 101.478C85.0704 101.197 85.0123 100.878 85.05 100.564V32.3348C85.1331 31.1755 84.7726 30.028 84.0416 29.1244C83.3106 28.2209 82.2636 27.6288 81.1125 27.468V27.468Z" fill="#256FC7"/>
<path d="M68.5125 59.6609C68.5125 65.9609 90.5625 76.5134 90.5625 85.1129V93.7124H68.5125V59.6609Z" fill="white"/>
<path d="M68.5125 66.3547V93.7125H88.2V86.8612C88.2 80.1045 72.261 71.9932 68.5125 66.3547Z" fill="#A8F0C9"/>
<path d="M85.8375 93.7125V87.4125C85.8375 81.1125 69.3 73.4265 69.3 68.859V93.7125H85.8375Z" fill="white"/>
<path d="M90.5625 94.5H68.5125C68.3036 94.5 68.1033 94.417 67.9557 94.2693C67.808 94.1216 67.725 93.9213 67.725 93.7125V59.661C67.725 59.4521 67.808 59.2518 67.9557 59.1041C68.1033 58.9564 68.3036 58.8735 68.5125 58.8735C68.7214 58.8735 68.9217 58.9564 69.0694 59.1041C69.217 59.2518 69.3 59.4521 69.3 59.661C69.3 62.181 74.025 66.0712 78.75 69.8355C84.9555 74.8755 91.35 80.0887 91.35 85.113V93.7125C91.35 93.9213 91.267 94.1216 91.1193 94.2693C90.9717 94.417 90.7714 94.5 90.5625 94.5ZM69.3 92.925H89.775V85.05C89.775 80.7817 83.3805 75.6 77.7263 71.001C74.6649 68.7363 71.8416 66.1664 69.3 63.3307V92.925Z" fill="#256FC7"/>
<path d="M59.0625 59.6609C59.0625 65.9609 37.0125 76.5134 37.0125 85.1129V93.7124H59.0625V59.6609Z" fill="white"/>
<path d="M59.0625 66.3547V93.7125H39.375V86.8612C39.375 80.1045 55.314 71.9932 59.0625 66.3547Z" fill="#A8F0C9"/>
<path d="M41.7375 93.7125V87.4125C41.7375 81.1125 58.275 73.4265 58.275 68.859V93.7125H41.7375Z" fill="white"/>
<path d="M59.0625 94.5H37.0125C36.8036 94.5 36.6033 94.417 36.4557 94.2693C36.308 94.1216 36.225 93.9213 36.225 93.7125V85.05C36.225 80.0257 42.6353 74.8125 48.825 69.7725C53.55 66.15 58.275 62.181 58.275 59.661C58.275 59.4521 58.358 59.2518 58.5057 59.1041C58.6533 58.9564 58.8536 58.8735 59.0625 58.8735C59.2714 58.8735 59.4717 58.9564 59.6194 59.1041C59.767 59.2518 59.85 59.4521 59.85 59.661V93.7125C59.85 93.9213 59.767 94.1216 59.6194 94.2693C59.4717 94.417 59.2714 94.5 59.0625 94.5ZM37.8 92.925H58.275V63.3307C55.7366 66.1883 52.9132 68.7795 49.8488 71.064C44.1945 75.6 37.8 80.8447 37.8 85.05V92.925Z" fill="#256FC7"/>
<path d="M68.5125 101.587C68.6566 101.59 68.7996 101.563 68.9332 101.509C69.0669 101.456 69.1886 101.376 69.2912 101.275C69.3938 101.174 69.4752 101.053 69.5308 100.92C69.5864 100.787 69.615 100.645 69.615 100.501C69.6117 100.307 69.5576 100.118 69.4581 99.9523C69.3585 99.7864 69.2171 99.6496 69.048 99.5557C68.8791 99.4684 68.7388 99.3344 68.6439 99.1697C68.549 99.0049 68.5034 98.8164 68.5125 98.6265V93.7125H59.0625V98.6265C59.0717 98.8164 59.0261 99.0049 58.9311 99.1697C58.8362 99.3344 58.6959 99.4684 58.527 99.5557C58.3579 99.6496 58.2165 99.7864 58.117 99.9523C58.0175 100.118 57.9633 100.307 57.96 100.501V100.501C57.96 100.645 57.9886 100.787 58.0442 100.92C58.0998 101.053 58.1813 101.174 58.2839 101.275C58.3865 101.376 58.5081 101.456 58.6418 101.509C58.7755 101.563 58.9185 101.59 59.0625 101.587H68.5125Z" fill="white"/>
<path d="M68.5125 102.375H59.0625C58.6503 102.385 58.2465 102.257 57.9149 102.012C57.5833 101.766 57.3426 101.418 57.2308 101.021C57.1189 100.624 57.1423 100.201 57.2971 99.8192C57.4519 99.437 57.7295 99.1171 58.086 98.91C58.2593 98.7997 58.275 98.7052 58.275 98.7052V93.7125C58.275 93.5036 58.358 93.3033 58.5057 93.1556C58.6534 93.008 58.8537 92.925 59.0625 92.925H68.5125C68.7214 92.925 68.9217 93.008 69.0694 93.1556C69.217 93.3033 69.3 93.5036 69.3 93.7125V98.6265C69.297 98.6777 69.3088 98.7286 69.3339 98.7733C69.3591 98.8179 69.3965 98.8545 69.4418 98.8785C69.7348 99.0514 69.9777 99.2978 70.1462 99.5934C70.3147 99.889 70.4031 100.223 70.4025 100.564C70.3861 101.053 70.1792 101.516 69.8261 101.854C69.473 102.192 69.0016 102.379 68.5125 102.375V102.375ZM59.85 94.5V98.6265C59.8504 98.9482 59.7644 99.2641 59.6009 99.5412C59.4375 99.8182 59.2025 100.046 58.9208 100.201C58.8477 100.22 58.785 100.267 58.7466 100.332C58.7082 100.397 58.6972 100.475 58.716 100.548C58.7348 100.621 58.7819 100.684 58.8469 100.722C58.9118 100.761 58.9894 100.772 59.0625 100.753H68.5125C68.5934 100.753 68.6712 100.722 68.7299 100.666C68.7885 100.61 68.8235 100.534 68.8275 100.453C68.8275 100.453 68.8275 100.296 68.607 100.17C68.3269 100.005 68.0968 99.7667 67.9415 99.4809C67.7861 99.1952 67.7113 98.8727 67.725 98.5477V94.5H59.85Z" fill="#256FC7"/>
<path d="M57.4875 84.2625H70.0875V93.492C70.0875 93.9682 69.8983 94.4249 69.5616 94.7616C69.2249 95.0983 68.7682 95.2875 68.292 95.2875H59.283C58.8068 95.2875 58.3501 95.0983 58.0134 94.7616C57.6767 94.4249 57.4875 93.9682 57.4875 93.492V84.2625Z" fill="white"/>
<path d="M61.7557 86.625H70.0875V93.492C70.0875 93.9682 69.8983 94.4249 69.5616 94.7616C69.2249 95.0983 68.7682 95.2875 68.292 95.2875H61.992C61.5158 95.2875 61.0591 95.0983 60.7224 94.7616C60.3857 94.4249 60.1965 93.9682 60.1965 93.492V88.2C60.1965 87.785 60.3603 87.3868 60.6522 87.0918C60.9442 86.7969 61.3408 86.6292 61.7557 86.625Z" fill="#F0F6FD"/>
<path d="M68.292 96.075H59.283C58.598 96.075 57.941 95.8028 57.4566 95.3184C56.9722 94.834 56.7 94.177 56.7 93.492V84.2625C56.7 84.0536 56.783 83.8533 56.9307 83.7056C57.0783 83.5579 57.2787 83.475 57.4875 83.475H70.0875C70.2964 83.475 70.4967 83.5579 70.6444 83.7056C70.792 83.8533 70.875 84.0536 70.875 84.2625V93.492C70.875 94.177 70.6029 94.834 70.1185 95.3184C69.6341 95.8028 68.9771 96.075 68.292 96.075V96.075ZM58.275 85.05V93.492C58.275 93.7593 58.3812 94.0157 58.5702 94.2047C58.7593 94.3938 59.0157 94.5 59.283 94.5H68.292C68.5594 94.5 68.8157 94.3938 69.0048 94.2047C69.1938 94.0157 69.3 93.7593 69.3 93.492V85.05H58.275Z" fill="#256FC7"/>
<path d="M65.1735 89.8852C65.1735 90.7514 64.4648 99.3352 63.5985 99.3352C62.7323 99.3352 62.0235 90.8302 62.0235 89.8852C62.0235 89.4675 62.1895 89.0669 62.4848 88.7715C62.7802 88.4761 63.1808 88.3102 63.5985 88.3102C64.0162 88.3102 64.4169 88.4761 64.7122 88.7715C65.0076 89.0669 65.1735 89.4675 65.1735 89.8852Z" fill="#79B4F2"/>
<path d="M56.3063 84.2625C56.2018 84.2625 56.1017 84.221 56.0278 84.1472C55.954 84.0733 55.9125 83.9732 55.9125 83.8687V46.0687C55.9125 37.8472 60.039 28.9012 63.7875 28.9012C67.536 28.9012 71.6625 37.8472 71.6625 46.0687V83.8687C71.6625 83.9732 71.621 84.0733 71.5472 84.1472C71.4733 84.221 71.3732 84.2625 71.2688 84.2625H56.3063Z" fill="white"/>
<path d="M58.59 83.916C58.5065 83.916 58.4263 83.8828 58.3673 83.8237C58.3082 83.7646 58.275 83.6845 58.275 83.601V44.478C58.275 37.6897 61.803 30.303 64.9845 30.303C68.166 30.303 71.7097 37.7055 71.7097 44.478V83.601C71.7057 83.6859 71.6691 83.7661 71.6075 83.8247C71.5459 83.8834 71.464 83.9161 71.379 83.916H58.59Z" fill="#F0F6FD"/>
<path d="M71.2687 85.05H56.3062C55.9942 85.0459 55.6961 84.9201 55.4755 84.6995C55.2548 84.4788 55.1291 84.1808 55.125 83.8687V46.0687C55.125 38.115 59.1255 28.35 63.7875 28.35C68.4495 28.35 72.45 38.115 72.45 46.116V83.916C72.434 84.2197 72.303 84.5059 72.0836 84.7166C71.8642 84.9272 71.5729 85.0464 71.2687 85.05V85.05ZM56.7 83.475H70.875V46.116C70.875 37.926 66.8115 29.925 63.7875 29.925C60.7635 29.925 56.7 37.926 56.7 46.116V83.475Z" fill="#256FC7"/>
<path d="M63.7875 49.6124C64.5663 49.6124 65.3276 49.3815 65.9751 48.9488C66.6226 48.5162 67.1273 47.9012 67.4253 47.1817C67.7233 46.4623 67.8013 45.6706 67.6494 44.9068C67.4974 44.143 67.1224 43.4414 66.5717 42.8907C66.0211 42.34 65.3195 41.965 64.5557 41.8131C63.7919 41.6612 63.0002 41.7391 62.2807 42.0372C61.5612 42.3352 60.9463 42.8399 60.5136 43.4874C60.0809 44.1349 59.85 44.8962 59.85 45.6749C59.85 46.7192 60.2648 47.7207 61.0033 48.4592C61.7417 49.1976 62.7432 49.6124 63.7875 49.6124V49.6124Z" fill="white"/>
<path d="M64.9687 49.6125C65.5139 49.6125 66.0468 49.4508 66.5 49.148C66.9533 48.8451 67.3066 48.4146 67.5152 47.911C67.7238 47.4074 67.7784 46.8532 67.672 46.3185C67.5657 45.7838 67.3032 45.2927 66.9177 44.9073C66.5322 44.5218 66.0411 44.2593 65.5065 44.1529C64.9718 44.0466 64.4176 44.1012 63.914 44.3098C63.4103 44.5184 62.9799 44.8717 62.677 45.3249C62.3741 45.7782 62.2125 46.3111 62.2125 46.8562C62.2125 47.5872 62.5029 48.2883 63.0198 48.8052C63.5367 49.3221 64.2377 49.6125 64.9687 49.6125V49.6125Z" fill="#B1D4F8"/>
<path d="M63.7875 50.4C62.853 50.4 61.9395 50.1228 61.1624 49.6037C60.3854 49.0845 59.7798 48.3465 59.4222 47.4831C59.0645 46.6198 58.971 45.6697 59.1533 44.7532C59.3356 43.8366 59.7856 42.9947 60.4464 42.3339C61.1072 41.6731 61.9491 41.2231 62.8657 41.0407C63.7823 40.8584 64.7323 40.952 65.5957 41.3096C66.4591 41.6672 67.197 42.2729 67.7162 43.0499C68.2354 43.8269 68.5125 44.7404 68.5125 45.675C68.5125 46.9281 68.0147 48.1299 67.1286 49.016C66.2425 49.9021 65.0406 50.4 63.7875 50.4ZM63.7875 42.525C63.1645 42.525 62.5555 42.7097 62.0375 43.0558C61.5194 43.402 61.1157 43.8939 60.8773 44.4695C60.6389 45.0451 60.5765 45.6784 60.698 46.2895C60.8196 46.9005 61.1196 47.4618 61.5601 47.9023C62.0006 48.3429 62.5619 48.6429 63.173 48.7644C63.784 48.886 64.4174 48.8236 64.9929 48.5852C65.5685 48.3468 66.0605 47.943 66.4066 47.425C66.7528 46.907 66.9375 46.298 66.9375 45.675C66.9375 44.8395 66.6056 44.0383 66.0149 43.4476C65.4241 42.8568 64.6229 42.525 63.7875 42.525Z" fill="#256FC7"/>
<path d="M70.119 37.0125C68.544 32.508 66.1028 29.1375 63.819 29.1375C61.5353 29.1375 58.9838 32.5552 57.519 37.1385L70.119 37.0125Z" fill="white"/>
<path d="M67.599 32.7915C67.2905 32.3395 66.8894 31.9583 66.4224 31.6732C65.9553 31.3881 65.433 31.2056 64.89 31.1378C63.0472 31.1378 61.0942 33.6735 59.8027 37.107H60.5745L69.678 37.0125C69.1447 35.5323 68.4474 34.1165 67.599 32.7915V32.7915Z" fill="#B1D4F8"/>
<path d="M57.4245 37.926C57.2987 37.9242 57.175 37.8934 57.063 37.836C56.951 37.7786 56.8537 37.6963 56.7787 37.5952C56.7078 37.4932 56.661 37.3764 56.6419 37.2536C56.6228 37.1308 56.6319 37.0052 56.6685 36.8865C58.0545 32.76 60.6532 28.35 63.7875 28.35C66.9217 28.35 69.4732 32.697 70.8592 36.7605C70.8993 36.8779 70.9116 37.003 70.8952 37.1259C70.8788 37.2489 70.8342 37.3664 70.7647 37.4692C70.6897 37.5703 70.5925 37.6526 70.4805 37.71C70.3685 37.7674 70.2448 37.7982 70.119 37.8L57.4245 37.926ZM63.7245 29.925C62.0392 29.925 59.9602 32.508 58.4797 36.3352L69.0007 36.225C67.5202 32.4765 65.457 29.925 63.7875 29.925H63.7245Z" fill="#256FC7"/>
<path d="M63.7875 81.9C63.5786 81.9 63.3783 81.817 63.2307 81.6693C63.083 81.5217 63 81.3214 63 81.1125V63.7875C63 63.5786 63.083 63.3783 63.2307 63.2307C63.3783 63.083 63.5786 63 63.7875 63C63.9964 63 64.1967 63.083 64.3443 63.2307C64.492 63.3783 64.575 63.5786 64.575 63.7875V81.1125C64.575 81.3214 64.492 81.5217 64.3443 81.6693C64.1967 81.817 63.9964 81.9 63.7875 81.9Z" fill="#256FC7"/>
<path d="M63.7875 61.425C63.5786 61.425 63.3783 61.342 63.2307 61.1943C63.083 61.0467 63 60.8463 63 60.6375V54.3375C63 54.1286 63.083 53.9283 63.2307 53.7806C63.3783 53.633 63.5786 53.55 63.7875 53.55C63.9964 53.55 64.1967 53.633 64.3443 53.7806C64.492 53.9283 64.575 54.1286 64.575 54.3375V60.6375C64.575 60.8463 64.492 61.0467 64.3443 61.1943C64.1967 61.342 63.9964 61.425 63.7875 61.425Z" fill="#256FC7"/>
<path d="M112.612 118.125H40.1625C39.9536 118.125 39.7533 118.042 39.6057 117.894C39.458 117.747 39.375 117.546 39.375 117.337C39.375 117.129 39.458 116.928 39.6057 116.781C39.7533 116.633 39.9536 116.55 40.1625 116.55H112.612C112.821 116.55 113.022 116.633 113.169 116.781C113.317 116.928 113.4 117.129 113.4 117.337C113.4 117.546 113.317 117.747 113.169 117.894C113.022 118.042 112.821 118.125 112.612 118.125Z" fill="#256FC7"/>
<path d="M35.4375 118.125H11.8125C11.6036 118.125 11.4033 118.042 11.2556 117.894C11.108 117.747 11.025 117.546 11.025 117.337C11.025 117.129 11.108 116.928 11.2556 116.781C11.4033 116.633 11.6036 116.55 11.8125 116.55H35.4375C35.6464 116.55 35.8467 116.633 35.9943 116.781C36.142 116.928 36.225 117.129 36.225 117.337C36.225 117.546 36.142 117.747 35.9943 117.894C35.8467 118.042 35.6464 118.125 35.4375 118.125Z" fill="#256FC7"/>
<path d="M5.51249 118.125H3.93749C3.72864 118.125 3.52833 118.042 3.38065 117.894C3.23296 117.747 3.14999 117.546 3.14999 117.337C3.14999 117.129 3.23296 116.928 3.38065 116.781C3.52833 116.633 3.72864 116.55 3.93749 116.55H5.51249C5.72135 116.55 5.92166 116.633 6.06934 116.781C6.21703 116.928 6.29999 117.129 6.29999 117.337C6.29999 117.546 6.21703 117.747 6.06934 117.894C5.92166 118.042 5.72135 118.125 5.51249 118.125Z" fill="#256FC7"/>
<path d="M118.912 118.125H117.337C117.129 118.125 116.928 118.042 116.781 117.894C116.633 117.747 116.55 117.546 116.55 117.337C116.55 117.129 116.633 116.928 116.781 116.781C116.928 116.633 117.129 116.55 117.337 116.55H118.912C119.121 116.55 119.322 116.633 119.469 116.781C119.617 116.928 119.7 117.129 119.7 117.337C119.7 117.546 119.617 117.747 119.469 117.894C119.322 118.042 119.121 118.125 118.912 118.125Z" fill="#256FC7"/>
</svg>
