<?xml version="1.0" encoding="UTF-8"?>
<svg width="991px" height="382px" viewBox="0 0 991 382" version="1.1" xmlns="http://www.w3.org/2000/svg" xmlns:xlink="http://www.w3.org/1999/xlink" class="splash-svg">
    <!-- Generator: Sketch 55.2 (78181) - https://sketchapp.com -->
    <title>Group 2</title>
    <desc>Created with Sketch.</desc>
    <defs>
        <path d="M35.75,240.71 C35.89,262.25 45.99,284.78 62.5,299.21 C90.14,323.36 129.41,329.15 166.09,327.76 C268.68,323.88 371.53,317.76 474.91,323.11 C506.54,324.75 538.53,327.67 568.35,338.33 C579.28,342.24 590.11,347.22 601.7,347.81 C631.03,349.3 653.58,323.4 671.24,299.93 L715.81,240.71 L768,240.5 L769,0.5 L1,0.5 L0,240.5 L35.75,240.71 Z" id="path-1"></path>
    </defs>
    <g id="Page-1" stroke="none" stroke-width="1" fill="none" fill-rule="evenodd">
        <g id="Group-2" transform="translate(0.000000, -1.000000)">
            <g id="Splash">
                <rect id="Rectangle" fill="#FFFFFF" fill-rule="nonzero" x="0" y="1" width="991" height="382"></rect>
                <g id="Group" transform="translate(222.000000, 0.000000)">
                    <path d="M167.09,327.761 C130.41,329.151 91.14,323.361 63.5,299.211 C35.86,275.061 26.16,228.211 51.16,201.321 C58.73,193.191 68.63,187.531 76.29,179.481 C83.95,171.431 89.23,159.331 84.59,149.231 C81.87,143.311 76.3,139.281 72.32,134.121 C63.07,122.121 63.4,104.571 70.51,91.2109 C77.62,77.8509 90.46,68.3209 104.23,62.0509 C122.096,53.965 141.775,50.7265 161.29,52.6609 C212,57.7709 256.94,97.1909 307.57,91.7709 C335.86,88.7709 360.5,72.0309 386.57,60.6209 C455.38,30.4709 539.65,38.8809 601.15,82.0009 C617.88,93.7409 633.15,107.891 651.54,116.741 C669.93,125.591 690.86,128.681 709.68,136.901 C728.5,145.121 746.37,161.081 747.29,181.591 C748.03,198.341 737.46,213.241 727.38,226.641 L672.24,299.891 C654.58,323.401 632,349.301 602.7,347.811 C591.11,347.221 580.28,342.241 569.35,338.331 C539.52,327.671 507.54,324.751 475.91,323.111 C372.53,317.751 269.68,323.881 167.09,327.761 Z" id="Path" fill="#F0F6FD" fill-rule="nonzero"></path>
                    <g id="Clipped">
                        <mask id="mask-2" fill="white">
                            <use xlink:href="#path-1"></use>
                        </mask>
                        <g id="Path"></g>
                        <g id="Group" mask="url(#mask-2)" fill-rule="nonzero">
                            <g transform="translate(71.000000, 39.000000)">
                                <path d="M303.21,22.0946 C306.494,22.0946 309.157,19.4322 309.157,16.1479 C309.157,12.8636 306.494,10.2012 303.21,10.2012 C299.926,10.2012 297.263,12.8636 297.263,16.1479 C297.263,19.4322 299.926,22.0946 303.21,22.0946 Z" id="Path" fill="#E8F2FE"></path>
                                <path d="M622.84,314.645 C626.125,314.645 628.787,311.983 628.787,308.699 C628.787,305.414 626.125,302.752 622.84,302.752 C619.556,302.752 616.894,305.414 616.894,308.699 C616.894,311.983 619.556,314.645 622.84,314.645 Z" id="Path" fill="#256FC7"></path>
                                <path d="M204.157,190.49 C208.168,190.49 211.42,187.238 211.42,183.226 C211.42,179.215 208.168,175.963 204.157,175.963 C200.145,175.963 196.893,179.215 196.893,183.226 C196.893,187.238 200.145,190.49 204.157,190.49 Z" id="Path" fill="#E8F2FE"></path>
                                <path d="M90.884,121.829 C93.986,121.829 96.501,119.314 96.501,116.211 C96.501,113.109 93.986,110.594 90.884,110.594 C87.781,110.594 85.266,113.109 85.266,116.211 C85.266,119.314 87.781,121.829 90.884,121.829 Z" id="Path" fill="#E8F2FE"></path>
                                <path d="M91.981,127.818 C91.488,127.62 90.938,127.62 90.445,127.818 L77.279,131.176 C76.94,131.321 76.652,131.563 76.449,131.871 C76.246,132.18 76.138,132.54 76.138,132.909 L76.138,138.417 C76.144,138.919 76.347,139.399 76.705,139.753 C77.062,140.106 77.544,140.304 78.047,140.304 L104.467,140.304 C104.97,140.304 105.452,140.106 105.809,139.753 C106.167,139.399 106.37,138.919 106.376,138.417 L106.376,132.909 C106.371,132.542 106.26,132.183 106.058,131.876 C105.856,131.569 105.571,131.326 105.235,131.176 L91.981,127.818 Z" id="Path" fill="#E8F2FE"></path>
                                <path d="M554.157,82.197 C556.35,82.197 558.129,80.419 558.129,78.226 C558.129,76.032 556.35,74.254 554.157,74.254 C551.963,74.254 550.185,76.032 550.185,78.226 C550.185,80.419 551.963,82.197 554.157,82.197 Z" id="Path" fill="#E8F2FE"></path>
                                <path d="M555.013,86.191 C554.674,86.059 554.298,86.059 553.959,86.191 L545.006,88.385 C544.781,88.49 544.591,88.658 544.459,88.868 C544.327,89.078 544.258,89.322 544.259807,89.57 L544.259807,93.323 C544.257,93.494 544.289,93.665 544.352,93.825 C544.416,93.984 544.511,94.13 544.632,94.252 C544.752,94.375 544.896,94.472 545.054,94.539 C545.213,94.605 545.383,94.639 545.555,94.639 L563.417,94.639 C563.589,94.639 563.759,94.605 563.918,94.539 C564.076,94.472 564.22,94.375 564.34,94.252 C564.461,94.13 564.556,93.984 564.619,93.825 C564.683,93.665 564.715,93.494 564.712193,93.323 L564.712193,89.68 C564.715,89.429 564.644,89.182 564.507,88.971 C564.37,88.76 564.174,88.595 563.944,88.495 L555.013,86.191 Z" id="Path" fill="#E8F2FE"></path>
                                <path d="M310.583,251.164 C312.777,251.164 314.555,249.386 314.555,247.192 C314.555,244.999 312.777,243.221 310.583,243.221 C308.39,243.221 306.611,244.999 306.611,247.192 C306.611,249.386 308.39,251.164 310.583,251.164 Z" id="Path" fill="#E8F2FE"></path>
                                <path d="M311.439,255.158 C311.1,255.026 310.724,255.026 310.386,255.158 L301.433,257.462 C301.208,257.567 301.018,257.735 300.885,257.945 C300.753,258.155 300.684,258.399 300.685909,258.647 L300.685909,262.399 C300.684,262.571 300.715,262.742 300.779,262.901 C300.842,263.061 300.937,263.206 301.058,263.329 C301.178,263.451 301.322,263.549 301.481,263.615 C301.639,263.682 301.809,263.716 301.981,263.716 L319.843,263.716 C320.015,263.716 320.185,263.682 320.344,263.615 C320.502,263.549 320.646,263.451 320.767,263.329 C320.887,263.206 320.982,263.061 321.046,262.901 C321.109,262.742 321.141,262.571 321.138193,262.399 L321.138193,258.647 C321.141,258.395 321.07,258.149 320.933,257.938 C320.797,257.727 320.601,257.561 320.37,257.462 L311.439,255.158 Z" id="Path" fill="#E8F2FE"></path>
                                <path d="M305.514,21.4571 C307.526,21.4571 309.157,19.8263 309.157,17.8145 C309.157,15.8027 307.526,14.1719 305.514,14.1719 C303.502,14.1719 301.871,15.8027 301.871,17.8145 C301.871,19.8263 303.502,21.4571 305.514,21.4571 Z" id="Path" fill="#F0F6FD"></path>
                                <path d="M624.486,314.668 C626.497,314.668 628.128,313.037 628.128,311.025 C628.128,309.014 626.497,307.383 624.486,307.383 C622.474,307.383 620.843,309.014 620.843,311.025 C620.843,313.037 622.474,314.668 624.486,314.668 Z" id="Path" fill="#267EDC"></path>
                                <path d="M205.802,189.852 C208.541,189.852 210.762,187.632 210.762,184.893 C210.762,182.154 208.541,179.934 205.802,179.934 C203.063,179.934 200.843,182.154 200.843,184.893 C200.843,187.632 203.063,189.852 205.802,189.852 Z" id="Path" fill="#F0F6FD"></path>
                                <path d="M92.881,121.168 C94.892,121.168 96.523,119.537 96.523,117.525 C96.523,115.514 94.892,113.883 92.881,113.883 C90.869,113.883 89.238,115.514 89.238,117.525 C89.238,119.537 90.869,121.168 92.881,121.168 Z" id="Path" fill="#F0F6FD"></path>
                                <path d="M91.059,130.977 L81.514,133.368 C81.26,133.482 81.044,133.667 80.892,133.901 C80.74,134.134 80.659,134.407 80.6578267,134.685 L80.6578267,138.854 C80.655,139.045 80.691,139.235 80.762,139.412 C80.834,139.589 80.941,139.75 81.076,139.885 C81.211,140.02 81.372,140.127 81.549,140.198 C81.726,140.27 81.915,140.306 82.106,140.303 L104.972,140.303 C105.356,140.303 105.724,140.15 105.996,139.878 C106.267,139.607 106.42,139.238 106.42,138.854 L106.42,134.685 L91.059,130.977 Z" id="Path" fill="#F0F6FD"></path>
                                <path d="M555.473,81.516 C556.564,81.516 557.448,80.632 557.448,79.541 C557.448,78.451 556.564,77.566 555.473,77.566 C554.382,77.566 553.498,78.451 553.498,79.541 C553.498,80.632 554.382,81.516 555.473,81.516 Z" id="Path" fill="#F0F6FD"></path>
                                <path d="M554.091,89.131 L546.893,90.821 L546.893,93.893 C546.931,94.149 547.066,94.38 547.271,94.54 C547.475,94.699 547.732,94.774 547.99,94.748 L563.351,94.748 C563.609,94.774 563.866,94.699 564.07,94.54 C564.275,94.38 564.41,94.149 564.448,93.893 L563.636,91.545 L554.091,89.131 Z" id="Path" fill="#F0F6FD"></path>
                                <path d="M311.899,250.483 C312.99,250.483 313.874,249.599 313.874,248.508 C313.874,247.417 312.99,246.533 311.899,246.533 C310.809,246.533 309.925,247.417 309.925,248.508 C309.925,249.599 310.809,250.483 311.899,250.483 Z" id="Path" fill="#F0F6FD"></path>
                                <path d="M310.517,258.096 L303.32,259.785 L303.32,262.857 C303.358,263.114 303.493,263.345 303.697,263.505 C303.901,263.664 304.159,263.739 304.417,263.713 L319.777,263.713 C320.035,263.739 320.293,263.664 320.497,263.505 C320.701,263.345 320.836,263.114 320.874,262.857 L320.063,260.51 L310.517,258.096 Z" id="Path" fill="#F0F6FD"></path>
                                <path d="M303.21,23.1916 C301.408,23.1268 299.699,22.3731 298.436,21.086 C297.173,19.7989 296.451,18.0763 296.42,16.2731 C296.39,14.47 297.051,12.7237 298.27,11.3939 C299.488,10.0642 301.17,9.2524 302.969,9.1258 C303.894,9.0851 304.817,9.2313 305.684,9.5555 C306.551,9.8798 307.344,10.3754 308.016,11.0129 C308.69,11.6454 309.231,12.4058 309.608,13.2497 C309.984,14.0937 310.189,15.0043 310.21,15.9283 C310.258,17.7898 309.571,19.5954 308.298,20.9545 C307.025,22.3137 305.268,23.1173 303.408,23.1916 L303.21,23.1916 Z M303.21,11.2982 L303.056,11.2982 C302.098,11.3297 301.171,11.6445 300.392,12.2027 C299.613,12.7609 299.016,13.5375 298.678,14.4345 C298.34,15.3315 298.275,16.3085 298.492,17.2423 C298.709,18.176 299.198,19.0245 299.897,19.6806 C300.839,20.5474 302.083,21.0119 303.364,20.9753 C304,20.9549 304.627,20.8087 305.207,20.5451 C305.787,20.2814 306.309,19.9056 306.743,19.4393 C307.616,18.4986 308.088,17.2551 308.06,15.9722 C308.014,14.7146 307.484,13.5234 306.58,12.6481 C305.676,11.7727 304.468,11.2811 303.21,11.2763 L303.21,11.2982 Z" id="Shape" fill="#B1D4F8"></path>
                                <path d="M622.84,315.744 C621.038,315.68 619.329,314.926 618.066,313.639 C616.803,312.352 616.082,310.629 616.051,308.826 C616.02,307.023 616.681,305.276 617.9,303.947 C619.118,302.617 620.8,301.805 622.599,301.679 C623.524,301.638 624.447,301.784 625.314,302.108 C626.182,302.433 626.975,302.928 627.646,303.566 C628.318,304.2 628.858,304.96 629.234,305.804 C629.611,306.648 629.817,307.557 629.84,308.481 C629.888,310.343 629.201,312.148 627.928,313.507 C626.655,314.866 624.898,315.67 623.038,315.744 L622.84,315.744 Z M622.84,303.873 L622.665,303.873 C621.316,303.896 620.032,304.451 619.091,305.416 C618.15,306.382 617.628,307.68 617.64,309.029 C617.651,310.377 618.195,311.666 619.153,312.616 C620.11,313.565 621.404,314.098 622.752,314.098 C624.101,314.098 625.395,313.565 626.352,312.616 C627.31,311.666 627.854,310.377 627.865,309.029 C627.877,307.68 627.355,306.382 626.414,305.416 C625.473,304.451 624.188,303.896 622.84,303.873 L622.84,303.873 Z" id="Shape" fill="#2665B0"></path>
                                <path d="M204.157,191.586 C202.503,191.586 200.887,191.096 199.512,190.177 C198.137,189.259 197.066,187.953 196.433,186.425 C195.8,184.897 195.634,183.216 195.957,181.595 C196.28,179.973 197.076,178.483 198.245,177.314 C199.414,176.145 200.904,175.348 202.526,175.026 C204.148,174.703 205.829,174.869 207.356,175.502 C208.884,176.134 210.19,177.206 211.108,178.581 C212.027,179.956 212.517,181.572 212.517,183.226 C212.517,185.443 211.637,187.57 210.069,189.137 C208.501,190.705 206.374,191.586 204.157,191.586 L204.157,191.586 Z M204.157,177.06 C202.937,177.06 201.745,177.421 200.731,178.099 C199.717,178.776 198.927,179.739 198.46,180.866 C197.993,181.993 197.871,183.233 198.109,184.429 C198.347,185.625 198.934,186.724 199.797,187.586 C200.659,188.448 201.758,189.035 202.954,189.273 C204.15,189.511 205.39,189.389 206.517,188.923 C207.643,188.456 208.606,187.665 209.284,186.651 C209.961,185.637 210.323,184.445 210.323,183.226 C210.323,181.59 209.673,180.022 208.517,178.866 C207.361,177.709 205.792,177.06 204.157,177.06 L204.157,177.06 Z" id="Shape" fill="#B1D4F8"></path>
                                <path d="M90.884,122.926 C89.556,122.926 88.258,122.532 87.153,121.794 C86.049,121.056 85.189,120.007 84.68,118.78 C84.172,117.553 84.039,116.203 84.298,114.901 C84.557,113.598 85.197,112.402 86.136,111.463 C87.075,110.524 88.271,109.884 89.574,109.625 C90.876,109.366 92.227,109.499 93.454,110.007 C94.681,110.515 95.729,111.376 96.467,112.48 C97.205,113.585 97.599,114.883 97.599,116.211 C97.593,117.99 96.884,119.694 95.626,120.952 C94.368,122.21 92.663,122.92 90.884,122.926 L90.884,122.926 Z M90.884,111.69 C89.99,111.69 89.116,111.956 88.373,112.452 C87.629,112.949 87.05,113.655 86.708,114.481 C86.366,115.307 86.276,116.216 86.45,117.093 C86.625,117.97 87.055,118.775 87.688,119.407 C88.32,120.039 89.125,120.47 90.002,120.644 C90.879,120.819 91.788,120.729 92.614,120.387 C93.44,120.045 94.146,119.466 94.642,118.722 C95.139,117.979 95.404,117.105 95.404,116.211 C95.404,115.012 94.928,113.862 94.08,113.014 C93.233,112.167 92.083,111.69 90.884,111.69 L90.884,111.69 Z" id="Shape" fill="#B1D4F8"></path>
                                <path d="M104.467,141.402 L77.937,141.402 C77.544,141.405 77.153,141.33 76.789,141.182 C76.424,141.033 76.092,140.814 75.813,140.536 C75.534,140.259 75.312,139.929 75.16,139.565 C75.009,139.202 74.9309826,138.812 74.9309826,138.418 L74.9309826,132.91 C74.929,132.33 75.099,131.762 75.419,131.277 C75.739,130.793 76.196,130.415 76.731,130.189 L90.182,126.766 C90.529,126.619 90.902,126.543 91.279,126.543 C91.656,126.543 92.029,126.619 92.376,126.766 L105.542,130.102 C106.116,130.311 106.611,130.689 106.964,131.187 C107.317,131.685 107.51,132.278 107.517,132.888 L107.517,138.396 C107.517,138.795 107.438,139.189 107.284,139.557 C107.131,139.925 106.905,140.258 106.621,140.538 C106.338,140.817 106.001,141.038 105.631,141.186 C105.261,141.335 104.866,141.408 104.467,141.402 L104.467,141.402 Z M91.301,128.763 C91.2,128.74 91.095,128.74 90.994,128.763 L77.521,132.186 C77.425,132.268 77.349,132.369 77.296,132.482 C77.243,132.596 77.215,132.719 77.213,132.844 L77.213,138.352 C77.219,138.564 77.307,138.765 77.459,138.912 C77.61,139.06 77.814,139.142 78.025,139.142 L104.467,139.142 C104.679,139.142 104.882,139.06 105.034,138.912 C105.185,138.765 105.273,138.564 105.279,138.352 L105.279,132.91 C105.276,132.756 105.228,132.606 105.143,132.478 C105.057,132.35 104.937,132.249 104.796,132.186 L91.63,128.895 L91.455,128.895 C91.409,128.845 91.357,128.801 91.301,128.763 L91.301,128.763 Z" id="Shape" fill="#B1D4F8"></path>
                                <path d="M554.157,83.294 C553.154,83.294 552.174,82.997 551.341,82.44 C550.507,81.883 549.857,81.091 549.474,80.165 C549.09,79.239 548.99,78.22 549.185,77.236 C549.381,76.253 549.864,75.35 550.573,74.641 C551.281,73.932 552.185,73.449 553.168,73.254 C554.151,73.058 555.17,73.158 556.097,73.542 C557.023,73.926 557.815,74.575 558.372,75.409 C558.929,76.243 559.226,77.223 559.226,78.225 C559.22,79.568 558.684,80.854 557.735,81.803 C556.785,82.753 555.499,83.288 554.157,83.294 L554.157,83.294 Z M554.157,75.373 C553.587,75.373 553.031,75.542 552.558,75.859 C552.084,76.175 551.716,76.626 551.499,77.152 C551.28203,77.679 551.226,78.258 551.339,78.816 C551.452,79.374 551.728,79.886 552.132,80.288 C552.536,80.689 553.051,80.961 553.61,81.069 C554.169,81.178 554.747,81.118 555.272,80.897 C555.797,80.676 556.244,80.304 556.558,79.828 C556.871,79.353 557.036,78.795 557.031,78.225 C557.026,77.467 556.72,76.741 556.182,76.207 C555.643,75.672 554.915,75.373 554.157,75.373 L554.157,75.373 Z" id="Shape" fill="#B1D4F8"></path>
                                <path d="M563.417,95.847 L545.533,95.847 C545.217,95.847 544.904,95.785 544.612,95.663 C544.321,95.541 544.056,95.363 543.834,95.139 C543.611,94.914 543.436,94.648 543.317,94.355 C543.198,94.063 543.138,93.749 543.140893,93.433 L543.140893,89.681 C543.140893,89.219 543.273,88.767 543.522,88.378 C543.771,87.989 544.126,87.68 544.545,87.487 L553.674,85.139 C554.202,84.925 554.792,84.925 555.32,85.139 L564.097,87.333 C564.552,87.498 564.947,87.795 565.232,88.186 C565.518,88.577 565.68,89.044 565.699,89.527 L565.699,93.28 C565.72,93.599 565.677,93.918 565.573,94.221 C565.469,94.523 565.307,94.801 565.094,95.04 C564.882,95.279 564.624,95.473 564.337,95.612 C564.049,95.75 563.736,95.83 563.417,95.847 L563.417,95.847 Z M545.335,89.549 C545.335,89.549 545.335,89.549 545.335,89.681 L545.335,93.433 C545.335,93.488 545.355,93.541 545.392,93.581 C545.428,93.622 545.478,93.647 545.533,93.653 L563.395,93.653 C563.451,93.648 563.504,93.623 563.544,93.583 C563.585,93.543 563.609,93.49 563.614,93.433 L563.614,89.681 L554.705,87.267 L554.53,87.267 L554.398,87.267 L545.269,89.615 L545.335,89.549 Z" id="Shape" fill="#B1D4F8"></path>
                                <path d="M310.583,252.261 C309.581,252.261 308.601,251.964 307.767,251.407 C306.933,250.85 306.284,250.058 305.9,249.132 C305.516,248.206 305.416,247.186 305.612,246.203 C305.807,245.22 306.29,244.317 306.999,243.608 C307.708,242.899 308.611,242.416 309.594,242.22 C310.577,242.025 311.597,242.125 312.523,242.509 C313.449,242.893 314.241,243.542 314.798,244.376 C315.355,245.209 315.652,246.189 315.652,247.192 C315.646,248.535 315.11,249.821 314.161,250.77 C313.212,251.719 311.926,252.255 310.583,252.261 Z M310.583,244.339 C310.014,244.339 309.457,244.509 308.984,244.825 C308.511,245.142 308.142,245.592 307.925,246.119 C307.708,246.646 307.653,247.225 307.765,247.783 C307.878,248.341 308.154,248.853 308.558,249.254 C308.963,249.656 309.477,249.928 310.036,250.036 C310.595,250.144 311.174,250.084 311.698,249.863 C312.223,249.642 312.671,249.271 312.984,248.795 C313.297,248.319 313.462,247.761 313.458,247.192 C313.452,246.433 313.147,245.708 312.608,245.174 C312.07,244.639 311.342,244.339 310.583,244.339 L310.583,244.339 Z" id="Shape" fill="#B1D4F8"></path>
                                <path d="M319.843,264.812 L301.959,264.812 C301.643,264.812 301.331,264.749 301.039,264.628 C300.747,264.506 300.483,264.328 300.26,264.104 C300.038,263.879 299.862,263.613 299.743,263.32 C299.624,263.028 299.565,262.714 299.566951,262.398 L299.566951,258.646 C299.566951,258.184 299.699,257.732 299.948,257.343 C300.197,256.954 300.552,256.645 300.972,256.451 L310.1,254.103 C310.628,253.89 311.218,253.89 311.746,254.103 L320.633,256.298 C321.088,256.463 321.483,256.76 321.769,257.151 C322.054,257.542 322.216,258.009 322.235,258.492 L322.235,262.245 C322.256,262.572 322.21,262.901 322.099,263.21 C321.989,263.52 321.816,263.803 321.592,264.044 C321.369,264.284 321.098,264.476 320.797,264.608 C320.496,264.74 320.172,264.81 319.843,264.812 Z M301.762,258.514 C301.762,258.514 301.762,258.514 301.762,258.646 L301.762,262.398 C301.762,262.453 301.782,262.505 301.818,262.546 C301.855,262.587 301.905,262.612 301.959,262.618 L319.821,262.618 C319.878,262.613 319.931,262.588 319.971,262.548 C320.011,262.508 320.036,262.455 320.041,262.398 L320.041,258.646 L311.132,256.232 L310.956,256.232 L310.825,256.232 L301.696,258.58 L301.762,258.514 Z" id="Shape" fill="#B1D4F8"></path>
                                <path d="M159.567,228.803 C161.579,228.803 163.21,227.172 163.21,225.16 C163.21,223.148 161.579,221.518 159.567,221.518 C157.556,221.518 155.925,223.148 155.925,225.16 C155.925,227.172 157.556,228.803 159.567,228.803 Z" id="Path" fill="#B1D4F8"></path>
                                <path d="M193.251,94.092 C195.263,94.092 196.893,92.461 196.893,90.449 C196.893,88.438 195.263,86.807 193.251,86.807 C191.239,86.807 189.608,88.438 189.608,90.449 C189.608,92.461 191.239,94.092 193.251,94.092 Z" id="Path" fill="#B1D4F8"></path>
                                <path d="M284.382,108.617 C286.394,108.617 288.025,106.986 288.025,104.975 C288.025,102.963 286.394,101.332 284.382,101.332 C282.371,101.332 280.74,102.963 280.74,104.975 C280.74,106.986 282.371,108.617 284.382,108.617 Z" id="Path" fill="#B1D4F8"></path>
                                <path d="M446.172,7.59 C448.184,7.59 449.815,5.9591 449.815,3.9473 C449.815,1.9355 448.184,0.3047 446.172,0.3047 C444.161,0.3047 442.53,1.9355 442.53,3.9473 C442.53,5.9591 444.161,7.59 446.172,7.59 Z" id="Path" fill="#B1D4F8"></path>
                                <path d="M170.144,23.4337 C172.156,23.4337 173.787,21.8028 173.787,19.7911 C173.787,17.7793 172.156,16.1484 170.144,16.1484 C168.132,16.1484 166.501,17.7793 166.501,19.7911 C166.501,21.8028 168.132,23.4337 170.144,23.4337 Z" id="Path" fill="#B1D4F8"></path>
                                <path d="M73.066,283.617 C75.078,283.617 76.709,281.986 76.709,279.975 C76.709,277.963 75.078,276.332 73.066,276.332 C71.054,276.332 69.423,277.963 69.423,279.975 C69.423,281.986 71.054,283.617 73.066,283.617 Z" id="Path" fill="#B1D4F8"></path>
                                <path d="M3.724,300.801 C5.736,300.801 7.367,299.17 7.367,297.158 C7.367,295.146 5.736,293.516 3.724,293.516 C1.712,293.516 0.082,295.146 0.082,297.158 C0.082,299.17 1.712,300.801 3.724,300.801 Z" id="Path" fill="#B1D4F8"></path>
                                <path d="M535.988,247.959 C537.999,247.959 539.63,246.328 539.63,244.316 C539.63,242.305 537.999,240.674 535.988,240.674 C533.976,240.674 532.345,242.305 532.345,244.316 C532.345,246.328 533.976,247.959 535.988,247.959 Z" id="Path" fill="#B1D4F8"></path>
                                <path d="M434.301,174.668 C436.313,174.668 437.943,173.037 437.943,171.025 C437.943,169.014 436.313,167.383 434.301,167.383 C432.289,167.383 430.658,169.014 430.658,171.025 C430.658,173.037 432.289,174.668 434.301,174.668 Z" id="Path" fill="#B1D4F8"></path>
                                <path d="M646.276,151.539 C648.288,151.539 649.919,149.908 649.919,147.897 C649.919,145.885 648.288,144.254 646.276,144.254 C644.264,144.254 642.633,145.885 642.633,147.897 C642.633,149.908 644.264,151.539 646.276,151.539 Z" id="Path" fill="#B1D4F8"></path>
                                <path d="M617.398,293.799 C617.163,293.799 616.936,293.72 616.749,293.577 C616.563,293.435 616.429,293.235 616.367,293.009 L557.843,104.667 C557.785,104.527 557.756,104.376 557.759635,104.224 C557.763,104.072 557.798,103.922 557.862,103.784 C557.926,103.646 558.019,103.523 558.133,103.423 C558.247,103.323 558.381,103.247 558.526,103.201 C558.671,103.156 558.824,103.14 558.975,103.157 C559.127,103.173 559.273,103.221 559.405,103.297 C559.536,103.373 559.651,103.475 559.741,103.598 C559.831,103.721 559.895,103.861 559.928,104.009 L618.451,292.373 C618.495,292.51 618.511,292.654 618.498,292.797 C618.485,292.94 618.444,293.079 618.376,293.206 C618.309,293.333 618.217,293.445 618.105,293.535 C617.994,293.626 617.865,293.693 617.727,293.733 C617.623,293.776 617.511,293.799 617.398,293.799 Z" id="Path" fill="#B1D4F8"></path>
                                <path d="M60.119,401.345 L59.987,401.345 C59.7,401.311 59.437,401.166 59.256,400.94 C59.075,400.714 58.991,400.426 59.022,400.138 L72.188,289.652 C72.204,289.51 72.249,289.373 72.318,289.249 C72.388,289.124 72.482,289.015 72.594,288.927 C72.706,288.84 72.835,288.775 72.972,288.737 C73.11,288.699288 73.254,288.69 73.395,288.708 C73.683,288.741 73.945,288.887 74.126,289.113 C74.307,289.339 74.391,289.627 74.36,289.915 L61.326,400.379 C61.288,400.664 61.141,400.924 60.916,401.104 C60.691,401.283 60.406,401.37 60.119,401.345 L60.119,401.345 Z" id="Path" fill="#B1D4F8"></path>
                                <path d="M73.175,271.681 L73,271.681 C72.857,271.659 72.72,271.61 72.596,271.535 C72.473,271.461 72.365,271.363 72.28,271.247 C72.194,271.13 72.132,270.998 72.098,270.858 C72.063,270.718 72.056,270.573 72.078,270.43 L89.106,154.458 C89.147,154.167 89.302,153.904 89.536,153.727 C89.653,153.64 89.785,153.576 89.926,153.539 C90.067,153.503843 90.213,153.494 90.357,153.515 C90.501,153.535 90.64,153.583 90.765,153.657 C90.891,153.731 91,153.828 91.088,153.945 C91.176,154.061 91.24,154.193 91.276,154.334 C91.313,154.475 91.321,154.621 91.301,154.765 L74.251,270.737 C74.214,270.997 74.085,271.235 73.888,271.408 C73.691,271.581 73.438,271.678 73.175,271.681 L73.175,271.681 Z" id="Path" fill="#B1D4F8"></path>
                                <path d="M152.326,218.885 C152.161,218.886015 151.998,218.849 151.849,218.776 C151.701,218.704 151.571,218.599 151.47,218.468 L100.671,152.33 C100.514,152.099 100.451,151.817 100.495,151.541 C100.54,151.265 100.687,151.017 100.908,150.846 C101.129,150.675 101.407,150.595 101.685,150.622 C101.963,150.649 102.22,150.781 102.404,150.992 L153.204,217.129 C153.335,217.29 153.417,217.485 153.44,217.691 C153.463,217.898 153.426,218.106 153.334,218.292 C153.241,218.477 153.096,218.632 152.917,218.737 C152.739,218.843 152.533,218.894 152.326,218.885 Z" id="Path" fill="#B1D4F8"></path>
                                <path d="M172.119,331.17 C171.854,331.168 171.598,331.072 171.397,330.899 C171.196,330.726 171.063,330.488 171.022,330.226 L158.448,234.728 C158.411,234.44 158.489,234.149 158.666,233.918 C158.843,233.688 159.104,233.537 159.392,233.499 C159.679,233.467 159.967,233.548 160.196,233.724 C160.425,233.9 160.577,234.157 160.621,234.442 L173.216,329.941 C173.247,330.231 173.164,330.522 172.983,330.752 C172.803,330.981 172.54,331.131 172.251,331.17 L172.119,331.17 Z" id="Path" fill="#B1D4F8"></path>
                                <path d="M188.62,337.248063 C188.434,337.25 188.249,337.204 188.084,337.116 C187.92,337.028 187.78,336.9 187.677,336.744 C187.6,336.621 187.549,336.485 187.525,336.343 C187.501,336.2 187.506,336.054 187.538,335.914 C187.571,335.773 187.631,335.64 187.715,335.523 C187.799,335.406 187.905,335.306 188.028,335.23 L295.881,265.998 C296.125,265.858 296.413,265.818 296.686,265.885 C296.959,265.952 297.195,266.121 297.347,266.357 C297.499,266.594 297.555,266.879 297.502,267.155 C297.45,267.431 297.294,267.677 297.066,267.841 L189.213,337.073 C189.034,337.181 188.83,337.241 188.62,337.248063 L188.62,337.248063 Z" id="Path" fill="#B1D4F8"></path>
                                <path d="M322.806,248.267011 C322.628,248.265 322.453,248.22 322.296,248.136 C322.139,248.052 322.006,247.931 321.906,247.784 C321.823,247.666 321.765,247.534 321.735,247.393 C321.704,247.253 321.702,247.108 321.729,246.967 C321.756,246.825 321.81,246.691 321.89,246.571 C321.969,246.452 322.072,246.349 322.191,246.27 L423.768,176.226 C424.007,176.065 424.3,176.005 424.584,176.058 C424.867,176.111 425.118,176.274 425.282,176.511 C425.446,176.751 425.511,177.046 425.462,177.333 C425.413,177.619 425.254,177.876 425.019,178.047 L323.42,248.069 C323.242,248.199 323.026,248.268 322.806,248.267011 L322.806,248.267011 Z" id="Path" fill="#B1D4F8"></path>
                                <path d="M438.887,164.684011 C438.709,164.684011 438.533,164.64 438.376,164.556 C438.219,164.472 438.086,164.35 437.987,164.201 C437.904,164.082 437.846,163.947 437.815,163.805 C437.784,163.663 437.782,163.516 437.809,163.373 C437.835,163.231 437.89,163.094 437.97,162.973 C438.049,162.851 438.152,162.747 438.273,162.665 L536.47,95.847 C536.587,95.745 536.724,95.669 536.872,95.624 C537.021,95.579 537.177,95.565 537.331,95.585 C537.484,95.605 537.632,95.657 537.765,95.738 C537.897,95.819 538.01,95.927 538.098,96.055 C538.185,96.183 538.245,96.328 538.272,96.48 C538.299,96.633 538.294,96.79 538.256,96.94 C538.218,97.09 538.149,97.231 538.053,97.353 C537.957,97.475 537.836,97.575 537.699,97.646 L439.501,164.486 C439.323,164.616 439.108,164.685 438.887,164.684011 L438.887,164.684011 Z" id="Path" fill="#B1D4F8"></path>
                                <path d="M534.407,81.648 L534.122,81.648 L315.454,20.8645 C315.163,20.7859 314.916,20.595 314.765,20.3337 C314.61433,20.0724 314.575,19.7621 314.654,19.4711 C314.732,19.1801 314.923,18.9322 315.184,18.782 C315.446,18.6318 315.756,18.5916 316.047,18.6702 L534.715,79.454 C534.993,79.531 535.23,79.715 535.374,79.965 C535.519631,80.216 535.557,80.513 535.483,80.792 C535.421,81.033 535.282,81.246 535.088,81.4 C534.894,81.555 534.655,81.642 534.407,81.648 L534.407,81.648 Z" id="Path" fill="#B1D4F8"></path>
                                <path d="M287.696,99.049 L287.542,99.049 C287.253,99.006 286.991,98.85 286.815,98.617 C286.639,98.383 286.561,98.089 286.599,97.799 L295.793,28.9835 C295.837,28.6981 295.989,28.4405 296.218,28.2647 C296.447,28.0889 296.735,28.0083 297.022,28.0399 C297.167,28.0587 297.306,28.1062 297.432,28.1796 C297.558,28.2529 297.668,28.3507 297.756,28.4672 C297.844,28.5837 297.908,28.7165 297.944,28.8579 C297.98,28.9993 297.987,29.1464 297.965,29.2907 L288.793,98.106 C288.751,98.367 288.618,98.606 288.417,98.779 C288.217,98.952 287.961,99.047 287.696,99.049 Z" id="Path" fill="#B1D4F8"></path>
                                <path d="M422.1,169.466 C421.942,169.509 421.775,169.509 421.617,169.466 L293.796,107.827 C293.534,107.699 293.334,107.472 293.239,107.196 C293.145,106.921 293.163,106.619 293.291,106.357 C293.419,106.095 293.646,105.894 293.922,105.8 C294.198,105.705 294.5,105.724 294.762,105.852 L422.649,167.382 C422.94,167.443 423.194,167.617 423.357,167.866 C423.52,168.115 423.577,168.418 423.515,168.709 C423.454,169 423.28,169.255 423.031,169.418 C422.782,169.58 422.479,169.637 422.188,169.576 L422.1,169.466 Z" id="Path" fill="#B1D4F8"></path>
                                <path d="M527.978,238.853 C527.751,238.852 527.529,238.783 527.341,238.655 L443.649,177.389 C443.417,177.214 443.263,176.956 443.218,176.67 C443.173,176.383 443.241,176.09 443.407,175.853 C443.582,175.62 443.842,175.466 444.13,175.425 C444.418,175.384 444.711,175.459 444.943,175.634 L528.636,236.878 C528.82,237.016 528.956,237.209 529.025,237.429 C529.094,237.648 529.092,237.884 529.019,238.103 C528.946,238.321 528.806,238.511 528.619,238.646 C528.433,238.78 528.208,238.853 527.978,238.853 L527.978,238.853 Z" id="Path" fill="#B1D4F8"></path>
                                <path d="M210.103,172.14512 C209.951,172.147 209.799,172.117 209.66,172.056 C209.52,171.996 209.394,171.906 209.291,171.794 C209.188,171.692 209.107,171.57 209.051,171.437 C208.995,171.303 208.967,171.159 208.967,171.015 C208.967,170.87 208.995,170.726 209.051,170.593 C209.107,170.459 209.188,170.338 209.291,170.236 L275.912,110.308 C276.014,110.19 276.14,110.095 276.282,110.029 C276.423,109.964 276.578,109.929 276.734,109.927977 C276.89,109.927 277.044,109.959 277.187,110.022 C277.33,110.085 277.457,110.178 277.561,110.295 C277.665,110.411 277.743,110.548 277.789,110.697 C277.836,110.846 277.85,111.004 277.831,111.159 C277.812,111.313 277.76,111.463 277.679,111.596 C277.598,111.729 277.489,111.844 277.36,111.931 L210.827,171.859 C210.732,171.952 210.618,172.026 210.494,172.075 C210.37,172.124 210.237,172.147 210.103,172.14512 L210.103,172.14512 Z" id="Path" fill="#B1D4F8"></path>
                                <path d="M462.147,361.495 C461.929,361.502 461.714,361.44 461.533,361.32 L324.385,267.818 C324.183,267.642 324.053,267.397 324.019,267.131 C323.985,266.864 324.049,266.595 324.201,266.373 C324.352,266.151 324.58,265.993 324.84,265.927 C325.101,265.862 325.376,265.894406 325.614,266.019 L462.762,359.498 C462.968,359.622 463.128,359.811 463.214,360.036 C463.301,360.261 463.309,360.508 463.239,360.738 C463.168,360.968 463.022,361.168 462.824,361.305 C462.626,361.443 462.388,361.51 462.147,361.495 L462.147,361.495 Z" id="Path" fill="#B1D4F8"></path>
                                <path d="M296.473,248.267408 C296.246,248.266 296.025,248.197 295.837,248.069 L214.185,191.477 C214.058,191.398 213.949,191.295 213.864,191.173 C213.779,191.051 213.719,190.912 213.689,190.767 C213.659,190.621 213.659,190.47 213.689,190.325 C213.718,190.179 213.778,190.04 213.863,189.918 C213.948,189.796 214.056,189.692 214.183,189.613 C214.309,189.535 214.45,189.482 214.597,189.46 C214.745,189.437 214.895,189.445 215.039,189.482 C215.183,189.52 215.318,189.586 215.436,189.677 L297.153,246.27 C297.387,246.437 297.545,246.69 297.595,246.973 C297.644,247.256 297.58,247.547 297.417,247.784 C297.313,247.937 297.172,248.062 297.007,248.147 C296.842,248.231 296.658,248.272 296.473,248.267408 L296.473,248.267408 Z" id="Path" fill="#B1D4F8"></path>
                                <path d="M191.561,177.47705 C191.384,177.475 191.211,177.43 191.056,177.345 L116.273,139.405 C116.133,139.347 116.007,139.261 115.903,139.152 C115.798,139.043 115.718,138.914 115.665,138.772 C115.613,138.631 115.59,138.48 115.599,138.33 C115.608,138.179 115.647,138.032 115.715,137.897 C115.783,137.762 115.878,137.643 115.995,137.547 C116.111,137.451 116.246,137.38 116.391,137.338 C116.536,137.296 116.688,137.285 116.837,137.304 C116.987,137.324 117.131,137.374 117.26,137.452 L192.066,175.392 C192.32,175.528 192.511,175.758 192.598,176.033 C192.684,176.308 192.658,176.606 192.526,176.863 C192.442,177.047 192.306,177.203 192.134,177.312 C191.963,177.421 191.764,177.479 191.561,177.47705 L191.561,177.47705 Z" id="Path" fill="#B1D4F8"></path>
                                <path d="M316.222,355.79 C315.942,355.79 315.673,355.684 315.469,355.492 C315.265,355.3 315.142,355.038 315.125,354.758 L310.736,269.178 C310.728,269.034 310.747,268.89 310.794,268.753 C310.841,268.617 310.915,268.491 311.011,268.383 C311.106,268.275 311.223,268.187 311.353,268.124 C311.483,268.061 311.624,268.024 311.768,268.015 C311.913,268.003 312.058,268.021 312.196,268.067 C312.334,268.113 312.461,268.186 312.57,268.282 C312.678,268.379 312.766,268.496 312.829,268.628 C312.891,268.759 312.925,268.902 312.931,269.047 L317.32,354.627 C317.328,354.771 317.309,354.915 317.262,355.052 C317.215,355.188 317.141,355.314 317.045,355.422 C316.95,355.53 316.833,355.618 316.703,355.682 C316.573,355.745 316.432,355.781 316.288,355.79 L316.222,355.79 Z" id="Path" fill="#B1D4F8"></path>
                                <path d="M475.006,355.417 C474.759,355.417 474.519,355.332 474.328,355.177 C474.136,355.021 474.003,354.803 473.953,354.562 L433.028,180.615 C432.964,180.324 433.018,180.019 433.179,179.768 C433.339,179.517 433.593,179.34 433.884,179.276 C434.175,179.212 434.479,179.266 434.731,179.427 C434.982,179.587 435.159,179.841 435.223,180.132 L476.147,354.057 C476.213,354.339 476.165,354.636 476.013,354.883 C475.861,355.129 475.617,355.306 475.335,355.373 L475.006,355.417 Z" id="Path" fill="#B1D4F8"></path>
                                <path d="M426.884,162.269 C426.732,162.27 426.581,162.239 426.441,162.179 C426.301,162.119 426.176,162.03 426.072,161.918 L308.652,29.1594 C308.451,28.9543 308.338,28.6786 308.338,28.3914 C308.338,28.1042 308.451,27.8285 308.652,27.6234 C308.754,27.5205 308.875,27.4389 309.009,27.3832 C309.143,27.3275 309.286,27.2988 309.431,27.2988 C309.576,27.2988 309.719,27.3275 309.853,27.3832 C309.987,27.4389 310.108,27.5205 310.21,27.6234 L427.718,160.492 C427.92,160.701 428.033,160.98 428.033,161.271 C428.033,161.562 427.92,161.841 427.718,162.05 C427.477,162.225 427.18,162.303 426.884,162.269 L426.884,162.269 Z" id="Path" fill="#B1D4F8"></path>
                                <path d="M624.947,293.799204 L624.771,293.799204 C624.487,293.751 624.233,293.592 624.065,293.358 C623.896,293.124 623.827,292.833 623.871,292.548 L645.266,160.887 C645.313,160.596 645.473,160.335 645.712,160.162 C645.95,159.99 646.248,159.919 646.539,159.965 C646.83,160.012 647.091,160.172 647.263,160.411 C647.436,160.649 647.507,160.947 647.461,161.238 L626.066,292.899 C626.014,293.157 625.874,293.388 625.669,293.552 C625.465,293.717 625.209,293.804 624.947,293.799204 Z" id="Path" fill="#B1D4F8"></path>
                                <path d="M639.166,139.513 C638.939,139.512 638.717,139.443 638.53,139.316 L574.74,94.661 C574.546,94.48 574.425,94.235 574.397,93.972 C574.37,93.708 574.439,93.444 574.591,93.227 C574.744,93.011 574.969,92.857 575.227,92.794 C575.484,92.73 575.755,92.7617359 575.99,92.883 L639.89,137.516 C640.081,137.649 640.224,137.839 640.3,138.059 C640.375,138.279 640.379,138.517 640.311,138.739 C640.243,138.961 640.106,139.156 639.92,139.295 C639.734,139.434 639.508,139.51 639.276,139.513 L639.166,139.513 Z" id="Path" fill="#B1D4F8"></path>
                                <path d="M541.385,70.765 C541.158,70.764 540.937,70.695 540.749,70.568 L454.752,8.7306 C454.634,8.6475 454.533,8.5417 454.455,8.4193 C454.377,8.2968 454.325,8.1603 454.3,8.0175 C454.276,7.8747 454.28,7.7284 454.312,7.5872 C454.345,7.4459 454.405,7.3125 454.489,7.1946 C454.664,6.9631 454.922,6.8086 455.208,6.7636 C455.495,6.7185 455.788,6.7865 456.025,6.9532 L542.022,68.79 C542.255,68.958 542.414,69.21 542.463,69.493 C542.512,69.777 542.448,70.068 542.285,70.304 C542.182,70.446 542.047,70.562 541.89,70.642 C541.734,70.722 541.561,70.764 541.385,70.765 L541.385,70.765 Z" id="Path" fill="#B1D4F8"></path>
                                <path d="M48.818,406.018537 C48.605,406.016 48.396,405.953 48.217,405.837 C48.038,405.72 47.897,405.555 47.809,405.36 L4.997,307.009 C4.92,306.875 4.872,306.727 4.856,306.574 C4.84,306.42 4.856,306.265 4.904,306.119 C4.952,305.972 5.031,305.838 5.134,305.723 C5.238,305.609 5.364,305.518 5.506,305.456 C5.647,305.394 5.799,305.362977 5.953,305.362977 C6.108,305.364 6.26,305.398 6.4,305.461 C6.541,305.525 6.666,305.618 6.768,305.733 C6.871,305.848 6.947,305.984 6.994,306.131 L49.827,404.482 C49.886,404.615 49.917,404.757 49.9201111,404.902 C49.922,405.047 49.897,405.19 49.844,405.325 C49.79,405.46 49.711,405.582 49.611,405.686 C49.51,405.79 49.39,405.873 49.257,405.931 C49.119,405.993 48.969,406.023 48.818,406.018537 L48.818,406.018537 Z" id="Path" fill="#B1D4F8"></path>
                                <path d="M5.984,288.467 C5.832,288.497 5.675,288.497 5.523,288.467 C5.392,288.406 5.273,288.319 5.175,288.212 C5.077,288.105 5.002,287.979 4.953,287.842 C4.904,287.705 4.882,287.56 4.89,287.415 C4.897,287.27 4.934,287.128 4.997,286.997 L72.188,147.743 C72.256,147.607 72.352,147.486 72.47,147.389 C72.588,147.293 72.725,147.222 72.873,147.183 C73.02,147.144 73.174,147.136 73.325,147.161 C73.475,147.185 73.619,147.242 73.746,147.326 C73.878,147.387 73.996,147.474 74.094,147.581 C74.192,147.689 74.268,147.814 74.317,147.951 C74.365,148.088 74.387,148.233 74.379,148.378 C74.372,148.523 74.335,148.665 74.273,148.796 L6.972,287.765 C6.899,287.97 6.766,288.147 6.589,288.272 C6.412,288.398 6.201,288.466 5.984,288.467 L5.984,288.467 Z" id="Path" fill="#B1D4F8"></path>
                                <path d="M13.182,295.664 C12.891,295.702 12.597,295.622 12.364,295.443 C12.132,295.264 11.98,295 11.942,294.709 C11.904,294.418 11.983,294.124 12.162,293.892 C12.341,293.659 12.605,293.507 12.896,293.469 L65.671,279.074 C65.815,279.036 65.965,279.025 66.113,279.045 C66.261,279.064 66.404,279.112 66.533,279.186 C66.663,279.261 66.776,279.36 66.867,279.478 C66.958,279.596 67.025,279.731 67.064,279.875 C67.1033362,280.019 67.113,280.17 67.094,280.318 C67.075,280.466 67.027,280.609 66.952,280.738 C66.878,280.867 66.779,280.981 66.66,281.072 C66.542,281.163 66.407,281.23 66.263,281.269 L13.467,295.664 L13.182,295.664 Z" id="Path" fill="#B1D4F8"></path>
                                <path d="M164.329,336.458 C164.119,336.454 163.915,336.393 163.736,336.282 L82.172,283.486 C82.043,283.412 81.93,283.313 81.84,283.194 C81.75,283.075 81.686,282.939 81.65,282.794 C81.615,282.649 81.609,282.499 81.634,282.352 C81.658,282.205 81.712,282.065 81.793,281.939 C81.873,281.814 81.979,281.707 82.102,281.623 C82.226,281.54 82.365,281.483 82.511,281.455 C82.658,281.427 82.808,281.429 82.953,281.462 C83.099,281.494 83.236,281.555 83.357,281.643 L164.921,334.439 C165.166,334.596 165.337,334.844 165.399,335.128 C165.461,335.412 165.407,335.708 165.251,335.953 C165.15,336.106 165.013,336.232 164.853,336.32 C164.692,336.408 164.512,336.455 164.329,336.458 L164.329,336.458 Z" id="Path" fill="#B1D4F8"></path>
                                <path d="M80.329,276.464211 C80.142,276.466 79.958,276.42 79.793,276.332 C79.628,276.244 79.488,276.116 79.385,275.959 C79.309,275.837 79.257,275.701 79.233,275.558 C79.209,275.416 79.214,275.27 79.247,275.13 C79.279,274.989 79.339,274.856 79.423,274.739 C79.507,274.621 79.614,274.522 79.737,274.445 L151.711,228.869 C151.832,228.771 151.972,228.701 152.121,228.661 C152.271,228.622 152.427,228.614 152.58,228.64 C152.733,228.665 152.879,228.722 153.008,228.808 C153.137,228.894 153.246,229.006 153.329,229.137 C153.411,229.268 153.465,229.415 153.487,229.568 C153.509,229.721 153.498037,229.877 153.455,230.026 C153.412,230.175 153.338,230.313 153.238,230.431 C153.138,230.549 153.014,230.645 152.874,230.712 L80.9,276.311 C80.728,276.415 80.53,276.468 80.329,276.464211 Z" id="Path" fill="#B1D4F8"></path>
                                <path d="M164.329,221.297 C164.023,221.289 163.732,221.164 163.517,220.946 C163.414,220.844 163.333,220.723 163.277,220.589 C163.221,220.455 163.193,220.312 163.193,220.167 C163.193,220.022 163.221,219.879 163.277,219.745 C163.333,219.611 163.414,219.49 163.517,219.388 L192.307,193.056 C192.516,192.853 192.795,192.74 193.086,192.74 C193.377,192.74 193.656,192.853 193.865,193.056 C193.968,193.158 194.05,193.279 194.105,193.413 C194.161,193.547 194.19,193.69 194.19,193.835 C194.19,193.98 194.161,194.123 194.105,194.257 C194.05,194.391 193.968,194.512 193.865,194.614 L165.075,220.946 C164.875,221.147 164.611,221.271 164.329,221.297 L164.329,221.297 Z" id="Path" fill="#B1D4F8"></path>
                                <path d="M117.633,119.325045 C117.416,119.327 117.203,119.263 117.023,119.142 C116.843,119.02 116.704,118.847 116.624,118.645 C116.57,118.511 116.544,118.368 116.545893,118.224 C116.548,118.079 116.578,117.937 116.635,117.804 C116.692,117.672 116.775,117.552 116.878,117.452 C116.982,117.351 117.104,117.272 117.238,117.219 L184.407,90.886 C184.678,90.779 184.98,90.783 185.248,90.898 C185.515,91.013 185.726,91.23 185.834,91.501 C185.941,91.771 185.937,92.074 185.822,92.341 C185.707,92.609 185.49,92.819 185.219,92.927 L118.028,119.259 C117.901,119.302 117.767,119.325045 117.633,119.325045 Z" id="Path" fill="#B1D4F8"></path>
                                <path d="M200.317,166.11 C200.048,166.107 199.79,166.008 199.589,165.831 C199.387,165.654 199.256,165.41 199.219,165.144 L192.022,97.953 C192.007,97.809 192.02,97.663 192.062,97.524 C192.103,97.385 192.172,97.256 192.264,97.144 C192.356,97.031 192.469,96.939 192.597,96.87 C192.725,96.802 192.865,96.76 193.009,96.746 C193.299,96.722 193.588,96.811 193.813,96.995 C194.038,97.18 194.183,97.444 194.216,97.734 L201.414,164.881 C201.429,165.025 201.415,165.171 201.374,165.31 C201.332,165.449 201.264,165.578 201.172,165.69 C201.08,165.803 200.967,165.896 200.839,165.964 C200.711,166.032 200.571,166.074 200.426,166.088 L200.317,166.11 Z" id="Path" fill="#B1D4F8"></path>
                                <path d="M197.925,86.9373979 C197.692,86.934 197.467,86.857 197.281,86.718 C197.095,86.579 196.958,86.384 196.89,86.162 C196.821,85.94 196.825,85.702 196.901,85.482 C196.976,85.263 197.12,85.073 197.31,84.94 L290.987,22.5541 C291.228,22.4249 291.509,22.3903 291.774,22.457 C292.039,22.5238 292.27,22.6871 292.421,22.9149 C292.572,23.1428 292.632,23.4189 292.59,23.689 C292.548,23.9592 292.407,24.204 292.194,24.3755 L198.517,86.761 C198.344,86.881 198.136,86.943 197.925,86.9373979 Z" id="Path" fill="#B1D4F8"></path>
                                <path d="M104.467,101.245134 C104.212,101.249 103.964,101.163 103.765,101.004 C103.542,100.82 103.401,100.555 103.372,100.267 C103.343,99.98 103.429,99.692 103.611,99.468 L163.473,25.1887 C163.654,24.9627 163.917,24.8173 164.205,24.7844 C164.493,24.7516 164.782,24.8338 165.009,25.0132 C165.237,25.1981 165.383,25.4649 165.416,25.7563 C165.448,26.0476 165.366,26.3402 165.185,26.5712 L105.213,100.938 C105.011,101.13 104.745,101.239 104.467,101.245134 L104.467,101.245134 Z" id="Path" fill="#B1D4F8"></path>
                                <path d="M178.724,19.7681 C178.433,19.7681 178.154,19.6525 177.948,19.4467 C177.743,19.241 177.627,18.9619 177.627,18.6709 C177.627,18.3799 177.743,18.1008 177.948,17.8951 C178.154,17.6893 178.433,17.5737 178.724,17.5737 L289.078,15.1819 C289.222,15.179 289.366,15.2045 289.5,15.2569 C289.634,15.3094 289.757,15.3878 289.861,15.4876 C289.965,15.5875 290.048,15.7068 290.106,15.8389 C290.163,15.9709 290.195,16.113 290.197241,16.2571 C290.2,16.4012 290.175,16.5444 290.122,16.6787 C290.07,16.8129 289.992,16.9355 289.892,17.0394 C289.792,17.1433 289.673,17.2266 289.54,17.2844 C289.408,17.3422 289.266,17.3734 289.122,17.3762 L178.746,19.7681 L178.724,19.7681 Z" id="Path" fill="#B1D4F8"></path>
                                <path d="M316.661,13.7774 C316.389,13.7729 316.128,13.6669 315.929,13.4803 C315.73,13.2937 315.608,13.0398 315.586,12.768 C315.571,12.6233 315.585,12.477 315.629,12.338 C315.672,12.199 315.743,12.0702 315.837,11.9594 C315.931,11.8486 316.047,11.7581 316.178,11.6934 C316.308,11.6287 316.45,11.5912 316.595,11.5831 L438.931,1.9937 C439.075,1.9822 439.22,1.9992 439.357,2.0437 C439.495,2.0882 439.622,2.1593 439.732,2.253 C439.842,2.3468 439.933,2.4612 439.999,2.59 C440.065,2.7187 440.104,2.8591 440.116,3.0031 C440.127,3.1472 440.11,3.2922 440.066,3.4297 C440.021,3.5672 439.95,3.6946 439.857,3.8047 C439.763,3.9147 439.648,4.0052 439.52,4.071 C439.391,4.1368 439.251,4.1766 439.106,4.1881 L316.749,13.7994 L316.661,13.7774 Z" id="Path" fill="#B1D4F8"></path>
                                <path d="M485.802,355.636 C485.658,355.669 485.508,355.669 485.363,355.636 C485.099,355.516 484.892,355.298 484.785,355.027 C484.679,354.757 484.681,354.456 484.793,354.188 L530.392,251.053 C530.438,250.906 530.515,250.77 530.617,250.655 C530.719,250.539 530.845,250.447 530.985,250.383 C531.125,250.319 531.278,250.284977 531.432,250.284977 C531.586,250.284977 531.739,250.316 531.88,250.378 C532.021,250.44 532.147,250.531 532.251,250.645 C532.355,250.759 532.433,250.894 532.481,251.041 C532.529,251.187 532.546,251.342 532.53,251.496 C532.514,251.649 532.466,251.797 532.389,251.931 L486.812,355.066 C486.714,355.245 486.567,355.394 486.389,355.495 C486.21,355.596 486.007,355.645 485.802,355.636 Z" id="Path" fill="#B1D4F8"></path>
                                <path d="M536.185,238.085 L536.053,238.085 C535.764,238.047 535.501,237.897 535.32,237.667 C535.14,237.438 535.057,237.147 535.088,236.857 L551.896,104.91 C551.913,104.765 551.958,104.626 552.028,104.499 C552.099,104.372 552.195,104.26 552.309,104.17 C552.423,104.08 552.554,104.014 552.694,103.975 C552.835,103.935354 552.981,103.926 553.125,103.944 C553.411,103.988 553.668,104.14 553.844,104.369 C554.02,104.598 554.101,104.886 554.069,105.173 L537.282,237.12 C537.245,237.386 537.114,237.629 536.913,237.806 C536.711,237.984 536.453,238.083 536.185,238.085 L536.185,238.085 Z" id="Path" fill="#B1D4F8"></path>
                                <path d="M179.909,329.458 L179.755,329.458 C179.611,329.44 179.473,329.392 179.348,329.319 C179.223,329.245 179.114,329.147 179.027,329.03 C178.941,328.913 178.88,328.78 178.847,328.639 C178.813,328.497 178.809,328.351 178.834,328.208 L199.68,194.791 C199.729,194.505 199.886,194.249 200.12,194.078 C200.353,193.906 200.644,193.831 200.931,193.869 C201.217,193.918 201.472,194.075 201.644,194.309 C201.816,194.542 201.891,194.833 201.853,195.12 L181.006,328.559 C180.955,328.812 180.818,329.041 180.618,329.205 C180.418,329.369 180.168,329.458 179.909,329.458 L179.909,329.458 Z" id="Path" fill="#B1D4F8"></path>
                                <path d="M608.16,300.471 C607.913,300.468 607.673,300.383 607.479,300.229 L542.702,249.759 C542.476,249.578 542.331,249.315 542.298,249.027 C542.265,248.74 542.347,248.45 542.526,248.223 C542.613,248.107 542.721,248.01 542.846,247.936 C542.971,247.863 543.109,247.816 543.252,247.798 C543.396,247.779 543.541,247.79 543.681,247.829 C543.82,247.868 543.95,247.935 544.062,248.026 L608.84,298.496 C609.066,298.677 609.211,298.94 609.244,299.228 C609.277,299.515 609.195,299.805 609.015,300.032 C608.917,300.166 608.788,300.276 608.639,300.352 C608.491,300.429 608.327,300.469 608.16,300.471 Z" id="Path" fill="#B1D4F8"></path>
                                <path d="M190.727,84.54601 C190.492,84.547 190.264,84.473 190.074,84.335 C189.884,84.197 189.744,84.001 189.674,83.778 L172.865,28.5895 C172.781,28.2985 172.815,27.9859 172.961,27.7205 C173.107,27.455 173.353,27.2585 173.644,27.1741 C173.935,27.0897 174.248,27.1244 174.513,27.2705 C174.778,27.4166 174.975,27.6621 175.059,27.9531 L191.868,83.141 C191.95,83.421 191.917,83.721 191.777,83.976 C191.637,84.231 191.401,84.42 191.122,84.502 L190.727,84.54601 Z" id="Path" fill="#B1D4F8"></path>
                                <path d="M309.64,239.489073 C309.382,239.492 309.132,239.403 308.935,239.238 C308.738,239.073 308.606,238.843 308.564,238.589 L286.621,113.511 C286.592,113.369 286.593,113.224 286.622,113.082 C286.651,112.941 286.708,112.807 286.79,112.688 C286.872,112.57 286.977,112.468 287.098,112.391 C287.22,112.314 287.356,112.262 287.498,112.238 C287.784,112.187 288.077,112.25 288.316,112.415 C288.554,112.579 288.718,112.831 288.771,113.116 L310.715,238.194 C310.743,238.336 310.743,238.481 310.714,238.623 C310.685,238.764 310.628,238.898 310.546,239.017 C310.464,239.135 310.359,239.236 310.237,239.314 C310.115,239.391 309.979,239.443 309.837,239.467 L309.64,239.489073 Z" id="Path" fill="#B1D4F8"></path>
                            </g>
                        </g>
                    </g>
                </g>
            </g>
            <g id="DB" transform="translate(665.000000, 120.000000)">
                <circle id="Oval" fill="#267FED" fill-rule="nonzero" cx="63" cy="87" r="57"></circle>
                <circle id="Oval" fill="#267EDC" fill-rule="nonzero" cx="63.5" cy="12.5" r="12.5"></circle>
                <polygon id="Path" fill="#267FED" points="59 60 59 18 67 18 67 60"></polygon>
                <path d="M3,88 C3,73.6405047 14.6086019,62 28.9285911,62 L98.0713782,62 C112.391337,62 124,73.6405047 124,88 C124,102.359495 112.391337,114 98.0713782,114 L28.9285911,114 C14.6086019,114 3,102.359495 3,88 Z" id="Path" fill="#FFFFFF"></path>
                <path d="M0,87.4998467 C0,71.7474863 12.7865871,59 28.5319424,59 L97.4680271,59 C113.213443,59 126,71.7474863 126,87.4998467 C126,103.252514 113.213443,116 97.4680271,116 L28.5319424,116 C12.7865871,116 0,103.252514 0,87.4998467 Z M28.5319424,64.3795803 C15.7230606,64.3795803 5.36169887,74.7434675 5.36169887,87.4998467 C5.36169887,100.256532 15.7230606,110.62042 28.5319424,110.62042 L97.4680271,110.62042 C110.277215,110.62042 120.638271,100.256532 120.638271,87.4998467 C120.638271,74.7434675 110.277215,64.3795803 97.4680271,64.3795803 L28.5319424,64.3795803 Z" id="Shape" fill="#267FED"></path>
                <path d="M22,88 C22,79 25.3454046,73 35.800061,73 L44.5818625,73 L45,73.4283543 L45,102.571342 L44.5818625,103 L35.800061,103 C25.3454046,103 22,97 22,88 Z" id="Path" fill="#267FED" fill-rule="nonzero"></path>
                <path d="M101,94.4283543 C101,90.5713417 98.8847282,88.4283543 96.3462786,87.5713417 L96.3462786,87.1426834 C98.4615503,86.2856709 100.153953,84.1426834 100.153953,81.1426834 C100.153953,75.1426834 95.9231007,73 91.2693793,73 L79.4231779,73 L79,73.4283543 L79,102.571342 L79.4231779,103 L92.1154262,103 C96.7694565,103 101,100.857013 101,94.4283543 Z" id="Path" fill="#267FED" fill-rule="nonzero"></path>
            </g>
        </g>
    </g>
</svg>