<svg width="991" height="382" viewBox="0 0 991 382" fill="none" xmlns="http://www.w3.org/2000/svg">
<rect width="991" height="382" fill="white"/>
<g clip-path="url(#clip0)">
<path d="M389.09 326.761C352.41 328.151 313.14 322.361 285.5 298.211C257.86 274.061 248.16 227.211 273.16 200.321C280.73 192.191 290.63 186.531 298.29 178.481C305.95 170.431 311.23 158.331 306.59 148.231C303.87 142.311 298.3 138.281 294.32 133.121C285.07 121.121 285.4 103.571 292.51 90.2109C299.62 76.8509 312.46 67.3209 326.23 61.0509C344.096 52.965 363.775 49.7265 383.29 51.6609C434 56.7709 478.94 96.1909 529.57 90.7709C557.86 87.7709 582.5 71.0309 608.57 59.6209C677.38 29.4709 761.65 37.8809 823.15 81.0009C839.88 92.7409 855.15 106.891 873.54 115.741C891.93 124.591 912.86 127.681 931.68 135.901C950.5 144.121 968.37 160.081 969.29 180.591C970.03 197.341 959.46 212.241 949.38 225.641L894.24 298.891C876.58 322.401 854 348.301 824.7 346.811C813.11 346.221 802.28 341.241 791.35 337.331C761.52 326.671 729.54 323.751 697.91 322.111C594.53 316.751 491.68 322.881 389.09 326.761Z" fill="#F0F6FD"/>
<mask id="mask0" mask-type="alpha" maskUnits="userSpaceOnUse" x="222" y="-1" width="769" height="348">
<path d="M257.75 239.71C257.89 261.25 267.99 283.78 284.5 298.21C312.14 322.36 351.41 328.15 388.09 326.76C490.68 322.88 593.53 316.76 696.91 322.11C728.54 323.75 760.53 326.67 790.35 337.33C801.28 341.24 812.11 346.22 823.7 346.81C853.03 348.3 875.58 322.4 893.24 298.93L937.81 239.71L990 239.5L991 -0.5H223L222 239.5L257.75 239.71Z" fill="#256FC7"/>
</mask>
<g mask="url(#mask0)">
<path d="M596.21 60.0946C599.494 60.0946 602.157 57.4322 602.157 54.1479C602.157 50.8636 599.494 48.2012 596.21 48.2012C592.926 48.2012 590.263 50.8636 590.263 54.1479C590.263 57.4322 592.926 60.0946 596.21 60.0946Z" fill="#E8F2FE"/>
<path d="M915.84 352.645C919.125 352.645 921.787 349.983 921.787 346.699C921.787 343.414 919.125 340.752 915.84 340.752C912.556 340.752 909.894 343.414 909.894 346.699C909.894 349.983 912.556 352.645 915.84 352.645Z" fill="#256FC7"/>
<path d="M497.157 228.49C501.168 228.49 504.42 225.238 504.42 221.226C504.42 217.215 501.168 213.963 497.157 213.963C493.145 213.963 489.893 217.215 489.893 221.226C489.893 225.238 493.145 228.49 497.157 228.49Z" fill="#E8F2FE"/>
<path d="M383.884 159.829C386.986 159.829 389.501 157.314 389.501 154.211C389.501 151.109 386.986 148.594 383.884 148.594C380.781 148.594 378.266 151.109 378.266 154.211C378.266 157.314 380.781 159.829 383.884 159.829Z" fill="#E8F2FE"/>
<path d="M384.981 165.818C384.488 165.62 383.938 165.62 383.445 165.818L370.279 169.176C369.94 169.321 369.652 169.563 369.449 169.871C369.246 170.18 369.138 170.54 369.138 170.909V176.417C369.144 176.919 369.347 177.399 369.705 177.753C370.062 178.106 370.544 178.304 371.047 178.304H397.467C397.97 178.304 398.452 178.106 398.809 177.753C399.167 177.399 399.37 176.919 399.376 176.417V170.909C399.371 170.542 399.26 170.183 399.058 169.876C398.856 169.569 398.571 169.326 398.235 169.176L384.981 165.818Z" fill="#E8F2FE"/>
<path d="M847.157 120.197C849.35 120.197 851.129 118.419 851.129 116.226C851.129 114.032 849.35 112.254 847.157 112.254C844.963 112.254 843.185 114.032 843.185 116.226C843.185 118.419 844.963 120.197 847.157 120.197Z" fill="#E8F2FE"/>
<path d="M848.013 124.191C847.674 124.059 847.298 124.059 846.959 124.191L838.006 126.385C837.781 126.49 837.591 126.658 837.459 126.868C837.327 127.078 837.258 127.322 837.26 127.57V131.323C837.257 131.494 837.289 131.665 837.352 131.825C837.416 131.984 837.511 132.13 837.632 132.252C837.752 132.375 837.896 132.472 838.054 132.539C838.213 132.605 838.383 132.639 838.555 132.639H856.417C856.589 132.639 856.759 132.605 856.918 132.539C857.076 132.472 857.22 132.375 857.34 132.252C857.461 132.13 857.556 131.984 857.619 131.825C857.683 131.665 857.715 131.494 857.712 131.323V127.68C857.715 127.429 857.644 127.182 857.507 126.971C857.37 126.76 857.174 126.595 856.944 126.495L848.013 124.191Z" fill="#E8F2FE"/>
<path d="M603.583 289.164C605.777 289.164 607.555 287.386 607.555 285.192C607.555 282.999 605.777 281.221 603.583 281.221C601.39 281.221 599.611 282.999 599.611 285.192C599.611 287.386 601.39 289.164 603.583 289.164Z" fill="#E8F2FE"/>
<path d="M604.439 293.158C604.1 293.026 603.724 293.026 603.386 293.158L594.433 295.462C594.208 295.567 594.018 295.735 593.885 295.945C593.753 296.155 593.684 296.399 593.686 296.647V300.399C593.684 300.571 593.715 300.742 593.779 300.901C593.842 301.061 593.937 301.206 594.058 301.329C594.178 301.451 594.322 301.549 594.481 301.615C594.639 301.682 594.809 301.716 594.981 301.716H612.843C613.015 301.716 613.185 301.682 613.344 301.615C613.502 301.549 613.646 301.451 613.767 301.329C613.887 301.206 613.982 301.061 614.046 300.901C614.109 300.742 614.141 300.571 614.138 300.399V296.647C614.141 296.395 614.07 296.149 613.933 295.938C613.797 295.727 613.601 295.561 613.37 295.462L604.439 293.158Z" fill="#E8F2FE"/>
<path d="M598.514 59.4571C600.526 59.4571 602.157 57.8263 602.157 55.8145C602.157 53.8027 600.526 52.1719 598.514 52.1719C596.502 52.1719 594.871 53.8027 594.871 55.8145C594.871 57.8263 596.502 59.4571 598.514 59.4571Z" fill="#F0F6FD"/>
<path d="M917.486 352.668C919.497 352.668 921.128 351.037 921.128 349.025C921.128 347.014 919.497 345.383 917.486 345.383C915.474 345.383 913.843 347.014 913.843 349.025C913.843 351.037 915.474 352.668 917.486 352.668Z" fill="#267EDC"/>
<path d="M498.802 227.852C501.541 227.852 503.762 225.632 503.762 222.893C503.762 220.154 501.541 217.934 498.802 217.934C496.063 217.934 493.843 220.154 493.843 222.893C493.843 225.632 496.063 227.852 498.802 227.852Z" fill="#F0F6FD"/>
<path d="M385.881 159.168C387.892 159.168 389.523 157.537 389.523 155.525C389.523 153.514 387.892 151.883 385.881 151.883C383.869 151.883 382.238 153.514 382.238 155.525C382.238 157.537 383.869 159.168 385.881 159.168Z" fill="#F0F6FD"/>
<path d="M384.059 168.977L374.514 171.368C374.26 171.482 374.044 171.667 373.892 171.901C373.74 172.134 373.659 172.407 373.658 172.685V176.854C373.655 177.045 373.691 177.235 373.762 177.412C373.834 177.589 373.941 177.75 374.076 177.885C374.211 178.02 374.372 178.127 374.549 178.198C374.726 178.27 374.915 178.306 375.106 178.303H397.972C398.356 178.303 398.724 178.15 398.996 177.878C399.267 177.607 399.42 177.238 399.42 176.854V172.685L384.059 168.977Z" fill="#F0F6FD"/>
<path d="M848.473 119.516C849.564 119.516 850.448 118.632 850.448 117.541C850.448 116.451 849.564 115.566 848.473 115.566C847.382 115.566 846.498 116.451 846.498 117.541C846.498 118.632 847.382 119.516 848.473 119.516Z" fill="#F0F6FD"/>
<path d="M847.091 127.131L839.893 128.821V131.893C839.931 132.149 840.066 132.38 840.271 132.54C840.475 132.699 840.732 132.774 840.99 132.748H856.351C856.609 132.774 856.866 132.699 857.07 132.54C857.275 132.38 857.41 132.149 857.448 131.893L856.636 129.545L847.091 127.131Z" fill="#F0F6FD"/>
<path d="M604.899 288.483C605.99 288.483 606.874 287.599 606.874 286.508C606.874 285.417 605.99 284.533 604.899 284.533C603.809 284.533 602.925 285.417 602.925 286.508C602.925 287.599 603.809 288.483 604.899 288.483Z" fill="#F0F6FD"/>
<path d="M603.517 296.096L596.32 297.785V300.857C596.358 301.114 596.493 301.345 596.697 301.505C596.901 301.664 597.159 301.739 597.417 301.713H612.777C613.035 301.739 613.293 301.664 613.497 301.505C613.701 301.345 613.836 301.114 613.874 300.857L613.063 298.51L603.517 296.096Z" fill="#F0F6FD"/>
<path d="M596.21 61.1916C594.408 61.1268 592.699 60.3731 591.436 59.086C590.173 57.7989 589.451 56.0763 589.42 54.2731C589.39 52.47 590.051 50.7237 591.27 49.3939C592.488 48.0642 594.17 47.2524 595.969 47.1258C596.894 47.0851 597.817 47.2313 598.684 47.5555C599.551 47.8798 600.344 48.3754 601.016 49.0129C601.69 49.6454 602.231 50.4058 602.608 51.2497C602.984 52.0937 603.189 53.0043 603.21 53.9283C603.258 55.7898 602.571 57.5954 601.298 58.9545C600.025 60.3137 598.268 61.1173 596.408 61.1916H596.21ZM596.21 49.2982H596.056C595.098 49.3297 594.171 49.6445 593.392 50.2027C592.613 50.7609 592.016 51.5375 591.678 52.4345C591.34 53.3315 591.275 54.3085 591.492 55.2423C591.709 56.176 592.198 57.0245 592.897 57.6806C593.839 58.5474 595.083 59.0119 596.364 58.9753C597 58.9549 597.627 58.8087 598.207 58.5451C598.787 58.2814 599.309 57.9056 599.743 57.4393C600.616 56.4986 601.088 55.2551 601.06 53.9722C601.014 52.7146 600.484 51.5234 599.58 50.6481C598.676 49.7727 597.468 49.2811 596.21 49.2763V49.2982Z" fill="#B1D4F8"/>
<path d="M915.84 353.744C914.038 353.68 912.329 352.926 911.066 351.639C909.803 350.352 909.082 348.629 909.051 346.826C909.02 345.023 909.681 343.276 910.9 341.947C912.118 340.617 913.8 339.805 915.599 339.679C916.524 339.638 917.447 339.784 918.314 340.108C919.182 340.433 919.975 340.928 920.646 341.566C921.318 342.2 921.858 342.96 922.234 343.804C922.611 344.648 922.817 345.557 922.84 346.481C922.888 348.343 922.201 350.148 920.928 351.507C919.655 352.866 917.898 353.67 916.038 353.744H915.84ZM915.84 341.873H915.665C914.316 341.896 913.032 342.451 912.091 343.416C911.15 344.382 910.628 345.68 910.64 347.029C910.651 348.377 911.195 349.666 912.153 350.616C913.11 351.565 914.404 352.098 915.752 352.098C917.101 352.098 918.395 351.565 919.352 350.616C920.31 349.666 920.854 348.377 920.865 347.029C920.877 345.68 920.355 344.382 919.414 343.416C918.473 342.451 917.188 341.896 915.84 341.873V341.873Z" fill="#2665B0"/>
<path d="M497.157 229.586C495.503 229.586 493.887 229.096 492.512 228.177C491.137 227.259 490.066 225.953 489.433 224.425C488.8 222.897 488.634 221.216 488.957 219.595C489.28 217.973 490.076 216.483 491.245 215.314C492.414 214.145 493.904 213.348 495.526 213.026C497.148 212.703 498.829 212.869 500.356 213.502C501.884 214.134 503.19 215.206 504.108 216.581C505.027 217.956 505.517 219.572 505.517 221.226C505.517 223.443 504.637 225.57 503.069 227.137C501.501 228.705 499.374 229.586 497.157 229.586V229.586ZM497.157 215.06C495.937 215.06 494.745 215.421 493.731 216.099C492.717 216.776 491.927 217.739 491.46 218.866C490.993 219.993 490.871 221.233 491.109 222.429C491.347 223.625 491.934 224.724 492.797 225.586C493.659 226.448 494.758 227.035 495.954 227.273C497.15 227.511 498.39 227.389 499.517 226.923C500.643 226.456 501.606 225.665 502.284 224.651C502.961 223.637 503.323 222.445 503.323 221.226C503.323 219.59 502.673 218.022 501.517 216.866C500.361 215.709 498.792 215.06 497.157 215.06V215.06Z" fill="#B1D4F8"/>
<path d="M383.884 160.926C382.556 160.926 381.258 160.532 380.153 159.794C379.049 159.056 378.189 158.007 377.68 156.78C377.172 155.553 377.039 154.203 377.298 152.901C377.557 151.598 378.197 150.402 379.136 149.463C380.075 148.524 381.271 147.884 382.574 147.625C383.876 147.366 385.227 147.499 386.454 148.007C387.681 148.515 388.729 149.376 389.467 150.48C390.205 151.585 390.599 152.883 390.599 154.211C390.593 155.99 389.884 157.694 388.626 158.952C387.368 160.21 385.663 160.92 383.884 160.926V160.926ZM383.884 149.69C382.99 149.69 382.116 149.956 381.373 150.452C380.629 150.949 380.05 151.655 379.708 152.481C379.366 153.307 379.276 154.216 379.45 155.093C379.625 155.97 380.055 156.775 380.688 157.407C381.32 158.039 382.125 158.47 383.002 158.644C383.879 158.819 384.788 158.729 385.614 158.387C386.44 158.045 387.146 157.466 387.642 156.722C388.139 155.979 388.404 155.105 388.404 154.211C388.404 153.012 387.928 151.862 387.08 151.014C386.233 150.167 385.083 149.69 383.884 149.69V149.69Z" fill="#B1D4F8"/>
<path d="M397.467 179.402H370.937C370.544 179.405 370.153 179.33 369.789 179.182C369.424 179.033 369.092 178.814 368.813 178.536C368.534 178.259 368.312 177.929 368.16 177.565C368.009 177.202 367.931 176.812 367.931 176.418V170.91C367.929 170.33 368.099 169.762 368.419 169.277C368.739 168.793 369.196 168.415 369.731 168.189L383.182 164.766C383.529 164.619 383.902 164.543 384.279 164.543C384.656 164.543 385.029 164.619 385.376 164.766L398.542 168.102C399.116 168.311 399.611 168.689 399.964 169.187C400.317 169.685 400.51 170.278 400.517 170.888V176.396C400.517 176.795 400.438 177.189 400.284 177.557C400.131 177.925 399.905 178.258 399.621 178.538C399.338 178.817 399.001 179.038 398.631 179.186C398.261 179.335 397.866 179.408 397.467 179.402V179.402ZM384.301 166.763C384.2 166.74 384.095 166.74 383.994 166.763L370.521 170.186C370.425 170.268 370.349 170.369 370.296 170.482C370.243 170.596 370.215 170.719 370.213 170.844V176.352C370.219 176.564 370.307 176.765 370.459 176.912C370.61 177.06 370.814 177.142 371.025 177.142H397.467C397.679 177.142 397.882 177.06 398.034 176.912C398.185 176.765 398.273 176.564 398.279 176.352V170.91C398.276 170.756 398.228 170.606 398.143 170.478C398.057 170.35 397.937 170.249 397.796 170.186L384.63 166.895H384.455C384.409 166.845 384.357 166.801 384.301 166.763V166.763Z" fill="#B1D4F8"/>
<path d="M847.157 121.294C846.154 121.294 845.174 120.997 844.341 120.44C843.507 119.883 842.857 119.091 842.474 118.165C842.09 117.239 841.99 116.22 842.185 115.236C842.381 114.253 842.864 113.35 843.573 112.641C844.281 111.932 845.185 111.449 846.168 111.254C847.151 111.058 848.17 111.158 849.097 111.542C850.023 111.926 850.815 112.575 851.372 113.409C851.929 114.243 852.226 115.223 852.226 116.225C852.22 117.568 851.684 118.854 850.735 119.803C849.785 120.753 848.499 121.288 847.157 121.294V121.294ZM847.157 113.373C846.587 113.373 846.031 113.542 845.558 113.859C845.084 114.175 844.716 114.626 844.499 115.152C844.282 115.679 844.226 116.258 844.339 116.816C844.452 117.374 844.728 117.886 845.132 118.288C845.536 118.689 846.051 118.961 846.61 119.069C847.169 119.178 847.747 119.118 848.272 118.897C848.797 118.676 849.244 118.304 849.558 117.828C849.871 117.353 850.036 116.795 850.031 116.225C850.026 115.467 849.72 114.741 849.182 114.207C848.643 113.672 847.915 113.373 847.157 113.373V113.373Z" fill="#B1D4F8"/>
<path d="M856.417 133.847H838.533C838.217 133.847 837.904 133.785 837.612 133.663C837.321 133.541 837.056 133.363 836.834 133.139C836.611 132.914 836.436 132.648 836.317 132.355C836.198 132.063 836.138 131.749 836.141 131.433V127.681C836.141 127.219 836.273 126.767 836.522 126.378C836.771 125.989 837.126 125.68 837.545 125.487L846.674 123.139C847.202 122.925 847.792 122.925 848.32 123.139L857.097 125.333C857.552 125.498 857.947 125.795 858.232 126.186C858.518 126.577 858.68 127.044 858.699 127.527V131.28C858.72 131.599 858.677 131.918 858.573 132.221C858.469 132.523 858.307 132.801 858.094 133.04C857.882 133.279 857.624 133.473 857.337 133.612C857.049 133.75 856.736 133.83 856.417 133.847V133.847ZM838.335 127.549C838.335 127.549 838.335 127.549 838.335 127.681V131.433C838.335 131.488 838.355 131.541 838.392 131.581C838.428 131.622 838.478 131.647 838.533 131.653H856.395C856.451 131.648 856.504 131.623 856.544 131.583C856.585 131.543 856.609 131.49 856.614 131.433V127.681L847.705 125.267H847.53H847.398L838.269 127.615L838.335 127.549Z" fill="#B1D4F8"/>
<path d="M603.583 290.261C602.581 290.261 601.601 289.964 600.767 289.407C599.933 288.85 599.284 288.058 598.9 287.132C598.516 286.206 598.416 285.186 598.612 284.203C598.807 283.22 599.29 282.317 599.999 281.608C600.708 280.899 601.611 280.416 602.594 280.22C603.577 280.025 604.597 280.125 605.523 280.509C606.449 280.893 607.241 281.542 607.798 282.376C608.355 283.209 608.652 284.189 608.652 285.192C608.646 286.535 608.11 287.821 607.161 288.77C606.212 289.719 604.926 290.255 603.583 290.261ZM603.583 282.339C603.014 282.339 602.457 282.509 601.984 282.825C601.511 283.142 601.142 283.592 600.925 284.119C600.708 284.646 600.653 285.225 600.765 285.783C600.878 286.341 601.154 286.853 601.558 287.254C601.963 287.656 602.477 287.928 603.036 288.036C603.595 288.144 604.174 288.084 604.698 287.863C605.223 287.642 605.671 287.271 605.984 286.795C606.297 286.319 606.462 285.761 606.458 285.192C606.452 284.433 606.147 283.708 605.608 283.174C605.07 282.639 604.342 282.339 603.583 282.339V282.339Z" fill="#B1D4F8"/>
<path d="M612.843 302.812H594.959C594.643 302.812 594.331 302.749 594.039 302.628C593.747 302.506 593.483 302.328 593.26 302.104C593.038 301.879 592.862 301.613 592.743 301.32C592.624 301.028 592.565 300.714 592.567 300.398V296.646C592.567 296.184 592.699 295.732 592.948 295.343C593.197 294.954 593.552 294.645 593.972 294.451L603.1 292.103C603.628 291.89 604.218 291.89 604.746 292.103L613.633 294.298C614.088 294.463 614.483 294.76 614.769 295.151C615.054 295.542 615.216 296.009 615.235 296.492V300.245C615.256 300.572 615.21 300.901 615.099 301.21C614.989 301.52 614.816 301.803 614.592 302.044C614.369 302.284 614.098 302.476 613.797 302.608C613.496 302.74 613.172 302.81 612.843 302.812ZM594.762 296.514C594.762 296.514 594.762 296.514 594.762 296.646V300.398C594.762 300.453 594.782 300.505 594.818 300.546C594.855 300.587 594.905 300.612 594.959 300.618H612.821C612.878 300.613 612.931 300.588 612.971 300.548C613.011 300.508 613.036 300.455 613.041 300.398V296.646L604.132 294.232H603.956H603.825L594.696 296.58L594.762 296.514Z" fill="#B1D4F8"/>
<path d="M452.567 266.803C454.579 266.803 456.21 265.172 456.21 263.16C456.21 261.148 454.579 259.518 452.567 259.518C450.556 259.518 448.925 261.148 448.925 263.16C448.925 265.172 450.556 266.803 452.567 266.803Z" fill="#B1D4F8"/>
<path d="M486.251 132.092C488.263 132.092 489.893 130.461 489.893 128.449C489.893 126.438 488.263 124.807 486.251 124.807C484.239 124.807 482.608 126.438 482.608 128.449C482.608 130.461 484.239 132.092 486.251 132.092Z" fill="#B1D4F8"/>
<path d="M577.382 146.617C579.394 146.617 581.025 144.986 581.025 142.975C581.025 140.963 579.394 139.332 577.382 139.332C575.371 139.332 573.74 140.963 573.74 142.975C573.74 144.986 575.371 146.617 577.382 146.617Z" fill="#B1D4F8"/>
<path d="M739.172 45.59C741.184 45.59 742.815 43.9591 742.815 41.9473C742.815 39.9355 741.184 38.3047 739.172 38.3047C737.161 38.3047 735.53 39.9355 735.53 41.9473C735.53 43.9591 737.161 45.59 739.172 45.59Z" fill="#B1D4F8"/>
<path d="M463.144 61.4337C465.156 61.4337 466.787 59.8028 466.787 57.7911C466.787 55.7793 465.156 54.1484 463.144 54.1484C461.132 54.1484 459.501 55.7793 459.501 57.7911C459.501 59.8028 461.132 61.4337 463.144 61.4337Z" fill="#B1D4F8"/>
<path d="M366.066 321.617C368.078 321.617 369.709 319.986 369.709 317.975C369.709 315.963 368.078 314.332 366.066 314.332C364.054 314.332 362.423 315.963 362.423 317.975C362.423 319.986 364.054 321.617 366.066 321.617Z" fill="#B1D4F8"/>
<path d="M296.724 338.801C298.736 338.801 300.367 337.17 300.367 335.158C300.367 333.146 298.736 331.516 296.724 331.516C294.712 331.516 293.082 333.146 293.082 335.158C293.082 337.17 294.712 338.801 296.724 338.801Z" fill="#B1D4F8"/>
<path d="M828.988 285.959C830.999 285.959 832.63 284.328 832.63 282.316C832.63 280.305 830.999 278.674 828.988 278.674C826.976 278.674 825.345 280.305 825.345 282.316C825.345 284.328 826.976 285.959 828.988 285.959Z" fill="#B1D4F8"/>
<path d="M727.301 212.668C729.313 212.668 730.943 211.037 730.943 209.025C730.943 207.014 729.313 205.383 727.301 205.383C725.289 205.383 723.658 207.014 723.658 209.025C723.658 211.037 725.289 212.668 727.301 212.668Z" fill="#B1D4F8"/>
<path d="M939.276 189.539C941.288 189.539 942.919 187.908 942.919 185.897C942.919 183.885 941.288 182.254 939.276 182.254C937.264 182.254 935.633 183.885 935.633 185.897C935.633 187.908 937.264 189.539 939.276 189.539Z" fill="#B1D4F8"/>
<path d="M910.398 331.799C910.163 331.798 909.936 331.72 909.749 331.577C909.563 331.435 909.429 331.235 909.367 331.009L850.843 142.667C850.785 142.527 850.756 142.376 850.76 142.224C850.763 142.072 850.798 141.922 850.862 141.784C850.926 141.646 851.019 141.523 851.133 141.423C851.247 141.323 851.381 141.247 851.526 141.201C851.671 141.156 851.824 141.14 851.975 141.157C852.127 141.173 852.273 141.221 852.405 141.297C852.536 141.373 852.651 141.475 852.741 141.598C852.831 141.721 852.895 141.861 852.928 142.009L911.451 330.373C911.495 330.51 911.511 330.654 911.498 330.797C911.485 330.94 911.444 331.079 911.376 331.206C911.309 331.333 911.217 331.445 911.105 331.535C910.994 331.626 910.865 331.693 910.727 331.733C910.623 331.776 910.511 331.798 910.398 331.799Z" fill="#B1D4F8"/>
<path d="M353.119 439.345H352.987C352.7 439.311 352.437 439.166 352.256 438.94C352.075 438.714 351.991 438.426 352.022 438.138L365.188 327.652C365.204 327.51 365.249 327.373 365.318 327.249C365.388 327.124 365.482 327.015 365.594 326.927C365.706 326.84 365.835 326.775 365.972 326.737C366.11 326.7 366.254 326.69 366.395 326.708C366.683 326.741 366.945 326.887 367.126 327.113C367.307 327.339 367.391 327.627 367.36 327.915L354.326 438.379C354.288 438.664 354.141 438.924 353.916 439.104C353.691 439.283 353.406 439.37 353.119 439.345V439.345Z" fill="#B1D4F8"/>
<path d="M366.175 309.681H366C365.857 309.659 365.72 309.61 365.596 309.535C365.473 309.461 365.365 309.363 365.28 309.247C365.194 309.13 365.132 308.998 365.098 308.858C365.063 308.718 365.056 308.573 365.078 308.43L382.106 192.458C382.147 192.167 382.302 191.904 382.536 191.727C382.653 191.64 382.785 191.576 382.926 191.539C383.067 191.503 383.213 191.494 383.357 191.515C383.501 191.535 383.64 191.583 383.765 191.657C383.891 191.731 384 191.828 384.088 191.945C384.176 192.061 384.24 192.193 384.276 192.334C384.313 192.475 384.321 192.621 384.301 192.765L367.251 308.737C367.214 308.997 367.085 309.235 366.888 309.408C366.691 309.581 366.438 309.678 366.175 309.681V309.681Z" fill="#B1D4F8"/>
<path d="M445.326 256.885C445.161 256.886 444.998 256.849 444.849 256.776C444.701 256.704 444.571 256.599 444.47 256.468L393.671 190.33C393.514 190.099 393.451 189.817 393.495 189.541C393.54 189.265 393.687 189.017 393.908 188.846C394.129 188.675 394.407 188.595 394.685 188.622C394.963 188.649 395.22 188.781 395.404 188.992L446.204 255.129C446.335 255.29 446.417 255.485 446.44 255.691C446.463 255.898 446.426 256.106 446.334 256.292C446.241 256.477 446.096 256.632 445.917 256.737C445.739 256.843 445.533 256.894 445.326 256.885Z" fill="#B1D4F8"/>
<path d="M465.119 369.17C464.854 369.168 464.598 369.072 464.397 368.899C464.196 368.726 464.063 368.488 464.022 368.226L451.448 272.728C451.411 272.44 451.489 272.149 451.666 271.918C451.843 271.688 452.104 271.537 452.392 271.499C452.679 271.467 452.967 271.548 453.196 271.724C453.425 271.9 453.577 272.157 453.621 272.442L466.216 367.941C466.247 368.231 466.164 368.522 465.983 368.752C465.803 368.981 465.54 369.131 465.251 369.17H465.119Z" fill="#B1D4F8"/>
<path d="M481.62 375.248C481.434 375.25 481.249 375.204 481.084 375.116C480.92 375.028 480.78 374.9 480.677 374.744C480.6 374.621 480.549 374.485 480.525 374.343C480.501 374.2 480.506 374.054 480.538 373.914C480.571 373.773 480.631 373.64 480.715 373.523C480.799 373.406 480.905 373.306 481.028 373.23L588.881 303.998C589.125 303.858 589.413 303.818 589.686 303.885C589.959 303.952 590.195 304.121 590.347 304.357C590.499 304.594 590.555 304.879 590.502 305.155C590.45 305.431 590.294 305.677 590.066 305.841L482.213 375.073C482.034 375.181 481.83 375.241 481.62 375.248V375.248Z" fill="#B1D4F8"/>
<path d="M615.806 286.267C615.628 286.265 615.453 286.22 615.296 286.136C615.139 286.052 615.006 285.931 614.906 285.784C614.823 285.666 614.765 285.534 614.735 285.393C614.704 285.253 614.702 285.108 614.729 284.967C614.756 284.825 614.81 284.691 614.89 284.571C614.969 284.452 615.072 284.349 615.191 284.27L716.768 214.226C717.007 214.065 717.3 214.005 717.584 214.058C717.867 214.111 718.118 214.274 718.282 214.511C718.446 214.751 718.511 215.046 718.462 215.333C718.413 215.619 718.254 215.876 718.019 216.047L616.42 286.069C616.242 286.199 616.026 286.268 615.806 286.267V286.267Z" fill="#B1D4F8"/>
<path d="M731.887 202.684C731.709 202.684 731.533 202.64 731.376 202.556C731.219 202.472 731.086 202.35 730.987 202.201C730.904 202.082 730.846 201.947 730.815 201.805C730.784 201.663 730.782 201.516 730.809 201.373C730.835 201.231 730.89 201.094 730.97 200.973C731.049 200.851 731.152 200.747 731.273 200.665L829.47 133.847C829.587 133.745 829.724 133.669 829.872 133.624C830.021 133.579 830.177 133.565 830.331 133.585C830.484 133.605 830.632 133.657 830.765 133.738C830.897 133.819 831.01 133.927 831.098 134.055C831.185 134.183 831.245 134.328 831.272 134.48C831.299 134.633 831.294 134.79 831.256 134.94C831.218 135.09 831.149 135.231 831.053 135.353C830.957 135.475 830.836 135.575 830.699 135.646L732.501 202.486C732.323 202.616 732.108 202.685 731.887 202.684V202.684Z" fill="#B1D4F8"/>
<path d="M827.407 119.648H827.122L608.454 58.8645C608.163 58.7859 607.916 58.595 607.765 58.3337C607.615 58.0724 607.575 57.7621 607.654 57.4711C607.732 57.1801 607.923 56.9322 608.184 56.782C608.446 56.6318 608.756 56.5916 609.047 56.6702L827.715 117.454C827.993 117.531 828.23 117.715 828.374 117.965C828.518 118.216 828.557 118.513 828.483 118.792C828.421 119.033 828.282 119.246 828.088 119.4C827.894 119.555 827.655 119.642 827.407 119.648V119.648Z" fill="#B1D4F8"/>
<path d="M580.696 137.049H580.542C580.253 137.006 579.991 136.85 579.815 136.617C579.639 136.383 579.561 136.089 579.599 135.799L588.793 66.9835C588.837 66.6981 588.989 66.4405 589.218 66.2647C589.447 66.0889 589.735 66.0083 590.022 66.0399C590.167 66.0587 590.306 66.1062 590.432 66.1796C590.558 66.2529 590.668 66.3507 590.756 66.4672C590.844 66.5837 590.908 66.7165 590.944 66.8579C590.98 66.9993 590.987 67.1464 590.965 67.2907L581.793 136.106C581.751 136.367 581.618 136.606 581.417 136.779C581.217 136.952 580.961 137.047 580.696 137.049Z" fill="#B1D4F8"/>
<path d="M715.1 207.466C714.942 207.509 714.775 207.509 714.617 207.466L586.796 145.827C586.534 145.699 586.334 145.472 586.239 145.196C586.145 144.921 586.163 144.619 586.291 144.357C586.419 144.095 586.646 143.894 586.922 143.8C587.198 143.705 587.5 143.724 587.762 143.852L715.649 205.382C715.94 205.443 716.194 205.617 716.357 205.866C716.52 206.115 716.577 206.418 716.515 206.709C716.454 207 716.28 207.255 716.031 207.418C715.782 207.58 715.479 207.637 715.188 207.576L715.1 207.466Z" fill="#B1D4F8"/>
<path d="M820.978 276.853C820.751 276.852 820.529 276.783 820.341 276.655L736.649 215.389C736.417 215.214 736.263 214.956 736.218 214.67C736.173 214.383 736.241 214.09 736.407 213.853C736.582 213.62 736.842 213.466 737.13 213.425C737.418 213.384 737.711 213.459 737.943 213.634L821.636 274.878C821.82 275.016 821.956 275.209 822.025 275.429C822.094 275.648 822.092 275.884 822.019 276.103C821.946 276.321 821.806 276.511 821.619 276.646C821.433 276.78 821.208 276.853 820.978 276.853V276.853Z" fill="#B1D4F8"/>
<path d="M503.103 210.145C502.951 210.147 502.799 210.117 502.66 210.056C502.52 209.996 502.394 209.906 502.291 209.794C502.188 209.692 502.107 209.57 502.051 209.437C501.995 209.303 501.967 209.159 501.967 209.015C501.967 208.87 501.995 208.726 502.051 208.593C502.107 208.459 502.188 208.338 502.291 208.236L568.912 148.308C569.014 148.19 569.14 148.095 569.282 148.029C569.423 147.964 569.578 147.929 569.734 147.928C569.89 147.927 570.044 147.959 570.187 148.022C570.33 148.085 570.457 148.178 570.561 148.295C570.665 148.411 570.743 148.548 570.789 148.697C570.836 148.846 570.85 149.004 570.831 149.159C570.812 149.313 570.76 149.463 570.679 149.596C570.598 149.729 570.489 149.844 570.36 149.931L503.827 209.859C503.732 209.952 503.618 210.026 503.494 210.075C503.37 210.124 503.237 210.147 503.103 210.145V210.145Z" fill="#B1D4F8"/>
<path d="M755.147 399.495C754.929 399.502 754.714 399.44 754.533 399.32L617.385 305.818C617.183 305.642 617.053 305.397 617.019 305.131C616.985 304.864 617.049 304.595 617.201 304.373C617.352 304.151 617.58 303.993 617.84 303.927C618.101 303.862 618.376 303.895 618.614 304.019L755.762 397.498C755.968 397.622 756.128 397.811 756.214 398.036C756.301 398.261 756.309 398.508 756.239 398.738C756.168 398.968 756.022 399.168 755.824 399.305C755.626 399.443 755.388 399.51 755.147 399.495V399.495Z" fill="#B1D4F8"/>
<path d="M589.473 286.267C589.246 286.266 589.025 286.197 588.837 286.069L507.185 229.477C507.058 229.398 506.949 229.295 506.864 229.173C506.779 229.051 506.719 228.912 506.689 228.767C506.659 228.621 506.659 228.47 506.689 228.325C506.718 228.179 506.778 228.04 506.863 227.918C506.948 227.796 507.056 227.692 507.183 227.613C507.309 227.535 507.45 227.482 507.597 227.46C507.745 227.437 507.895 227.445 508.039 227.482C508.183 227.52 508.318 227.586 508.436 227.677L590.153 284.27C590.387 284.437 590.545 284.69 590.595 284.973C590.644 285.256 590.58 285.547 590.417 285.784C590.313 285.937 590.172 286.062 590.007 286.147C589.842 286.231 589.658 286.272 589.473 286.267V286.267Z" fill="#B1D4F8"/>
<path d="M484.561 215.477C484.384 215.475 484.211 215.43 484.056 215.345L409.273 177.405C409.133 177.347 409.007 177.261 408.903 177.152C408.798 177.043 408.718 176.914 408.665 176.772C408.613 176.631 408.59 176.48 408.599 176.33C408.608 176.179 408.647 176.032 408.715 175.897C408.783 175.762 408.878 175.643 408.995 175.547C409.111 175.451 409.246 175.38 409.391 175.338C409.536 175.296 409.688 175.285 409.837 175.304C409.987 175.324 410.131 175.374 410.26 175.452L485.066 213.392C485.32 213.528 485.511 213.758 485.598 214.033C485.684 214.308 485.658 214.606 485.526 214.863C485.442 215.047 485.306 215.203 485.134 215.312C484.963 215.421 484.764 215.479 484.561 215.477V215.477Z" fill="#B1D4F8"/>
<path d="M609.222 393.79C608.942 393.79 608.673 393.684 608.469 393.492C608.265 393.3 608.142 393.038 608.125 392.758L603.736 307.178C603.728 307.034 603.747 306.89 603.794 306.753C603.841 306.617 603.915 306.491 604.011 306.383C604.106 306.275 604.223 306.187 604.353 306.124C604.483 306.061 604.624 306.024 604.768 306.015C604.913 306.003 605.058 306.021 605.196 306.067C605.334 306.113 605.461 306.186 605.57 306.282C605.678 306.379 605.766 306.496 605.829 306.628C605.891 306.759 605.925 306.902 605.931 307.047L610.32 392.627C610.328 392.771 610.309 392.915 610.262 393.052C610.215 393.188 610.141 393.314 610.045 393.422C609.95 393.53 609.833 393.618 609.703 393.682C609.573 393.745 609.432 393.781 609.288 393.79H609.222Z" fill="#B1D4F8"/>
<path d="M768.006 393.417C767.759 393.417 767.519 393.332 767.328 393.177C767.136 393.021 767.003 392.803 766.953 392.562L726.028 218.615C725.964 218.324 726.018 218.019 726.179 217.768C726.339 217.517 726.593 217.34 726.884 217.276C727.175 217.212 727.479 217.266 727.731 217.427C727.982 217.587 728.159 217.841 728.223 218.132L769.147 392.057C769.213 392.339 769.165 392.636 769.013 392.883C768.861 393.129 768.617 393.306 768.335 393.373L768.006 393.417Z" fill="#B1D4F8"/>
<path d="M719.884 200.269C719.732 200.27 719.581 200.239 719.441 200.179C719.301 200.119 719.176 200.03 719.072 199.918L601.652 67.1594C601.451 66.9543 601.338 66.6786 601.338 66.3914C601.338 66.1042 601.451 65.8285 601.652 65.6234C601.754 65.5205 601.875 65.4389 602.009 65.3832C602.143 65.3275 602.286 65.2988 602.431 65.2988C602.576 65.2988 602.719 65.3275 602.853 65.3832C602.987 65.4389 603.108 65.5205 603.21 65.6234L720.718 198.492C720.92 198.701 721.033 198.98 721.033 199.271C721.033 199.562 720.92 199.841 720.718 200.05C720.477 200.225 720.18 200.303 719.884 200.269V200.269Z" fill="#B1D4F8"/>
<path d="M917.947 331.799H917.771C917.487 331.751 917.233 331.592 917.065 331.358C916.896 331.124 916.827 330.833 916.871 330.548L938.266 198.887C938.313 198.596 938.473 198.335 938.712 198.162C938.95 197.99 939.248 197.919 939.539 197.965C939.83 198.012 940.091 198.172 940.263 198.411C940.436 198.649 940.507 198.947 940.461 199.238L919.066 330.899C919.014 331.157 918.874 331.388 918.669 331.552C918.465 331.717 918.209 331.804 917.947 331.799Z" fill="#B1D4F8"/>
<path d="M932.166 177.513C931.939 177.512 931.717 177.443 931.53 177.316L867.74 132.661C867.546 132.48 867.425 132.235 867.397 131.972C867.37 131.708 867.439 131.444 867.591 131.227C867.744 131.011 867.969 130.857 868.227 130.794C868.484 130.73 868.755 130.762 868.99 130.883L932.89 175.516C933.081 175.649 933.224 175.839 933.3 176.059C933.375 176.279 933.379 176.517 933.311 176.739C933.243 176.961 933.106 177.156 932.92 177.295C932.734 177.434 932.508 177.51 932.276 177.513H932.166Z" fill="#B1D4F8"/>
<path d="M834.385 108.765C834.158 108.764 833.937 108.695 833.749 108.568L747.752 46.7306C747.634 46.6475 747.533 46.5417 747.455 46.4193C747.377 46.2968 747.325 46.1603 747.3 46.0175C747.276 45.8747 747.28 45.7284 747.312 45.5872C747.345 45.4459 747.405 45.3125 747.489 45.1946C747.664 44.9631 747.922 44.8086 748.208 44.7636C748.495 44.7185 748.788 44.7865 749.025 44.9532L835.022 106.79C835.255 106.958 835.414 107.21 835.463 107.493C835.512 107.777 835.448 108.068 835.285 108.304C835.182 108.446 835.047 108.562 834.89 108.642C834.734 108.722 834.561 108.764 834.385 108.765V108.765Z" fill="#B1D4F8"/>
<path d="M341.818 444.018C341.605 444.016 341.396 443.953 341.217 443.837C341.038 443.72 340.897 443.555 340.809 443.36L297.997 345.009C297.92 344.875 297.872 344.727 297.856 344.574C297.84 344.42 297.856 344.265 297.904 344.119C297.952 343.972 298.031 343.838 298.134 343.723C298.238 343.609 298.364 343.518 298.506 343.456C298.647 343.394 298.799 343.362 298.953 343.363C299.108 343.364 299.26 343.398 299.4 343.461C299.541 343.525 299.666 343.618 299.768 343.733C299.871 343.848 299.947 343.984 299.994 344.131L342.827 442.482C342.886 442.615 342.917 442.757 342.92 442.902C342.922 443.047 342.897 443.19 342.844 443.325C342.79 443.46 342.711 443.582 342.611 443.686C342.51 443.79 342.39 443.873 342.257 443.931C342.119 443.993 341.969 444.023 341.818 444.018V444.018Z" fill="#B1D4F8"/>
<path d="M298.984 326.467C298.832 326.497 298.675 326.497 298.523 326.467C298.392 326.406 298.273 326.319 298.175 326.212C298.077 326.105 298.002 325.979 297.953 325.842C297.904 325.705 297.882 325.56 297.89 325.415C297.897 325.27 297.934 325.128 297.997 324.997L365.188 185.743C365.256 185.607 365.352 185.486 365.47 185.389C365.588 185.293 365.725 185.222 365.873 185.183C366.02 185.144 366.174 185.136 366.325 185.161C366.475 185.185 366.619 185.242 366.746 185.326C366.878 185.387 366.996 185.474 367.094 185.581C367.192 185.689 367.268 185.814 367.317 185.951C367.365 186.088 367.387 186.233 367.379 186.378C367.372 186.523 367.335 186.665 367.273 186.796L299.972 325.765C299.899 325.97 299.766 326.147 299.589 326.272C299.412 326.398 299.201 326.466 298.984 326.467V326.467Z" fill="#B1D4F8"/>
<path d="M306.182 333.664C305.891 333.702 305.597 333.622 305.364 333.443C305.132 333.264 304.98 333 304.942 332.709C304.904 332.418 304.983 332.124 305.162 331.892C305.341 331.659 305.605 331.507 305.896 331.469L358.671 317.074C358.815 317.036 358.965 317.025 359.113 317.045C359.261 317.064 359.404 317.112 359.533 317.186C359.663 317.261 359.776 317.36 359.867 317.478C359.958 317.596 360.025 317.731 360.064 317.875C360.103 318.019 360.113 318.17 360.094 318.318C360.075 318.466 360.027 318.609 359.952 318.738C359.878 318.867 359.779 318.981 359.66 319.072C359.542 319.163 359.407 319.23 359.263 319.269L306.467 333.664H306.182Z" fill="#B1D4F8"/>
<path d="M457.329 374.458C457.119 374.454 456.915 374.393 456.736 374.282L375.172 321.486C375.043 321.412 374.93 321.313 374.84 321.194C374.75 321.075 374.686 320.939 374.65 320.794C374.615 320.649 374.609 320.499 374.634 320.352C374.658 320.205 374.712 320.065 374.793 319.939C374.873 319.814 374.979 319.707 375.102 319.623C375.226 319.54 375.365 319.483 375.511 319.455C375.658 319.427 375.808 319.429 375.953 319.462C376.099 319.494 376.236 319.555 376.357 319.643L457.921 372.439C458.166 372.596 458.337 372.844 458.399 373.128C458.461 373.412 458.407 373.708 458.251 373.953C458.15 374.106 458.013 374.232 457.853 374.32C457.692 374.408 457.512 374.455 457.329 374.458V374.458Z" fill="#B1D4F8"/>
<path d="M373.329 314.464C373.142 314.466 372.958 314.42 372.793 314.332C372.628 314.244 372.488 314.116 372.385 313.959C372.309 313.837 372.257 313.701 372.233 313.558C372.209 313.416 372.214 313.27 372.247 313.13C372.279 312.989 372.339 312.856 372.423 312.739C372.507 312.621 372.614 312.522 372.737 312.445L444.711 266.869C444.832 266.771 444.972 266.701 445.121 266.661C445.271 266.622 445.427 266.614 445.58 266.64C445.733 266.665 445.879 266.722 446.008 266.808C446.137 266.894 446.246 267.006 446.329 267.137C446.411 267.268 446.465 267.415 446.487 267.568C446.509 267.721 446.498 267.877 446.455 268.026C446.412 268.175 446.338 268.313 446.238 268.431C446.138 268.549 446.014 268.645 445.874 268.712L373.9 314.311C373.728 314.415 373.53 314.468 373.329 314.464Z" fill="#B1D4F8"/>
<path d="M457.329 259.297C457.023 259.289 456.732 259.164 456.517 258.946C456.414 258.844 456.333 258.723 456.277 258.589C456.221 258.455 456.193 258.312 456.193 258.167C456.193 258.022 456.221 257.879 456.277 257.745C456.333 257.611 456.414 257.49 456.517 257.388L485.307 231.056C485.516 230.853 485.795 230.74 486.086 230.74C486.377 230.74 486.656 230.853 486.865 231.056C486.968 231.158 487.05 231.279 487.105 231.413C487.161 231.547 487.19 231.69 487.19 231.835C487.19 231.98 487.161 232.123 487.105 232.257C487.05 232.391 486.968 232.512 486.865 232.614L458.075 258.946C457.875 259.147 457.611 259.271 457.329 259.297V259.297Z" fill="#B1D4F8"/>
<path d="M410.633 157.325C410.416 157.327 410.203 157.263 410.023 157.142C409.843 157.02 409.704 156.847 409.624 156.645C409.57 156.511 409.544 156.368 409.546 156.224C409.548 156.079 409.578 155.937 409.635 155.804C409.692 155.672 409.775 155.552 409.878 155.452C409.982 155.351 410.104 155.272 410.238 155.219L477.407 128.886C477.678 128.779 477.98 128.783 478.248 128.898C478.515 129.013 478.726 129.23 478.834 129.501C478.941 129.771 478.937 130.074 478.822 130.341C478.707 130.609 478.49 130.819 478.219 130.927L411.028 157.259C410.901 157.302 410.767 157.325 410.633 157.325Z" fill="#B1D4F8"/>
<path d="M493.317 204.11C493.048 204.107 492.79 204.008 492.589 203.831C492.387 203.654 492.256 203.41 492.219 203.144L485.022 135.953C485.007 135.809 485.02 135.663 485.062 135.524C485.103 135.385 485.172 135.256 485.264 135.144C485.356 135.031 485.469 134.939 485.597 134.87C485.725 134.802 485.865 134.76 486.009 134.746C486.299 134.722 486.588 134.811 486.813 134.995C487.038 135.18 487.183 135.444 487.216 135.734L494.414 202.881C494.429 203.025 494.415 203.171 494.374 203.31C494.332 203.449 494.264 203.578 494.172 203.69C494.08 203.803 493.967 203.896 493.839 203.964C493.711 204.032 493.571 204.074 493.426 204.088L493.317 204.11Z" fill="#B1D4F8"/>
<path d="M490.925 124.937C490.692 124.934 490.467 124.857 490.281 124.718C490.095 124.579 489.958 124.384 489.89 124.162C489.821 123.94 489.825 123.702 489.901 123.482C489.976 123.263 490.12 123.073 490.31 122.94L583.987 60.5541C584.228 60.4249 584.509 60.3903 584.774 60.457C585.039 60.5238 585.27 60.6871 585.421 60.9149C585.572 61.1428 585.632 61.4189 585.59 61.689C585.548 61.9592 585.407 62.204 585.194 62.3755L491.517 124.761C491.344 124.881 491.136 124.943 490.925 124.937Z" fill="#B1D4F8"/>
<path d="M397.467 139.245C397.212 139.249 396.964 139.163 396.765 139.004C396.542 138.82 396.401 138.555 396.372 138.267C396.343 137.98 396.429 137.692 396.611 137.468L456.473 63.1887C456.654 62.9627 456.917 62.8173 457.205 62.7844C457.493 62.7516 457.782 62.8338 458.009 63.0132C458.237 63.1981 458.383 63.4649 458.416 63.7563C458.448 64.0476 458.366 64.3402 458.185 64.5712L398.213 138.938C398.011 139.13 397.745 139.239 397.467 139.245V139.245Z" fill="#B1D4F8"/>
<path d="M471.724 57.7681C471.433 57.7681 471.154 57.6525 470.948 57.4467C470.743 57.241 470.627 56.9619 470.627 56.6709C470.627 56.3799 470.743 56.1008 470.948 55.8951C471.154 55.6893 471.433 55.5737 471.724 55.5737L582.078 53.1819C582.222 53.179 582.366 53.2045 582.5 53.2569C582.634 53.3094 582.757 53.3878 582.861 53.4876C582.965 53.5875 583.048 53.7068 583.106 53.8389C583.163 53.9709 583.195 54.113 583.197 54.2571C583.2 54.4012 583.175 54.5444 583.122 54.6787C583.07 54.8129 582.992 54.9355 582.892 55.0394C582.792 55.1433 582.673 55.2266 582.54 55.2844C582.408 55.3422 582.266 55.3734 582.122 55.3762L471.746 57.7681H471.724Z" fill="#B1D4F8"/>
<path d="M609.661 51.7774C609.389 51.7729 609.128 51.6669 608.929 51.4803C608.73 51.2937 608.608 51.0398 608.586 50.768C608.571 50.6233 608.585 50.477 608.629 50.338C608.672 50.199 608.743 50.0702 608.837 49.9594C608.931 49.8486 609.047 49.7581 609.178 49.6934C609.308 49.6287 609.45 49.5912 609.595 49.5831L731.931 39.9937C732.075 39.9822 732.22 39.9992 732.357 40.0437C732.495 40.0882 732.622 40.1593 732.732 40.253C732.842 40.3468 732.933 40.4612 732.999 40.59C733.065 40.7187 733.104 40.8591 733.116 41.0031C733.127 41.1472 733.11 41.2922 733.066 41.4297C733.021 41.5672 732.95 41.6946 732.857 41.8047C732.763 41.9147 732.648 42.0052 732.52 42.071C732.391 42.1368 732.251 42.1766 732.106 42.1881L609.749 51.7994L609.661 51.7774Z" fill="#B1D4F8"/>
<path d="M778.802 393.636C778.658 393.669 778.508 393.669 778.363 393.636C778.099 393.516 777.892 393.298 777.785 393.027C777.679 392.757 777.681 392.456 777.793 392.188L823.392 289.053C823.438 288.906 823.515 288.77 823.617 288.655C823.719 288.539 823.845 288.447 823.985 288.383C824.125 288.319 824.278 288.286 824.432 288.285C824.586 288.284 824.739 288.316 824.88 288.378C825.021 288.44 825.147 288.531 825.251 288.645C825.355 288.759 825.433 288.894 825.481 289.041C825.529 289.187 825.546 289.342 825.53 289.496C825.514 289.649 825.466 289.797 825.389 289.931L779.812 393.066C779.714 393.245 779.567 393.394 779.389 393.495C779.21 393.596 779.007 393.645 778.802 393.636Z" fill="#B1D4F8"/>
<path d="M829.185 276.085H829.053C828.764 276.047 828.501 275.897 828.32 275.667C828.14 275.438 828.057 275.147 828.088 274.857L844.896 142.91C844.913 142.765 844.958 142.626 845.028 142.499C845.099 142.372 845.195 142.26 845.309 142.17C845.423 142.08 845.554 142.014 845.694 141.975C845.835 141.936 845.981 141.926 846.125 141.944C846.411 141.988 846.668 142.14 846.844 142.369C847.02 142.598 847.101 142.886 847.069 143.173L830.282 275.12C830.245 275.386 830.114 275.629 829.913 275.806C829.711 275.984 829.453 276.083 829.185 276.085V276.085Z" fill="#B1D4F8"/>
<path d="M472.909 367.458H472.755C472.611 367.44 472.473 367.392 472.348 367.319C472.223 367.245 472.114 367.147 472.027 367.03C471.941 366.913 471.88 366.78 471.847 366.639C471.813 366.497 471.809 366.351 471.834 366.208L492.68 232.791C492.729 232.505 492.886 232.249 493.12 232.078C493.353 231.906 493.644 231.831 493.931 231.869C494.217 231.918 494.472 232.075 494.644 232.309C494.816 232.542 494.891 232.833 494.853 233.12L474.006 366.559C473.955 366.812 473.818 367.041 473.618 367.205C473.418 367.369 473.168 367.458 472.909 367.458V367.458Z" fill="#B1D4F8"/>
<path d="M901.16 338.471C900.913 338.468 900.673 338.383 900.479 338.229L835.702 287.759C835.476 287.578 835.331 287.315 835.298 287.027C835.265 286.74 835.347 286.45 835.526 286.223C835.613 286.107 835.721 286.01 835.846 285.936C835.971 285.863 836.109 285.816 836.252 285.798C836.396 285.779 836.541 285.79 836.681 285.829C836.82 285.868 836.95 285.935 837.062 286.026L901.84 336.496C902.066 336.677 902.211 336.94 902.244 337.228C902.277 337.515 902.195 337.805 902.015 338.032C901.917 338.166 901.788 338.276 901.639 338.352C901.491 338.429 901.327 338.469 901.16 338.471Z" fill="#B1D4F8"/>
<path d="M483.727 122.546C483.492 122.547 483.264 122.473 483.074 122.335C482.884 122.197 482.744 122.001 482.674 121.778L465.865 66.5895C465.781 66.2985 465.815 65.9859 465.961 65.7205C466.107 65.455 466.353 65.2585 466.644 65.1741C466.935 65.0897 467.248 65.1244 467.513 65.2705C467.778 65.4166 467.975 65.6621 468.059 65.9531L484.868 121.141C484.95 121.421 484.917 121.721 484.777 121.976C484.637 122.231 484.401 122.42 484.122 122.502L483.727 122.546Z" fill="#B1D4F8"/>
<path d="M602.64 277.489C602.382 277.492 602.132 277.403 601.935 277.238C601.738 277.073 601.606 276.843 601.564 276.589L579.621 151.511C579.592 151.369 579.593 151.224 579.622 151.082C579.651 150.941 579.708 150.807 579.79 150.688C579.872 150.57 579.977 150.468 580.098 150.391C580.22 150.314 580.356 150.262 580.498 150.238C580.784 150.187 581.077 150.25 581.316 150.415C581.554 150.579 581.718 150.831 581.771 151.116L603.715 276.194C603.743 276.336 603.743 276.481 603.714 276.623C603.685 276.764 603.628 276.898 603.546 277.017C603.464 277.135 603.359 277.236 603.237 277.314C603.115 277.391 602.979 277.443 602.837 277.467L602.64 277.489Z" fill="#B1D4F8"/>
</g>
</g>
<defs>
<clipPath id="clip0">
<rect width="768" height="380" fill="white" transform="translate(223)"/>
</clipPath>
</defs>
</svg>
