<svg width="16" height="15" viewBox="0 0 16 15" fill="none" xmlns="http://www.w3.org/2000/svg">
<path fill-rule="evenodd" clip-rule="evenodd" d="M7.99949 0C3.58199 0 0 3.44268 0 7.69041C0 11.0874 2.292 13.9697 5.4715 14.9867C5.8715 15.0574 6.0175 14.8199 6.0175 14.6162C6.0175 14.4335 6.01049 13.95 6.00649 13.3084C3.78099 13.7732 3.3115 12.2775 3.3115 12.2775C2.948 11.3893 2.4235 11.1528 2.4235 11.1528C1.697 10.6756 2.4785 10.6852 2.4785 10.6852C3.281 10.7395 3.70349 11.4777 3.70349 11.4777C4.41749 12.6528 5.576 12.3135 6.032 12.1165C6.1045 11.6195 6.3115 11.2807 6.54 11.0884C4.7635 10.8942 2.896 10.2348 2.896 7.28814C2.896 6.4485 3.2075 5.76216 3.7195 5.22435C3.637 5.0297 3.36251 4.24821 3.79751 3.1894C3.79751 3.1894 4.4695 2.98273 5.9975 3.97762C6.636 3.807 7.32001 3.72192 8.00051 3.71856C8.68001 3.72192 9.3645 3.807 10.0035 3.97762C11.5305 2.98273 12.201 3.1894 12.201 3.1894C12.6375 4.24821 12.363 5.0297 12.2805 5.22435C12.7935 5.76216 13.103 6.4485 13.103 7.28814C13.103 10.242 11.2325 10.8923 9.4505 11.0826C9.7375 11.3201 9.99351 11.7892 9.99351 12.5067C9.99351 13.5348 9.9835 14.3638 9.9835 14.6162C9.9835 14.8219 10.1275 15.0612 10.5335 14.9858C13.71 13.9668 16 11.0865 16 7.69041C16 3.44268 12.418 0 7.99949 0Z" fill="#0064FF"/>
</svg>
